<?xml version="1.0" encoding="UTF-8"?>
<!DOCTYPE svg PUBLIC "-//W3C//DTD SVG 1.1//EN" "http://www.w3.org/Graphics/SVG/1.1/DTD/svg11.dtd">
<svg version="1.1" xmlns="http://www.w3.org/2000/svg" xmlns:xlink="http://www.w3.org/1999/xlink" x="0" y="0" width="378" height="310" viewBox="0, 0, 378, 310">
  <g id="Layer_1">
    <g id="background">
      <g>
        <path d="M-0,0 L378,0 L378,310 L-0,310 z" fill="#696969"/>
        <path d="M-0,0 L378,0 L378,310 L-0,310 z" fill-opacity="0" stroke="#696969" stroke-width="0.25"/>
      </g>
      <path d="M0,0 L377.251,0 L377.251,309.848 L0,309.848 z" fill-opacity="0" stroke="#FFFFFF" stroke-width="0.503"/>
    </g>
    <g id="CROSS">
      <path d="M117.333,131.438 L309.562,131.438" fill-opacity="0" stroke="#9C7BEB" stroke-width="1.25" stroke-opacity="0.501" stroke-dasharray="6.25,5" id="H-cross"/>
      <path d="M189.562,253.438 L189.562,9.437" fill-opacity="0" stroke="#9C7BEB" stroke-width="1.25" stroke-opacity="0.499" stroke-dasharray="6.25,5" id="V-cross"/>
      <g>
        <path d="M169.974,219.912 L188.359,142.901 C187.666,136.31 181.761,131.529 175.17,132.221 L102.323,156.636 z" fill="#FCFC00" fill-opacity="0.644"/>
        <path d="M169.974,219.912 L188.359,142.901 C187.666,136.31 181.761,131.529 175.17,132.221 L102.323,156.636 z" fill-opacity="0" stroke="#696969" stroke-width="0.25"/>
      </g>
      <g>
        <path d="M235.812,131.375 C235.85,145.088 229.808,158.112 219.315,166.939 C211.491,173.521 201.792,177.266 191.766,177.758" fill-opacity="0" stroke="#00FF00" stroke-width="1.75" stroke-dasharray="5.25,3.5"/>
        <path d="M191.983,174.314 L182.585,177.179 L191.55,181.201 M191.766,177.758 L182.585,177.179" fill-opacity="0" stroke="#00FF00" stroke-width="1.75" stroke-opacity="1"/>
      </g>
      <g>
        <path d="M262.062,131.375 C262.125,167.367 235.751,197.946 200.14,203.17 C167.989,207.887 137.114,190.646 123.853,161.867" fill-opacity="0" stroke="#FFFF00" stroke-width="1.75" stroke-dasharray="5.25,3.5"/>
        <path d="M127.082,160.65 L120.608,153.259 L120.625,163.084 M123.853,161.867 L120.608,153.259" fill-opacity="0" stroke="#FFFF00" stroke-width="1.75" stroke-opacity="1"/>
      </g>
    </g>
    <g id="FA_Arrow">
      <g>
        <path d="M235.563,119.288 L235.563,99.333" fill-opacity="0" stroke="#FFFFFF" stroke-width="1.766" stroke-linecap="square" stroke-linejoin="bevel" stroke-miterlimit="1"/>
        <path d="M232.103,119.288 L235.563,128.513 L239.023,119.288 M235.563,119.288 L235.563,128.513" fill-opacity="0" stroke="#FFFFFF" stroke-width="1.766" stroke-opacity="1"/>
      </g>
      <path d="M235.563,99.333 L159,99.333" fill-opacity="0" stroke="#FFFFFF" stroke-width="1.77"/>
    </g>
    <g id="BA_Arrow">
      <g>
        <path d="M261.969,119.288 L261.667,83.667" fill-opacity="0" stroke="#FFFFFF" stroke-width="1.766" stroke-linecap="square" stroke-linejoin="bevel" stroke-miterlimit="1"/>
        <path d="M258.51,119.318 L262.047,128.514 L265.429,119.259 M261.969,119.288 L262.047,128.514" fill-opacity="0" stroke="#FFFFFF" stroke-width="1.766" stroke-opacity="1"/>
      </g>
    </g>
    <path d="M75.529,83.667 L165.529,83.667 L165.529,113.667 L75.529,113.667 L75.529,83.667 z" fill-opacity="0" stroke="#FFFFFF" stroke-width="1.766" display="none"/>
  </g>
</svg>
