<?xml version="1.0" encoding="UTF-8" standalone="no"?>
<!-- Created with Inkscape (http://www.inkscape.org/) -->

<svg
   xmlns:dc="http://purl.org/dc/elements/1.1/"
   xmlns:cc="http://creativecommons.org/ns#"
   xmlns:rdf="http://www.w3.org/1999/02/22-rdf-syntax-ns#"
   xmlns:svg="http://www.w3.org/2000/svg"
   xmlns="http://www.w3.org/2000/svg"
   xmlns:sodipodi="http://sodipodi.sourceforge.net/DTD/sodipodi-0.dtd"
   xmlns:inkscape="http://www.inkscape.org/namespaces/inkscape"
   id="svg2"
   version="1.1"
   inkscape:version="0.47 r22583"
   width="208"
   height="280"
   sodipodi:docname="mill_thread_mill_ext_main.svg"
   style="display:inline">
  <metadata
     id="metadata8">
    <rdf:RDF>
      <cc:Work
         rdf:about="">
        <dc:format>image/svg+xml</dc:format>
        <dc:type
           rdf:resource="http://purl.org/dc/dcmitype/StillImage" />
        <dc:title />
      </cc:Work>
    </rdf:RDF>
  </metadata>
  <defs
     id="defs6">
    <inkscape:perspective
       sodipodi:type="inkscape:persp3d"
       inkscape:vp_x="0 : 0.5 : 1"
       inkscape:vp_y="0 : 1000 : 0"
       inkscape:vp_z="1 : 0.5 : 1"
       inkscape:persp3d-origin="0.5 : 0.33333333 : 1"
       id="perspective10" />
    <inkscape:perspective
       id="perspective4325"
       inkscape:persp3d-origin="0.5 : 0.33333333 : 1"
       inkscape:vp_z="1 : 0.5 : 1"
       inkscape:vp_y="0 : 1000 : 0"
       inkscape:vp_x="0 : 0.5 : 1"
       sodipodi:type="inkscape:persp3d" />
    <inkscape:perspective
       id="perspective4347"
       inkscape:persp3d-origin="0.5 : 0.33333333 : 1"
       inkscape:vp_z="1 : 0.5 : 1"
       inkscape:vp_y="0 : 1000 : 0"
       inkscape:vp_x="0 : 0.5 : 1"
       sodipodi:type="inkscape:persp3d" />
    <inkscape:perspective
       id="perspective4369"
       inkscape:persp3d-origin="0.5 : 0.33333333 : 1"
       inkscape:vp_z="1 : 0.5 : 1"
       inkscape:vp_y="0 : 1000 : 0"
       inkscape:vp_x="0 : 0.5 : 1"
       sodipodi:type="inkscape:persp3d" />
    <inkscape:perspective
       id="perspective4391"
       inkscape:persp3d-origin="0.5 : 0.33333333 : 1"
       inkscape:vp_z="1 : 0.5 : 1"
       inkscape:vp_y="0 : 1000 : 0"
       inkscape:vp_x="0 : 0.5 : 1"
       sodipodi:type="inkscape:persp3d" />
    <inkscape:perspective
       id="perspective4422"
       inkscape:persp3d-origin="0.5 : 0.33333333 : 1"
       inkscape:vp_z="1 : 0.5 : 1"
       inkscape:vp_y="0 : 1000 : 0"
       inkscape:vp_x="0 : 0.5 : 1"
       sodipodi:type="inkscape:persp3d" />
    <inkscape:perspective
       id="perspective4422-2"
       inkscape:persp3d-origin="0.5 : 0.33333333 : 1"
       inkscape:vp_z="1 : 0.5 : 1"
       inkscape:vp_y="0 : 1000 : 0"
       inkscape:vp_x="0 : 0.5 : 1"
       sodipodi:type="inkscape:persp3d" />
    <inkscape:perspective
       id="perspective4453"
       inkscape:persp3d-origin="0.5 : 0.33333333 : 1"
       inkscape:vp_z="1 : 0.5 : 1"
       inkscape:vp_y="0 : 1000 : 0"
       inkscape:vp_x="0 : 0.5 : 1"
       sodipodi:type="inkscape:persp3d" />
    <inkscape:perspective
       id="perspective4475"
       inkscape:persp3d-origin="0.5 : 0.33333333 : 1"
       inkscape:vp_z="1 : 0.5 : 1"
       inkscape:vp_y="0 : 1000 : 0"
       inkscape:vp_x="0 : 0.5 : 1"
       sodipodi:type="inkscape:persp3d" />
    <inkscape:perspective
       id="perspective4475-5"
       inkscape:persp3d-origin="0.5 : 0.33333333 : 1"
       inkscape:vp_z="1 : 0.5 : 1"
       inkscape:vp_y="0 : 1000 : 0"
       inkscape:vp_x="0 : 0.5 : 1"
       sodipodi:type="inkscape:persp3d" />
    <inkscape:perspective
       id="perspective4506"
       inkscape:persp3d-origin="0.5 : 0.33333333 : 1"
       inkscape:vp_z="1 : 0.5 : 1"
       inkscape:vp_y="0 : 1000 : 0"
       inkscape:vp_x="0 : 0.5 : 1"
       sodipodi:type="inkscape:persp3d" />
    <inkscape:perspective
       id="perspective4506-0"
       inkscape:persp3d-origin="0.5 : 0.33333333 : 1"
       inkscape:vp_z="1 : 0.5 : 1"
       inkscape:vp_y="0 : 1000 : 0"
       inkscape:vp_x="0 : 0.5 : 1"
       sodipodi:type="inkscape:persp3d" />
    <inkscape:perspective
       id="perspective4537"
       inkscape:persp3d-origin="0.5 : 0.33333333 : 1"
       inkscape:vp_z="1 : 0.5 : 1"
       inkscape:vp_y="0 : 1000 : 0"
       inkscape:vp_x="0 : 0.5 : 1"
       sodipodi:type="inkscape:persp3d" />
    <inkscape:perspective
       id="perspective4559"
       inkscape:persp3d-origin="0.5 : 0.33333333 : 1"
       inkscape:vp_z="1 : 0.5 : 1"
       inkscape:vp_y="0 : 1000 : 0"
       inkscape:vp_x="0 : 0.5 : 1"
       sodipodi:type="inkscape:persp3d" />
    <inkscape:perspective
       id="perspective4581"
       inkscape:persp3d-origin="0.5 : 0.33333333 : 1"
       inkscape:vp_z="1 : 0.5 : 1"
       inkscape:vp_y="0 : 1000 : 0"
       inkscape:vp_x="0 : 0.5 : 1"
       sodipodi:type="inkscape:persp3d" />
    <inkscape:perspective
       id="perspective4607"
       inkscape:persp3d-origin="0.5 : 0.33333333 : 1"
       inkscape:vp_z="1 : 0.5 : 1"
       inkscape:vp_y="0 : 1000 : 0"
       inkscape:vp_x="0 : 0.5 : 1"
       sodipodi:type="inkscape:persp3d" />
    <inkscape:perspective
       id="perspective4629"
       inkscape:persp3d-origin="0.5 : 0.33333333 : 1"
       inkscape:vp_z="1 : 0.5 : 1"
       inkscape:vp_y="0 : 1000 : 0"
       inkscape:vp_x="0 : 0.5 : 1"
       sodipodi:type="inkscape:persp3d" />
    <inkscape:perspective
       id="perspective4651"
       inkscape:persp3d-origin="0.5 : 0.33333333 : 1"
       inkscape:vp_z="1 : 0.5 : 1"
       inkscape:vp_y="0 : 1000 : 0"
       inkscape:vp_x="0 : 0.5 : 1"
       sodipodi:type="inkscape:persp3d" />
    <inkscape:perspective
       id="perspective4694"
       inkscape:persp3d-origin="0.5 : 0.33333333 : 1"
       inkscape:vp_z="1 : 0.5 : 1"
       inkscape:vp_y="0 : 1000 : 0"
       inkscape:vp_x="0 : 0.5 : 1"
       sodipodi:type="inkscape:persp3d" />
    <inkscape:perspective
       id="perspective4752"
       inkscape:persp3d-origin="0.5 : 0.33333333 : 1"
       inkscape:vp_z="1 : 0.5 : 1"
       inkscape:vp_y="0 : 1000 : 0"
       inkscape:vp_x="0 : 0.5 : 1"
       sodipodi:type="inkscape:persp3d" />
    <inkscape:perspective
       id="perspective4776"
       inkscape:persp3d-origin="0.5 : 0.33333333 : 1"
       inkscape:vp_z="1 : 0.5 : 1"
       inkscape:vp_y="0 : 1000 : 0"
       inkscape:vp_x="0 : 0.5 : 1"
       sodipodi:type="inkscape:persp3d" />
    <inkscape:perspective
       id="perspective4776-4"
       inkscape:persp3d-origin="0.5 : 0.33333333 : 1"
       inkscape:vp_z="1 : 0.5 : 1"
       inkscape:vp_y="0 : 1000 : 0"
       inkscape:vp_x="0 : 0.5 : 1"
       sodipodi:type="inkscape:persp3d" />
    <inkscape:perspective
       id="perspective4776-0"
       inkscape:persp3d-origin="0.5 : 0.33333333 : 1"
       inkscape:vp_z="1 : 0.5 : 1"
       inkscape:vp_y="0 : 1000 : 0"
       inkscape:vp_x="0 : 0.5 : 1"
       sodipodi:type="inkscape:persp3d" />
    <inkscape:perspective
       id="perspective4776-2"
       inkscape:persp3d-origin="0.5 : 0.33333333 : 1"
       inkscape:vp_z="1 : 0.5 : 1"
       inkscape:vp_y="0 : 1000 : 0"
       inkscape:vp_x="0 : 0.5 : 1"
       sodipodi:type="inkscape:persp3d" />
    <inkscape:perspective
       id="perspective4776-6"
       inkscape:persp3d-origin="0.5 : 0.33333333 : 1"
       inkscape:vp_z="1 : 0.5 : 1"
       inkscape:vp_y="0 : 1000 : 0"
       inkscape:vp_x="0 : 0.5 : 1"
       sodipodi:type="inkscape:persp3d" />
    <inkscape:perspective
       id="perspective4776-1"
       inkscape:persp3d-origin="0.5 : 0.33333333 : 1"
       inkscape:vp_z="1 : 0.5 : 1"
       inkscape:vp_y="0 : 1000 : 0"
       inkscape:vp_x="0 : 0.5 : 1"
       sodipodi:type="inkscape:persp3d" />
    <inkscape:perspective
       id="perspective4776-9"
       inkscape:persp3d-origin="0.5 : 0.33333333 : 1"
       inkscape:vp_z="1 : 0.5 : 1"
       inkscape:vp_y="0 : 1000 : 0"
       inkscape:vp_x="0 : 0.5 : 1"
       sodipodi:type="inkscape:persp3d" />
    <inkscape:perspective
       id="perspective4776-43"
       inkscape:persp3d-origin="0.5 : 0.33333333 : 1"
       inkscape:vp_z="1 : 0.5 : 1"
       inkscape:vp_y="0 : 1000 : 0"
       inkscape:vp_x="0 : 0.5 : 1"
       sodipodi:type="inkscape:persp3d" />
    <inkscape:perspective
       id="perspective4776-7"
       inkscape:persp3d-origin="0.5 : 0.33333333 : 1"
       inkscape:vp_z="1 : 0.5 : 1"
       inkscape:vp_y="0 : 1000 : 0"
       inkscape:vp_x="0 : 0.5 : 1"
       sodipodi:type="inkscape:persp3d" />
    <inkscape:perspective
       id="perspective4776-64"
       inkscape:persp3d-origin="0.5 : 0.33333333 : 1"
       inkscape:vp_z="1 : 0.5 : 1"
       inkscape:vp_y="0 : 1000 : 0"
       inkscape:vp_x="0 : 0.5 : 1"
       sodipodi:type="inkscape:persp3d" />
    <inkscape:perspective
       id="perspective4776-3"
       inkscape:persp3d-origin="0.5 : 0.33333333 : 1"
       inkscape:vp_z="1 : 0.5 : 1"
       inkscape:vp_y="0 : 1000 : 0"
       inkscape:vp_x="0 : 0.5 : 1"
       sodipodi:type="inkscape:persp3d" />
    <inkscape:perspective
       id="perspective4776-28"
       inkscape:persp3d-origin="0.5 : 0.33333333 : 1"
       inkscape:vp_z="1 : 0.5 : 1"
       inkscape:vp_y="0 : 1000 : 0"
       inkscape:vp_x="0 : 0.5 : 1"
       sodipodi:type="inkscape:persp3d" />
    <inkscape:perspective
       id="perspective4776-91"
       inkscape:persp3d-origin="0.5 : 0.33333333 : 1"
       inkscape:vp_z="1 : 0.5 : 1"
       inkscape:vp_y="0 : 1000 : 0"
       inkscape:vp_x="0 : 0.5 : 1"
       sodipodi:type="inkscape:persp3d" />
    <inkscape:perspective
       id="perspective4776-65"
       inkscape:persp3d-origin="0.5 : 0.33333333 : 1"
       inkscape:vp_z="1 : 0.5 : 1"
       inkscape:vp_y="0 : 1000 : 0"
       inkscape:vp_x="0 : 0.5 : 1"
       sodipodi:type="inkscape:persp3d" />
    <inkscape:perspective
       id="perspective4776-8"
       inkscape:persp3d-origin="0.5 : 0.33333333 : 1"
       inkscape:vp_z="1 : 0.5 : 1"
       inkscape:vp_y="0 : 1000 : 0"
       inkscape:vp_x="0 : 0.5 : 1"
       sodipodi:type="inkscape:persp3d" />
    <inkscape:perspective
       id="perspective4776-69"
       inkscape:persp3d-origin="0.5 : 0.33333333 : 1"
       inkscape:vp_z="1 : 0.5 : 1"
       inkscape:vp_y="0 : 1000 : 0"
       inkscape:vp_x="0 : 0.5 : 1"
       sodipodi:type="inkscape:persp3d" />
    <inkscape:perspective
       id="perspective4776-84"
       inkscape:persp3d-origin="0.5 : 0.33333333 : 1"
       inkscape:vp_z="1 : 0.5 : 1"
       inkscape:vp_y="0 : 1000 : 0"
       inkscape:vp_x="0 : 0.5 : 1"
       sodipodi:type="inkscape:persp3d" />
    <inkscape:perspective
       id="perspective4776-00"
       inkscape:persp3d-origin="0.5 : 0.33333333 : 1"
       inkscape:vp_z="1 : 0.5 : 1"
       inkscape:vp_y="0 : 1000 : 0"
       inkscape:vp_x="0 : 0.5 : 1"
       sodipodi:type="inkscape:persp3d" />
    <inkscape:perspective
       id="perspective4776-87"
       inkscape:persp3d-origin="0.5 : 0.33333333 : 1"
       inkscape:vp_z="1 : 0.5 : 1"
       inkscape:vp_y="0 : 1000 : 0"
       inkscape:vp_x="0 : 0.5 : 1"
       sodipodi:type="inkscape:persp3d" />
    <inkscape:perspective
       id="perspective4776-80"
       inkscape:persp3d-origin="0.5 : 0.33333333 : 1"
       inkscape:vp_z="1 : 0.5 : 1"
       inkscape:vp_y="0 : 1000 : 0"
       inkscape:vp_x="0 : 0.5 : 1"
       sodipodi:type="inkscape:persp3d" />
    <inkscape:perspective
       id="perspective4776-45"
       inkscape:persp3d-origin="0.5 : 0.33333333 : 1"
       inkscape:vp_z="1 : 0.5 : 1"
       inkscape:vp_y="0 : 1000 : 0"
       inkscape:vp_x="0 : 0.5 : 1"
       sodipodi:type="inkscape:persp3d" />
    <inkscape:perspective
       id="perspective4776-29"
       inkscape:persp3d-origin="0.5 : 0.33333333 : 1"
       inkscape:vp_z="1 : 0.5 : 1"
       inkscape:vp_y="0 : 1000 : 0"
       inkscape:vp_x="0 : 0.5 : 1"
       sodipodi:type="inkscape:persp3d" />
    <inkscape:perspective
       id="perspective4987"
       inkscape:persp3d-origin="0.5 : 0.33333333 : 1"
       inkscape:vp_z="1 : 0.5 : 1"
       inkscape:vp_y="0 : 1000 : 0"
       inkscape:vp_x="0 : 0.5 : 1"
       sodipodi:type="inkscape:persp3d" />
    <inkscape:perspective
       id="perspective4987-9"
       inkscape:persp3d-origin="0.5 : 0.33333333 : 1"
       inkscape:vp_z="1 : 0.5 : 1"
       inkscape:vp_y="0 : 1000 : 0"
       inkscape:vp_x="0 : 0.5 : 1"
       sodipodi:type="inkscape:persp3d" />
    <inkscape:perspective
       id="perspective4987-1"
       inkscape:persp3d-origin="0.5 : 0.33333333 : 1"
       inkscape:vp_z="1 : 0.5 : 1"
       inkscape:vp_y="0 : 1000 : 0"
       inkscape:vp_x="0 : 0.5 : 1"
       sodipodi:type="inkscape:persp3d" />
    <inkscape:perspective
       id="perspective5027"
       inkscape:persp3d-origin="0.5 : 0.33333333 : 1"
       inkscape:vp_z="1 : 0.5 : 1"
       inkscape:vp_y="0 : 1000 : 0"
       inkscape:vp_x="0 : 0.5 : 1"
       sodipodi:type="inkscape:persp3d" />
    <inkscape:perspective
       id="perspective5049"
       inkscape:persp3d-origin="0.5 : 0.33333333 : 1"
       inkscape:vp_z="1 : 0.5 : 1"
       inkscape:vp_y="0 : 1000 : 0"
       inkscape:vp_x="0 : 0.5 : 1"
       sodipodi:type="inkscape:persp3d" />
    <inkscape:perspective
       id="perspective5049-7"
       inkscape:persp3d-origin="0.5 : 0.33333333 : 1"
       inkscape:vp_z="1 : 0.5 : 1"
       inkscape:vp_y="0 : 1000 : 0"
       inkscape:vp_x="0 : 0.5 : 1"
       sodipodi:type="inkscape:persp3d" />
    <inkscape:perspective
       id="perspective5084"
       inkscape:persp3d-origin="0.5 : 0.33333333 : 1"
       inkscape:vp_z="1 : 0.5 : 1"
       inkscape:vp_y="0 : 1000 : 0"
       inkscape:vp_x="0 : 0.5 : 1"
       sodipodi:type="inkscape:persp3d" />
    <inkscape:perspective
       id="perspective5084-6"
       inkscape:persp3d-origin="0.5 : 0.33333333 : 1"
       inkscape:vp_z="1 : 0.5 : 1"
       inkscape:vp_y="0 : 1000 : 0"
       inkscape:vp_x="0 : 0.5 : 1"
       sodipodi:type="inkscape:persp3d" />
    <inkscape:perspective
       id="perspective3730"
       inkscape:persp3d-origin="0.5 : 0.33333333 : 1"
       inkscape:vp_z="1 : 0.5 : 1"
       inkscape:vp_y="0 : 1000 : 0"
       inkscape:vp_x="0 : 0.5 : 1"
       sodipodi:type="inkscape:persp3d" />
    <inkscape:perspective
       id="perspective3730-9"
       inkscape:persp3d-origin="0.5 : 0.33333333 : 1"
       inkscape:vp_z="1 : 0.5 : 1"
       inkscape:vp_y="0 : 1000 : 0"
       inkscape:vp_x="0 : 0.5 : 1"
       sodipodi:type="inkscape:persp3d" />
    <inkscape:perspective
       id="perspective3730-91"
       inkscape:persp3d-origin="0.5 : 0.33333333 : 1"
       inkscape:vp_z="1 : 0.5 : 1"
       inkscape:vp_y="0 : 1000 : 0"
       inkscape:vp_x="0 : 0.5 : 1"
       sodipodi:type="inkscape:persp3d" />
    <inkscape:perspective
       id="perspective3777"
       inkscape:persp3d-origin="0.5 : 0.33333333 : 1"
       inkscape:vp_z="1 : 0.5 : 1"
       inkscape:vp_y="0 : 1000 : 0"
       inkscape:vp_x="0 : 0.5 : 1"
       sodipodi:type="inkscape:persp3d" />
    <inkscape:perspective
       id="perspective3777-3"
       inkscape:persp3d-origin="0.5 : 0.33333333 : 1"
       inkscape:vp_z="1 : 0.5 : 1"
       inkscape:vp_y="0 : 1000 : 0"
       inkscape:vp_x="0 : 0.5 : 1"
       sodipodi:type="inkscape:persp3d" />
    <inkscape:perspective
       id="perspective3808"
       inkscape:persp3d-origin="0.5 : 0.33333333 : 1"
       inkscape:vp_z="1 : 0.5 : 1"
       inkscape:vp_y="0 : 1000 : 0"
       inkscape:vp_x="0 : 0.5 : 1"
       sodipodi:type="inkscape:persp3d" />
    <inkscape:perspective
       id="perspective3830"
       inkscape:persp3d-origin="0.5 : 0.33333333 : 1"
       inkscape:vp_z="1 : 0.5 : 1"
       inkscape:vp_y="0 : 1000 : 0"
       inkscape:vp_x="0 : 0.5 : 1"
       sodipodi:type="inkscape:persp3d" />
    <inkscape:perspective
       id="perspective3852"
       inkscape:persp3d-origin="0.5 : 0.33333333 : 1"
       inkscape:vp_z="1 : 0.5 : 1"
       inkscape:vp_y="0 : 1000 : 0"
       inkscape:vp_x="0 : 0.5 : 1"
       sodipodi:type="inkscape:persp3d" />
    <inkscape:perspective
       id="perspective3874"
       inkscape:persp3d-origin="0.5 : 0.33333333 : 1"
       inkscape:vp_z="1 : 0.5 : 1"
       inkscape:vp_y="0 : 1000 : 0"
       inkscape:vp_x="0 : 0.5 : 1"
       sodipodi:type="inkscape:persp3d" />
    <inkscape:perspective
       id="perspective3874-6"
       inkscape:persp3d-origin="0.5 : 0.33333333 : 1"
       inkscape:vp_z="1 : 0.5 : 1"
       inkscape:vp_y="0 : 1000 : 0"
       inkscape:vp_x="0 : 0.5 : 1"
       sodipodi:type="inkscape:persp3d" />
    <inkscape:perspective
       id="perspective3905"
       inkscape:persp3d-origin="0.5 : 0.33333333 : 1"
       inkscape:vp_z="1 : 0.5 : 1"
       inkscape:vp_y="0 : 1000 : 0"
       inkscape:vp_x="0 : 0.5 : 1"
       sodipodi:type="inkscape:persp3d" />
    <inkscape:perspective
       id="perspective4699"
       inkscape:persp3d-origin="0.5 : 0.33333333 : 1"
       inkscape:vp_z="1 : 0.5 : 1"
       inkscape:vp_y="0 : 1000 : 0"
       inkscape:vp_x="0 : 0.5 : 1"
       sodipodi:type="inkscape:persp3d" />
    <inkscape:perspective
       id="perspective4721"
       inkscape:persp3d-origin="0.5 : 0.33333333 : 1"
       inkscape:vp_z="1 : 0.5 : 1"
       inkscape:vp_y="0 : 1000 : 0"
       inkscape:vp_x="0 : 0.5 : 1"
       sodipodi:type="inkscape:persp3d" />
    <inkscape:perspective
       id="perspective4745"
       inkscape:persp3d-origin="0.5 : 0.33333333 : 1"
       inkscape:vp_z="1 : 0.5 : 1"
       inkscape:vp_y="0 : 1000 : 0"
       inkscape:vp_x="0 : 0.5 : 1"
       sodipodi:type="inkscape:persp3d" />
    <inkscape:perspective
       id="perspective4767"
       inkscape:persp3d-origin="0.5 : 0.33333333 : 1"
       inkscape:vp_z="1 : 0.5 : 1"
       inkscape:vp_y="0 : 1000 : 0"
       inkscape:vp_x="0 : 0.5 : 1"
       sodipodi:type="inkscape:persp3d" />
    <inkscape:perspective
       id="perspective4767-8"
       inkscape:persp3d-origin="0.5 : 0.33333333 : 1"
       inkscape:vp_z="1 : 0.5 : 1"
       inkscape:vp_y="0 : 1000 : 0"
       inkscape:vp_x="0 : 0.5 : 1"
       sodipodi:type="inkscape:persp3d" />
    <inkscape:perspective
       id="perspective3001"
       inkscape:persp3d-origin="0.5 : 0.33333333 : 1"
       inkscape:vp_z="1 : 0.5 : 1"
       inkscape:vp_y="0 : 1000 : 0"
       inkscape:vp_x="0 : 0.5 : 1"
       sodipodi:type="inkscape:persp3d" />
    <inkscape:perspective
       id="perspective3001-2"
       inkscape:persp3d-origin="0.5 : 0.33333333 : 1"
       inkscape:vp_z="1 : 0.5 : 1"
       inkscape:vp_y="0 : 1000 : 0"
       inkscape:vp_x="0 : 0.5 : 1"
       sodipodi:type="inkscape:persp3d" />
    <inkscape:perspective
       id="perspective3001-0"
       inkscape:persp3d-origin="0.5 : 0.33333333 : 1"
       inkscape:vp_z="1 : 0.5 : 1"
       inkscape:vp_y="0 : 1000 : 0"
       inkscape:vp_x="0 : 0.5 : 1"
       sodipodi:type="inkscape:persp3d" />
    <inkscape:perspective
       id="perspective3001-4"
       inkscape:persp3d-origin="0.5 : 0.33333333 : 1"
       inkscape:vp_z="1 : 0.5 : 1"
       inkscape:vp_y="0 : 1000 : 0"
       inkscape:vp_x="0 : 0.5 : 1"
       sodipodi:type="inkscape:persp3d" />
    <inkscape:perspective
       id="perspective3050"
       inkscape:persp3d-origin="0.5 : 0.33333333 : 1"
       inkscape:vp_z="1 : 0.5 : 1"
       inkscape:vp_y="0 : 1000 : 0"
       inkscape:vp_x="0 : 0.5 : 1"
       sodipodi:type="inkscape:persp3d" />
    <inkscape:perspective
       id="perspective3072"
       inkscape:persp3d-origin="0.5 : 0.33333333 : 1"
       inkscape:vp_z="1 : 0.5 : 1"
       inkscape:vp_y="0 : 1000 : 0"
       inkscape:vp_x="0 : 0.5 : 1"
       sodipodi:type="inkscape:persp3d" />
    <inkscape:perspective
       id="perspective3072-7"
       inkscape:persp3d-origin="0.5 : 0.33333333 : 1"
       inkscape:vp_z="1 : 0.5 : 1"
       inkscape:vp_y="0 : 1000 : 0"
       inkscape:vp_x="0 : 0.5 : 1"
       sodipodi:type="inkscape:persp3d" />
    <inkscape:perspective
       id="perspective3103"
       inkscape:persp3d-origin="0.5 : 0.33333333 : 1"
       inkscape:vp_z="1 : 0.5 : 1"
       inkscape:vp_y="0 : 1000 : 0"
       inkscape:vp_x="0 : 0.5 : 1"
       sodipodi:type="inkscape:persp3d" />
    <inkscape:perspective
       id="perspective3125"
       inkscape:persp3d-origin="0.5 : 0.33333333 : 1"
       inkscape:vp_z="1 : 0.5 : 1"
       inkscape:vp_y="0 : 1000 : 0"
       inkscape:vp_x="0 : 0.5 : 1"
       sodipodi:type="inkscape:persp3d" />
    <inkscape:perspective
       id="perspective3125-8"
       inkscape:persp3d-origin="0.5 : 0.33333333 : 1"
       inkscape:vp_z="1 : 0.5 : 1"
       inkscape:vp_y="0 : 1000 : 0"
       inkscape:vp_x="0 : 0.5 : 1"
       sodipodi:type="inkscape:persp3d" />
    <inkscape:perspective
       id="perspective3156"
       inkscape:persp3d-origin="0.5 : 0.33333333 : 1"
       inkscape:vp_z="1 : 0.5 : 1"
       inkscape:vp_y="0 : 1000 : 0"
       inkscape:vp_x="0 : 0.5 : 1"
       sodipodi:type="inkscape:persp3d" />
    <inkscape:perspective
       id="perspective3156-7"
       inkscape:persp3d-origin="0.5 : 0.33333333 : 1"
       inkscape:vp_z="1 : 0.5 : 1"
       inkscape:vp_y="0 : 1000 : 0"
       inkscape:vp_x="0 : 0.5 : 1"
       sodipodi:type="inkscape:persp3d" />
    <inkscape:perspective
       id="perspective3961"
       inkscape:persp3d-origin="0.5 : 0.33333333 : 1"
       inkscape:vp_z="1 : 0.5 : 1"
       inkscape:vp_y="0 : 1000 : 0"
       inkscape:vp_x="0 : 0.5 : 1"
       sodipodi:type="inkscape:persp3d" />
    <inkscape:perspective
       id="perspective4079"
       inkscape:persp3d-origin="0.5 : 0.33333333 : 1"
       inkscape:vp_z="1 : 0.5 : 1"
       inkscape:vp_y="0 : 1000 : 0"
       inkscape:vp_x="0 : 0.5 : 1"
       sodipodi:type="inkscape:persp3d" />
    <inkscape:perspective
       id="perspective4079-8"
       inkscape:persp3d-origin="0.5 : 0.33333333 : 1"
       inkscape:vp_z="1 : 0.5 : 1"
       inkscape:vp_y="0 : 1000 : 0"
       inkscape:vp_x="0 : 0.5 : 1"
       sodipodi:type="inkscape:persp3d" />
    <inkscape:perspective
       id="perspective4079-4"
       inkscape:persp3d-origin="0.5 : 0.33333333 : 1"
       inkscape:vp_z="1 : 0.5 : 1"
       inkscape:vp_y="0 : 1000 : 0"
       inkscape:vp_x="0 : 0.5 : 1"
       sodipodi:type="inkscape:persp3d" />
    <inkscape:perspective
       id="perspective4079-6"
       inkscape:persp3d-origin="0.5 : 0.33333333 : 1"
       inkscape:vp_z="1 : 0.5 : 1"
       inkscape:vp_y="0 : 1000 : 0"
       inkscape:vp_x="0 : 0.5 : 1"
       sodipodi:type="inkscape:persp3d" />
    <inkscape:perspective
       id="perspective4079-66"
       inkscape:persp3d-origin="0.5 : 0.33333333 : 1"
       inkscape:vp_z="1 : 0.5 : 1"
       inkscape:vp_y="0 : 1000 : 0"
       inkscape:vp_x="0 : 0.5 : 1"
       sodipodi:type="inkscape:persp3d" />
    <inkscape:perspective
       id="perspective4079-9"
       inkscape:persp3d-origin="0.5 : 0.33333333 : 1"
       inkscape:vp_z="1 : 0.5 : 1"
       inkscape:vp_y="0 : 1000 : 0"
       inkscape:vp_x="0 : 0.5 : 1"
       sodipodi:type="inkscape:persp3d" />
    <inkscape:perspective
       id="perspective4079-1"
       inkscape:persp3d-origin="0.5 : 0.33333333 : 1"
       inkscape:vp_z="1 : 0.5 : 1"
       inkscape:vp_y="0 : 1000 : 0"
       inkscape:vp_x="0 : 0.5 : 1"
       sodipodi:type="inkscape:persp3d" />
    <inkscape:perspective
       id="perspective4079-68"
       inkscape:persp3d-origin="0.5 : 0.33333333 : 1"
       inkscape:vp_z="1 : 0.5 : 1"
       inkscape:vp_y="0 : 1000 : 0"
       inkscape:vp_x="0 : 0.5 : 1"
       sodipodi:type="inkscape:persp3d" />
    <inkscape:perspective
       id="perspective4079-18"
       inkscape:persp3d-origin="0.5 : 0.33333333 : 1"
       inkscape:vp_z="1 : 0.5 : 1"
       inkscape:vp_y="0 : 1000 : 0"
       inkscape:vp_x="0 : 0.5 : 1"
       sodipodi:type="inkscape:persp3d" />
    <inkscape:perspective
       id="perspective4079-10"
       inkscape:persp3d-origin="0.5 : 0.33333333 : 1"
       inkscape:vp_z="1 : 0.5 : 1"
       inkscape:vp_y="0 : 1000 : 0"
       inkscape:vp_x="0 : 0.5 : 1"
       sodipodi:type="inkscape:persp3d" />
    <inkscape:perspective
       id="perspective4079-2"
       inkscape:persp3d-origin="0.5 : 0.33333333 : 1"
       inkscape:vp_z="1 : 0.5 : 1"
       inkscape:vp_y="0 : 1000 : 0"
       inkscape:vp_x="0 : 0.5 : 1"
       sodipodi:type="inkscape:persp3d" />
    <inkscape:perspective
       id="perspective4079-62"
       inkscape:persp3d-origin="0.5 : 0.33333333 : 1"
       inkscape:vp_z="1 : 0.5 : 1"
       inkscape:vp_y="0 : 1000 : 0"
       inkscape:vp_x="0 : 0.5 : 1"
       sodipodi:type="inkscape:persp3d" />
    <inkscape:perspective
       id="perspective4079-89"
       inkscape:persp3d-origin="0.5 : 0.33333333 : 1"
       inkscape:vp_z="1 : 0.5 : 1"
       inkscape:vp_y="0 : 1000 : 0"
       inkscape:vp_x="0 : 0.5 : 1"
       sodipodi:type="inkscape:persp3d" />
    <inkscape:perspective
       id="perspective4213"
       inkscape:persp3d-origin="0.5 : 0.33333333 : 1"
       inkscape:vp_z="1 : 0.5 : 1"
       inkscape:vp_y="0 : 1000 : 0"
       inkscape:vp_x="0 : 0.5 : 1"
       sodipodi:type="inkscape:persp3d" />
    <inkscape:perspective
       id="perspective4235"
       inkscape:persp3d-origin="0.5 : 0.33333333 : 1"
       inkscape:vp_z="1 : 0.5 : 1"
       inkscape:vp_y="0 : 1000 : 0"
       inkscape:vp_x="0 : 0.5 : 1"
       sodipodi:type="inkscape:persp3d" />
    <inkscape:perspective
       id="perspective4489"
       inkscape:persp3d-origin="0.5 : 0.33333333 : 1"
       inkscape:vp_z="1 : 0.5 : 1"
       inkscape:vp_y="0 : 1000 : 0"
       inkscape:vp_x="0 : 0.5 : 1"
       sodipodi:type="inkscape:persp3d" />
    <inkscape:perspective
       id="perspective4489-4"
       inkscape:persp3d-origin="0.5 : 0.33333333 : 1"
       inkscape:vp_z="1 : 0.5 : 1"
       inkscape:vp_y="0 : 1000 : 0"
       inkscape:vp_x="0 : 0.5 : 1"
       sodipodi:type="inkscape:persp3d" />
    <inkscape:perspective
       id="perspective4489-2"
       inkscape:persp3d-origin="0.5 : 0.33333333 : 1"
       inkscape:vp_z="1 : 0.5 : 1"
       inkscape:vp_y="0 : 1000 : 0"
       inkscape:vp_x="0 : 0.5 : 1"
       sodipodi:type="inkscape:persp3d" />
    <inkscape:perspective
       id="perspective4489-3"
       inkscape:persp3d-origin="0.5 : 0.33333333 : 1"
       inkscape:vp_z="1 : 0.5 : 1"
       inkscape:vp_y="0 : 1000 : 0"
       inkscape:vp_x="0 : 0.5 : 1"
       sodipodi:type="inkscape:persp3d" />
    <inkscape:perspective
       id="perspective4489-9"
       inkscape:persp3d-origin="0.5 : 0.33333333 : 1"
       inkscape:vp_z="1 : 0.5 : 1"
       inkscape:vp_y="0 : 1000 : 0"
       inkscape:vp_x="0 : 0.5 : 1"
       sodipodi:type="inkscape:persp3d" />
    <inkscape:perspective
       id="perspective4489-99"
       inkscape:persp3d-origin="0.5 : 0.33333333 : 1"
       inkscape:vp_z="1 : 0.5 : 1"
       inkscape:vp_y="0 : 1000 : 0"
       inkscape:vp_x="0 : 0.5 : 1"
       sodipodi:type="inkscape:persp3d" />
    <inkscape:perspective
       id="perspective4489-8"
       inkscape:persp3d-origin="0.5 : 0.33333333 : 1"
       inkscape:vp_z="1 : 0.5 : 1"
       inkscape:vp_y="0 : 1000 : 0"
       inkscape:vp_x="0 : 0.5 : 1"
       sodipodi:type="inkscape:persp3d" />
    <inkscape:perspective
       id="perspective4489-81"
       inkscape:persp3d-origin="0.5 : 0.33333333 : 1"
       inkscape:vp_z="1 : 0.5 : 1"
       inkscape:vp_y="0 : 1000 : 0"
       inkscape:vp_x="0 : 0.5 : 1"
       sodipodi:type="inkscape:persp3d" />
    <inkscape:perspective
       id="perspective4489-5"
       inkscape:persp3d-origin="0.5 : 0.33333333 : 1"
       inkscape:vp_z="1 : 0.5 : 1"
       inkscape:vp_y="0 : 1000 : 0"
       inkscape:vp_x="0 : 0.5 : 1"
       sodipodi:type="inkscape:persp3d" />
    <inkscape:perspective
       id="perspective4489-7"
       inkscape:persp3d-origin="0.5 : 0.33333333 : 1"
       inkscape:vp_z="1 : 0.5 : 1"
       inkscape:vp_y="0 : 1000 : 0"
       inkscape:vp_x="0 : 0.5 : 1"
       sodipodi:type="inkscape:persp3d" />
    <inkscape:perspective
       id="perspective4489-71"
       inkscape:persp3d-origin="0.5 : 0.33333333 : 1"
       inkscape:vp_z="1 : 0.5 : 1"
       inkscape:vp_y="0 : 1000 : 0"
       inkscape:vp_x="0 : 0.5 : 1"
       sodipodi:type="inkscape:persp3d" />
    <inkscape:perspective
       id="perspective4489-32"
       inkscape:persp3d-origin="0.5 : 0.33333333 : 1"
       inkscape:vp_z="1 : 0.5 : 1"
       inkscape:vp_y="0 : 1000 : 0"
       inkscape:vp_x="0 : 0.5 : 1"
       sodipodi:type="inkscape:persp3d" />
    <inkscape:perspective
       id="perspective4489-26"
       inkscape:persp3d-origin="0.5 : 0.33333333 : 1"
       inkscape:vp_z="1 : 0.5 : 1"
       inkscape:vp_y="0 : 1000 : 0"
       inkscape:vp_x="0 : 0.5 : 1"
       sodipodi:type="inkscape:persp3d" />
    <inkscape:perspective
       id="perspective4489-96"
       inkscape:persp3d-origin="0.5 : 0.33333333 : 1"
       inkscape:vp_z="1 : 0.5 : 1"
       inkscape:vp_y="0 : 1000 : 0"
       inkscape:vp_x="0 : 0.5 : 1"
       sodipodi:type="inkscape:persp3d" />
    <inkscape:perspective
       id="perspective4489-52"
       inkscape:persp3d-origin="0.5 : 0.33333333 : 1"
       inkscape:vp_z="1 : 0.5 : 1"
       inkscape:vp_y="0 : 1000 : 0"
       inkscape:vp_x="0 : 0.5 : 1"
       sodipodi:type="inkscape:persp3d" />
    <inkscape:perspective
       id="perspective4489-41"
       inkscape:persp3d-origin="0.5 : 0.33333333 : 1"
       inkscape:vp_z="1 : 0.5 : 1"
       inkscape:vp_y="0 : 1000 : 0"
       inkscape:vp_x="0 : 0.5 : 1"
       sodipodi:type="inkscape:persp3d" />
    <inkscape:perspective
       id="perspective4489-35"
       inkscape:persp3d-origin="0.5 : 0.33333333 : 1"
       inkscape:vp_z="1 : 0.5 : 1"
       inkscape:vp_y="0 : 1000 : 0"
       inkscape:vp_x="0 : 0.5 : 1"
       sodipodi:type="inkscape:persp3d" />
    <inkscape:perspective
       id="perspective5327"
       inkscape:persp3d-origin="0.5 : 0.33333333 : 1"
       inkscape:vp_z="1 : 0.5 : 1"
       inkscape:vp_y="0 : 1000 : 0"
       inkscape:vp_x="0 : 0.5 : 1"
       sodipodi:type="inkscape:persp3d" />
    <inkscape:perspective
       id="perspective5349"
       inkscape:persp3d-origin="0.5 : 0.33333333 : 1"
       inkscape:vp_z="1 : 0.5 : 1"
       inkscape:vp_y="0 : 1000 : 0"
       inkscape:vp_x="0 : 0.5 : 1"
       sodipodi:type="inkscape:persp3d" />
    <inkscape:perspective
       id="perspective5349-8"
       inkscape:persp3d-origin="0.5 : 0.33333333 : 1"
       inkscape:vp_z="1 : 0.5 : 1"
       inkscape:vp_y="0 : 1000 : 0"
       inkscape:vp_x="0 : 0.5 : 1"
       sodipodi:type="inkscape:persp3d" />
    <inkscape:perspective
       id="perspective5349-1"
       inkscape:persp3d-origin="0.5 : 0.33333333 : 1"
       inkscape:vp_z="1 : 0.5 : 1"
       inkscape:vp_y="0 : 1000 : 0"
       inkscape:vp_x="0 : 0.5 : 1"
       sodipodi:type="inkscape:persp3d" />
    <inkscape:perspective
       id="perspective5349-6"
       inkscape:persp3d-origin="0.5 : 0.33333333 : 1"
       inkscape:vp_z="1 : 0.5 : 1"
       inkscape:vp_y="0 : 1000 : 0"
       inkscape:vp_x="0 : 0.5 : 1"
       sodipodi:type="inkscape:persp3d" />
    <inkscape:perspective
       id="perspective3659"
       inkscape:persp3d-origin="0.5 : 0.33333333 : 1"
       inkscape:vp_z="1 : 0.5 : 1"
       inkscape:vp_y="0 : 1000 : 0"
       inkscape:vp_x="0 : 0.5 : 1"
       sodipodi:type="inkscape:persp3d" />
    <inkscape:perspective
       id="perspective3681"
       inkscape:persp3d-origin="0.5 : 0.33333333 : 1"
       inkscape:vp_z="1 : 0.5 : 1"
       inkscape:vp_y="0 : 1000 : 0"
       inkscape:vp_x="0 : 0.5 : 1"
       sodipodi:type="inkscape:persp3d" />
    <inkscape:perspective
       id="perspective3703"
       inkscape:persp3d-origin="0.5 : 0.33333333 : 1"
       inkscape:vp_z="1 : 0.5 : 1"
       inkscape:vp_y="0 : 1000 : 0"
       inkscape:vp_x="0 : 0.5 : 1"
       sodipodi:type="inkscape:persp3d" />
    <inkscape:perspective
       id="perspective3725"
       inkscape:persp3d-origin="0.5 : 0.33333333 : 1"
       inkscape:vp_z="1 : 0.5 : 1"
       inkscape:vp_y="0 : 1000 : 0"
       inkscape:vp_x="0 : 0.5 : 1"
       sodipodi:type="inkscape:persp3d" />
    <inkscape:perspective
       id="perspective3749"
       inkscape:persp3d-origin="0.5 : 0.33333333 : 1"
       inkscape:vp_z="1 : 0.5 : 1"
       inkscape:vp_y="0 : 1000 : 0"
       inkscape:vp_x="0 : 0.5 : 1"
       sodipodi:type="inkscape:persp3d" />
    <inkscape:perspective
       id="perspective3771"
       inkscape:persp3d-origin="0.5 : 0.33333333 : 1"
       inkscape:vp_z="1 : 0.5 : 1"
       inkscape:vp_y="0 : 1000 : 0"
       inkscape:vp_x="0 : 0.5 : 1"
       sodipodi:type="inkscape:persp3d" />
    <inkscape:perspective
       id="perspective3793"
       inkscape:persp3d-origin="0.5 : 0.33333333 : 1"
       inkscape:vp_z="1 : 0.5 : 1"
       inkscape:vp_y="0 : 1000 : 0"
       inkscape:vp_x="0 : 0.5 : 1"
       sodipodi:type="inkscape:persp3d" />
    <inkscape:perspective
       id="perspective3829"
       inkscape:persp3d-origin="0.5 : 0.33333333 : 1"
       inkscape:vp_z="1 : 0.5 : 1"
       inkscape:vp_y="0 : 1000 : 0"
       inkscape:vp_x="0 : 0.5 : 1"
       sodipodi:type="inkscape:persp3d" />
  </defs>
  <sodipodi:namedview
     pagecolor="#d2d4d2"
     bordercolor="#666666"
     borderopacity="1"
     objecttolerance="10"
     gridtolerance="10"
     guidetolerance="10"
     inkscape:pageopacity="0.82352941"
     inkscape:pageshadow="2"
     inkscape:window-width="1024"
     inkscape:window-height="689"
     id="namedview4"
     showgrid="true"
     inkscape:zoom="3.2981132"
     inkscape:cx="100.00001"
     inkscape:cy="138.78719"
     inkscape:window-x="0"
     inkscape:window-y="0"
     inkscape:window-maximized="1"
     inkscape:current-layer="layer2">
    <inkscape:grid
       type="xygrid"
       id="grid2818"
       empspacing="4"
       dotted="true"
       visible="true"
       enabled="true"
       snapvisiblegridlinesonly="true"
       spacingx="2px"
       spacingy="2px" />
  </sodipodi:namedview>
  <g
     inkscape:groupmode="layer"
     id="layer3"
     inkscape:label="Background"
     style="display:none"
     transform="translate(-792,-7)">
    <rect
       style="fill:#6a6a6a;fill-opacity:1;stroke:none;display:inline"
       id="rect5186-9"
       width="208"
       height="280"
       x="792"
       y="7"
       inkscape:export-filename="/home/kwallace/tormach_linuxcnc/release/images/mill_gen_thread_mill_main.png"
       inkscape:export-xdpi="90"
       inkscape:export-ydpi="90" />
    <path
       style="fill:none;stroke:#ffffff;stroke-width:1;stroke-linecap:butt;stroke-linejoin:miter;stroke-miterlimit:4;stroke-opacity:1;stroke-dasharray:none;display:inline"
       d="m 926,131 0,-22"
       id="path3628-5-7-9-4" />
  </g>
  <g
     inkscape:groupmode="layer"
     id="layer1"
     inkscape:label="Body"
     style="display:inline"
     transform="translate(-792,-7)">
    <path
       style="fill:none;stroke:#ffffff;stroke-width:2;stroke-linecap:butt;stroke-linejoin:miter;stroke-miterlimit:4;stroke-opacity:1;stroke-dasharray:none;display:inline"
       d="m 885.99036,38.986266 c -0.0868,0 -0.17818,-0.03045 -0.26057,0 -0.0584,0.02153 -0.0754,0.113996 -0.13028,0.144448 -0.0347,0.01925 -0.72278,0 -0.78171,0 -0.0434,0 -0.0914,-0.02153 -0.13029,0 -0.0549,0.03045 -0.0754,0.113996 -0.13026,0.144449 -0.0415,0.02302 -0.535,0 -0.65145,0 -0.60797,0 -1.21598,0 -1.82396,0 -0.30401,0 -0.608,0 -0.912,0 -0.13029,0 -0.2631,0.02833 -0.39085,0 -0.19043,-0.04223 -0.33272,-0.236671 -0.52113,-0.288897 -0.16852,-0.04672 -0.35262,0.04672 -0.52115,0 -0.0942,-0.02612 -0.16844,-0.110402 -0.26056,-0.144449 -0.0412,-0.01522 -0.0868,0 -0.13028,0 -0.0868,-0.04814 -0.16844,-0.110401 -0.26057,-0.144448 -0.12691,-0.0469 -0.52731,0.04586 -0.65143,0 -0.0922,-0.03405 -0.16635,-0.118336 -0.26057,-0.144449 -0.16851,-0.04672 -0.3526,0.04672 -0.52114,0 -0.0942,-0.02612 -0.16636,-0.118336 -0.26055,-0.144449 -0.0843,-0.02335 -0.17372,0 -0.26057,0 -0.0868,0 -0.17372,0 -0.26058,0 -0.39086,0 -0.7817,0 -1.17255,0 -1.08571,0 -2.17142,0 -3.25711,0 -0.60799,0 -1.21599,0 -1.82399,0 -0.21714,0 -0.43427,0 -0.65141,0 -0.0868,0 -0.17631,-0.02335 -0.26058,0 -0.0942,0.02612 -0.16636,0.118336 -0.26055,0.144449 -0.21067,0.05839 -0.43851,-0.04721 -0.65144,0 -0.19043,0.04223 -0.33272,0.236671 -0.52113,0.288897 -0.0843,0.02335 -0.17631,-0.02335 -0.26056,0 -0.18843,0.05222 -0.33271,0.236672 -0.52115,0.288897 -0.0843,0.02335 -0.17816,-0.03045 -0.26057,0 -0.0584,0.02153 -0.0792,0.106677 -0.13027,0.144449 -0.0868,0.04815 -0.17371,0.0963 -0.26058,0.144448 -0.0434,0 -0.0914,-0.02153 -0.13028,0 -0.0549,0.03045 -0.0792,0.106678 -0.13028,0.144449 -0.0808,0.05972 -0.17977,0.08472 -0.26057,0.144448 -0.0636,0.04703 -0.47872,0.507253 -0.52114,0.577795 -0.0539,0.08958 -0.0617,0.212766 -0.13028,0.288897 -0.0686,0.07613 -0.17977,0.08472 -0.26058,0.144448 -0.10224,0.07555 -0.1737,0.192598 -0.26056,0.288898 -0.21714,0.240747 -0.43429,0.481495 -0.65142,0.722242 -0.0434,0.04815 -0.0868,0.0963 -0.13029,0.144449 -0.0434,0.04815 -0.0754,0.113996 -0.13029,0.144449 -0.0389,0.02153 -0.0914,-0.02153 -0.13028,0 -0.0549,0.03045 -0.0868,0.0963 -0.13027,0.144448 -0.0434,0.04815 -0.10277,0.08355 -0.13029,0.144449 -0.0898,0.199246 0.15778,0.129205 -0.13028,0.288897 -0.039,0.02153 -0.0915,-0.02153 -0.13028,0 -0.12821,0.07107 -0.39295,0.506723 -0.52115,0.577794 -0.0776,0.04308 -0.18287,-0.04308 -0.26056,0 -0.26058,0.144449 -0.19543,0.288897 -0.39085,0.433346 -0.29957,0.22142 -0.35187,0.06747 -0.65143,0.288897 -0.0511,0.03777 -0.0868,0.0963 -0.13028,0.144448 -0.0868,0.04815 -0.17977,0.08473 -0.26058,0.144449 -0.0511,0.03777 -0.0791,0.106678 -0.13028,0.144448 -0.0808,0.05972 -0.17371,0.0963 -0.26057,0.144449 -0.34366,0.190513 -0.71292,0.358705 -1.04227,0.577794 -0.13427,0.08932 -0.25659,0.199578 -0.39085,0.288898 -0.0833,0.05539 -0.1773,0.08905 -0.26058,0.144448 -0.13426,0.08932 -0.2508,0.211258 -0.39085,0.288897 -0.24566,0.136187 -0.54618,0.132221 -0.7817,0.288897 -0.10534,0.07007 -0.16229,0.207185 -0.26056,0.288897 -0.0776,0.0646 -0.17371,0.0963 -0.26058,0.144449 -0.0868,0.04815 -0.16636,0.118336 -0.26056,0.144449 -0.0843,0.02335 -0.17631,-0.02335 -0.26057,0 -0.18841,0.05222 -0.33273,0.236671 -0.52114,0.288897 -0.0843,0.02335 -0.18289,-0.04307 -0.26057,0 -0.10987,0.06091 -0.15071,0.227992 -0.26056,0.288897 -0.0776,0.04307 -0.17631,-0.02335 -0.26057,0 -0.0942,0.02612 -0.17371,0.0963 -0.26058,0.144448 -0.0868,0.04815 -0.17371,0.0963 -0.26056,0.144449 -0.26058,0.144448 -0.52115,0.288897 -0.7817,0.433346 -0.0868,0.04815 -0.17041,0.104462 -0.26058,0.144448 -0.1275,0.05654 -0.26334,0.0879 -0.39085,0.144449 -0.18032,0.07998 -0.34743,0.192598 -0.52114,0.288897 -0.1737,0.0963 -0.35954,0.169453 -0.52113,0.288897 -0.0511,0.03777 -0.0792,0.106677 -0.13028,0.144449 -0.0808,0.05972 -0.17371,0.0963 -0.26057,0.144448 -0.0868,0.04815 -0.16846,0.110402 -0.26058,0.144449 -0.0412,0.01522 -0.0941,-0.02671 -0.13029,0 -0.10224,0.07555 -0.15069,0.227992 -0.26055,0.288897 -0.0776,0.04307 -0.18288,-0.04306 -0.26057,0 -0.10986,0.06091 -0.16231,0.207185 -0.26058,0.288897 -0.15536,0.129199 -0.36576,0.159698 -0.52113,0.288897 -0.0983,0.08171 -0.15524,0.21883 -0.26057,0.288897 -0.43793,0.291317 -0.29987,-0.0035 -0.65142,0.288897 -0.19654,0.163425 -0.31049,0.437659 -0.52114,0.577795 -0.96326,0.640785 0.20667,-0.443329 -0.7817,0.433345 -0.7978,0.884536 0.21973,-0.182714 -0.52114,0.433346 -0.19654,0.163425 -0.3246,0.414369 -0.52114,0.577794 -0.0776,0.0646 -0.18288,0.07985 -0.26057,0.144449 -0.19653,0.163425 -0.32458,0.414368 -0.52114,0.577794 -0.0776,0.0646 -0.1737,0.0963 -0.26055,0.144449 -0.1303,0.0963 -0.2686,0.180446 -0.39086,0.288897 -0.0959,0.08507 -0.17372,0.192598 -0.26058,0.288897 -0.1737,0.192597 -0.34741,0.385196 -0.52112,0.577794 -0.0868,0.0963 -0.16466,0.203822 -0.26058,0.288897 -0.12227,0.108451 -0.28013,0.16614 -0.39085,0.288897 -0.11072,0.122758 -0.14985,0.310588 -0.26057,0.433346 -0.15354,0.170234 -0.35432,0.279224 -0.52114,0.433346 -0.0944,0.08718 -0.17371,0.192598 -0.26056,0.288897 -0.0868,0.0963 -0.18687,0.179947 -0.26057,0.288896 -0.0583,0.08613 -0.0804,0.196576 -0.13029,0.288898 -0.0806,0.148865 -0.18001,0.284481 -0.26057,0.433346 -0.0999,0.184644 -0.17372,0.385197 -0.26057,0.577794 -0.0868,0.192598 -0.1737,0.385196 -0.26056,0.577794 -0.0434,0.0963 -0.10674,0.184446 -0.13028,0.288898 -0.0211,0.09342 0.0212,0.195473 0,0.288897 -0.0236,0.104451 -0.0868,0.192598 -0.13029,0.288897 -0.0434,0.0963 -0.0868,0.192598 -0.13029,0.288897 -0.30553,0.677515 0.0614,-0.170234 -0.26057,0.722243 -0.007,0.01997 -0.25933,0.57098 -0.26056,0.577793 -0.0255,0.141644 0.0255,0.291703 0,0.433346 -0.019,0.105575 -0.0942,0.188932 -0.1303,0.288898 -0.52458,1.454058 0.10172,-0.306693 -0.13027,0.722242 -0.0235,0.104452 -0.0868,0.192599 -0.13028,0.288898 -0.0434,0.144447 -0.10339,0.284039 -0.1303,0.433345 -0.017,0.09443 0.017,0.194469 0,0.288898 -0.0538,0.29861 -0.21541,0.56631 -0.26056,0.86669 -0.0214,0.142484 0.0214,0.290863 0,0.433347 -0.0584,0.388474 -0.20218,0.478216 -0.26056,0.866691 -0.0214,0.142483 0.0214,0.290862 0,0.433346 0.0452,0.293901 -0.2147,0.467984 -0.26057,0.722242 -0.0255,0.141644 0.0214,0.290863 0,0.433345 -0.0226,0.150192 -0.10339,0.284042 -0.1303,0.433346 -0.017,0.09443 0.017,0.194469 0,0.288898 -0.0269,0.149305 -0.10769,0.283154 -0.13028,0.433346 -0.0214,0.142482 0.0255,0.291702 0,0.433346 -0.019,0.105574 -0.10673,0.184445 -0.13028,0.288896 -0.0212,0.09342 0.017,0.194468 0,0.288898 -0.027,0.149304 -0.10771,0.283154 -0.13029,0.433345 -0.0214,0.142483 0.0255,0.291703 0,0.433346 -0.019,0.105575 -0.0868,0.192598 -0.13028,0.288896 -0.0434,0.14445 -0.10771,0.283157 -0.13028,0.433346 -0.0214,0.142484 0.0214,0.290863 0,0.433347 0.0452,0.2939 -0.2147,0.467984 -0.26056,0.722242 -0.0255,0.141644 0.0214,0.290863 0,0.433346 -0.0225,0.150191 -0.10339,0.28404 -0.13029,0.433345 -0.0171,0.09443 0.017,0.194469 0,0.288898 -0.027,0.149305 -0.10772,0.283155 -0.13029,0.433346 -0.0214,0.142482 0.0255,0.291702 0,0.433345 -0.019,0.105575 -0.0868,0.192598 -0.13028,0.288897 -0.0434,0.144449 -0.11087,0.282614 -0.13029,0.433345 -0.13346,1.035789 0.11075,0.151719 0,1.01114 -0.0253,0.196531 -0.10495,0.381264 -0.13028,0.577795 -0.043,0.333659 0.0377,0.676696 0,1.01114 -0.0222,0.196992 -0.10497,0.381263 -0.13028,0.577795 -0.0185,0.142996 0,0.288897 0,0.433345 0,0.385196 0,0.770392 0,1.155588 0,1.10744 0,2.214878 0,3.322317 0,1.10744 0,2.214878 0,3.322317 0,0.337047 0,0.674094 0,1.01114 0,0.144449 -0.0214,0.290863 0,0.433345 0.0225,0.150192 0.1077,0.283157 0.13028,0.433346 0.0428,0.284966 -0.0428,0.581726 0,0.866693 0.0225,0.150189 0.10339,0.284039 0.13028,0.433345 0.017,0.09443 -0.017,0.194468 0,0.288896 0.027,0.149307 0.10338,0.284042 0.13029,0.433346 0.034,0.188858 -0.042,0.390947 0,0.577795 0.0868,0.385194 0.17371,0.1926 0.26057,0.577795 0.0212,0.09342 -0.0171,0.194467 0,0.288896 0.47232,1.571004 -0.0687,-0.380655 0.13029,0.722243 0.0271,0.149305 0.10338,0.28404 0.13027,0.433346 0.034,0.188858 -0.0422,0.390947 0,0.577794 0.0236,0.104451 0.10673,0.184445 0.13029,0.288897 0.0316,0.140136 -0.0316,0.29321 0,0.433345 0.0333,0.147716 0.10338,0.284042 0.13028,0.433346 0.017,0.09443 0,0.192599 0,0.288893 0,0.240751 -0.0356,0.484779 0,0.722251 -0.0452,0.293897 0.21471,0.467986 0.26057,0.722242 0.0255,0.141643 0,0.288893 0,0.433339 0,0.144456 0,0.288902 0,0.433349 0,0.0963 -0.0212,0.195475 0,0.288902 0.0236,0.104449 0.11124,0.18332 0.13028,0.288893 0.0427,0.236075 -0.0527,0.488687 0,0.722242 0.0236,0.104449 0.11124,0.18332 0.13028,0.288902 0.0427,0.236065 -0.0427,0.486167 0,0.722241 -0.0452,0.293898 0.21471,0.467977 0.26059,0.722234 0,1.38242 -0.0583,-0.322992 0.13028,0.72225 0.0255,0.14164 -0.0255,0.2917 0,0.43335 0.0636,0.3528 0.21539,0.286 0.39084,0.57778 0.0241,0.04 0,0.0963 0,0.14446 0,0.0963 0,0.19259 0,0.28889 0,0.2889 0,0.5778 0,0.86669 0,0.2889 0,0.5778 0,0.8667 0,0.0481 0,0.0963 0,0.14444 0,0.0481 -0.0194,0.10139 0,0.14446 0.0276,0.0609 0.10287,0.0836 0.13028,0.14445 0.0195,0.0431 0,0.0963 0,0.14444 0,0.0481 0,0.0963 0,0.14445 0,0.24075 0.0308,0.48392 0,0.72224 -0.14507,1.12594 -0.14327,-2e-4 -0.26056,1.30004 -0.0216,0.23955 0.0167,0.48221 0,0.72225 -0.0269,0.38704 -0.10845,0.76815 -0.13028,1.15558 -0.0217,0.38445 0,0.77039 0,1.15559 0,0.3852 0,0.77039 0,1.15559 0,1.25189 0,2.50378 0,3.75566 0,0.91484 0,1.82968 0,2.74452 0,0.2889 0,0.57779 0,0.86669 0,0.2889 -0.0217,0.5788 0,0.8667 0.0909,1.20903 0.10108,0.5181 0.39084,1.58893 0.37337,2.06985 -0.14853,-0.49409 0.39085,1.30004 0.0276,0.0914 -0.0388,0.20277 0,0.2889 0.0549,0.12181 0.20564,0.16708 0.26057,0.28889 0.039,0.0861 0,0.1926 0,0.28889 0.0434,0.0963 0.0765,0.19932 0.13029,0.28891 0.034,0.0566 0.0868,0.0963 0.1303,0.14444 0.13027,0.14446 0.26056,0.2889 0.39085,0.43335 0.0434,0.0481 0.0962,0.0878 0.13028,0.14445 0.0538,0.0896 0.0617,0.21276 0.13028,0.28889 0.13732,0.15226 0.36576,0.15971 0.52113,0.2889 0.0983,0.0817 0.1623,0.20718 0.26058,0.28891 0.15537,0.12918 0.38379,0.13662 0.52113,0.28889 0.0686,0.0762 0.0526,0.22429 0.13029,0.2889 0.10987,0.0914 0.26056,0.0963 0.39085,0.14444 0.13029,0.0481 0.25881,0.10262 0.39084,0.14445 0.17218,0.0545 0.35349,0.0748 0.52116,0.14445 0.18184,0.0756 0.33927,0.21329 0.52112,0.2889 0.16767,0.0697 0.34744,0.0963 0.52114,0.14445 0.17372,0.0481 0.34556,0.10552 0.52114,0.14444 0.25903,0.0574 0.52869,0.0603 0.7817,0.14445 0.18603,0.0618 0.3393,0.21329 0.52115,0.28889 0.50087,0.20827 0.75246,0.12249 1.30285,0.28891 0.22561,0.0682 0.4274,0.21439 0.6514,0.2889 0.21212,0.0705 0.43489,0.093 0.65143,0.14445 0.3915,0.093 0.78281,0.18721 1.17255,0.28889 0.34859,0.091 0.68961,0.2199 1.04228,0.28889 0.38728,0.0758 0.78866,0.0499 1.17256,0.14446 0.40218,0.0991 0.76617,0.35825 1.17256,0.43335 0.38554,0.0712 0.78409,-0.0479 1.17256,0 0.39793,0.049 0.77461,0.23987 1.17255,0.28889 0.38848,0.0478 0.78411,-0.0479 1.17257,0 0.39793,0.049 0.77826,0.21176 1.17255,0.2889 0.34479,0.0675 0.70397,0.0445 1.04227,0.14444 0.31957,0.0945 0.58692,0.36577 0.912,0.43335 0.38415,0.0798 0.78437,-0.0507 1.17255,0 0.35567,0.0464 0.69111,0.21103 1.04227,0.2889 0.30113,0.0668 0.61408,0.0618 0.912,0.14445 0.39969,0.11079 0.76682,0.35396 1.17255,0.43333 0.34214,0.0669 0.7016,-0.0755 1.04227,0 0.32433,0.0719 0.59243,0.33887 0.912,0.43335 0.33831,0.10003 0.70111,0.0572 1.04227,0.14446 0.22789,0.0583 0.4258,0.22067 0.65143,0.28889 0.25486,0.0771 0.52543,0.0734 0.78169,0.14445 0.26647,0.0739 0.51149,0.23443 0.78171,0.28889 0.21365,0.0431 0.43429,0 0.65143,0 0.30399,0 0.60798,0 0.91199,0 0.34742,0 0.69833,-0.0545 1.04228,0 0.27189,0.0431 0.51078,0.23884 0.78169,0.2889 0.25703,0.0475 0.52115,0 0.78171,0 0.26058,0 0.52114,0 0.78171,0 0.82513,0 1.65026,0 2.47539,0 0.91199,0 1.82398,0 2.73598,0 0.26056,0 0.52374,0.0408 0.78169,0 0.35452,-0.0562 0.68694,-0.23965 1.0423,-0.2889 0.34473,-0.0478 0.69552,0.024 1.04226,0 0.34945,-0.0242 0.69283,-0.12023 1.04228,-0.14444 0.018,-0.002 2.07556,0.002 2.08455,0 3.48181,-0.48255 -1.79453,-0.11883 2.34511,-0.57779 0.43213,-0.0478 0.86856,0 1.30285,0 0.73826,0 1.47655,0 2.21482,0 1.0857,0 2.17141,0 3.25711,0 0.39085,0 0.78239,0.0254 1.17256,0 0.34952,-0.0228 0.69274,-0.12165 1.04227,-0.14446 0.39019,-0.0254 0.78171,0 1.17256,0 0.21714,0 0.43681,0.0366 0.65142,0 0.35395,-0.0604 0.69485,-0.1926 1.04228,-0.28889 0.39084,0 0.78438,0.0507 1.17256,0 0.35565,-0.0464 0.68661,-0.2425 1.04227,-0.28889 0.38818,-0.0507 0.78171,0 1.17255,0 1.17257,0 2.34513,0 3.51768,0 2.69254,0 5.38508,0 8.07763,0 1.78055,0 3.5611,0 5.34165,0 0.43428,0 0.86855,0 1.30284,0 0.13029,0 0.26057,0 0.39084,0 0.13029,0 0.26311,-0.0283 0.39086,0 0.0953,0.0211 0.16636,0.11833 0.26059,0.14443 0.0843,0.0234 0.17487,-0.0159 0.26055,0 0.17662,0.0327 0.34451,0.11182 0.52115,0.14446 0.25702,0.0475 0.52376,-0.0408 0.7817,0 0.13595,0.0215 0.25538,0.11942 0.39086,0.14445 0.1285,0.0237 0.26157,-0.0179 0.39084,0 0.21973,0.0305 0.43169,0.114 0.65142,0.14444 0.25856,0.0359 0.52114,0 0.7817,0 0.13029,0 0.26188,0.0205 0.39086,0 0.17726,-0.0281 0.34634,-0.10138 0.52114,-0.14444 0.20262,-0.0499 0.94148,-0.19282 1.17256,-0.28891 0.18183,-0.0756 0.33928,-0.21328 0.52114,-0.28889 0.16764,-0.0697 0.35346,-0.0748 0.52113,-0.14444 0.18185,-0.0756 0.34742,-0.1926 0.52114,-0.2889 0.17371,-0.0963 0.35251,-0.18207 0.52114,-0.2889 0.13594,-0.0861 0.25491,-0.20276 0.39086,-0.2889 0.16861,-0.10683 0.36309,-0.16373 0.52111,-0.2889 0.14994,-0.11873 0.24348,-0.31077 0.39087,-0.43333 0.20258,-0.16847 0.44395,-0.27235 0.65143,-0.43335 0.22779,-0.1768 0.43428,-0.3852 0.65141,-0.5778 0.21713,-0.1926 0.44359,-0.37296 0.65142,-0.57779 0.18361,-0.18096 0.33752,-0.39684 0.52113,-0.5778 0.20785,-0.20482 0.4436,-0.37297 0.65143,-0.57779 0.18361,-0.18096 0.33752,-0.39684 0.52113,-0.57779 0.20785,-0.20483 0.4548,-0.35979 0.65142,-0.57779 0.0411,-0.0455 0.83508,-1.15081 0.912,-1.30004 0.0681,-0.13221 0.0688,-0.29716 0.13028,-0.43335 0.0701,-0.15528 0.19055,-0.27807 0.26057,-0.43335 0.12283,-0.27237 0.15238,-0.58679 0.26057,-0.86669 0.15301,-0.39584 0.36812,-0.75974 0.52113,-1.15559 0.31497,-0.81483 -0.0701,-0.0338 0.26057,-1.01113 0.0682,-0.20163 0.19238,-0.37618 0.26058,-0.57781 0.0629,-0.18588 0.0868,-0.38518 0.13028,-0.57779 0.31774,-1.40912 -0.0702,0.3504 0.26057,-1.30004 0.16459,-0.82121 0.337,-1.63902 0.52114,-2.45562 0.0868,-0.38519 0.19832,-0.76457 0.26056,-1.15559 0.0683,-0.42938 0.0578,-0.87149 0.13029,-1.30003 0.0584,-0.34454 0.17909,-0.67245 0.26056,-1.01115 0.27631,-1.1488 0.53611,-2.30941 0.78172,-3.46676 0.76539,-3.60656 -0.16414,0.82606 0.39084,-2.45563 0.13199,-0.78049 0.37106,-1.5347 0.52114,-2.31117 0.0553,-0.28639 0.0868,-0.5778 0.13028,-0.86669 0,-0.3852 -0.064,-0.777 0,-1.15559 0.0684,-0.40434 0.28018,-0.76293 0.39086,-1.155594 0.47258,-1.676714 0.0926,-0.589128 0.39085,-2.022279 0.11134,-0.53493 0.32082,-1.045461 0.39085,-1.588929 0.0185,-0.143004 -0.0316,-0.293213 0,-0.433349 0.0566,-0.251553 0.19337,-0.473885 0.26057,-0.722242 0.0636,-0.235161 0.0666,-0.487082 0.13027,-0.722244 0.13442,-0.496715 0.37324,-0.952511 0.52116,-1.444485 0.0566,-0.188337 0.0812,-0.386907 0.13028,-0.577794 0.0755,-0.292807 0.18512,-0.573884 0.26057,-0.866692 0.0493,-0.190887 0.0811,-0.386906 0.13028,-0.577793 0.0376,-0.146405 0.11085,-0.282614 0.13027,-0.433346 0.0246,-0.190663 -0.0477,-0.392607 0,-0.577794 0.043,-0.166927 0.19056,-0.278069 0.26059,-0.433346 0.0614,-0.136188 0.0868,-0.288898 0.13027,-0.433345 0.0434,-0.144449 0.0868,-0.288899 0.13028,-0.433346 0.0434,-0.144449 0.0868,-0.288898 0.1303,-0.433347 0.0434,-0.144447 0.11085,-0.282613 0.13027,-0.433346 0.0245,-0.190661 -0.0245,-0.387131 0,-0.577793 0.0195,-0.150732 0.10772,-0.283156 0.13029,-0.433346 0.0214,-0.142483 0,-0.288898 0,-0.433346 0,-0.288896 0,-0.577793 0,-0.866692 0,-0.481494 0,-0.96299 0,-1.444485 0,-0.192598 0.0285,-0.387816 0,-0.577794 -0.016,-0.106201 -0.0868,-0.192598 -0.13029,-0.288897 -0.0434,-0.144449 -0.1077,-0.283155 -0.13027,-0.433345 -0.0214,-0.142484 0.0255,-0.291702 0,-0.433346 -0.019,-0.105576 -0.0868,-0.192598 -0.1303,-0.288898 -0.1283,-0.284522 -0.28432,-0.571452 -0.39084,-0.866691 -0.43212,-1.437227 0.12283,0.340469 -0.26057,-0.722242 -0.10203,-0.282745 -0.13774,-0.594317 -0.26058,-0.866692 -0.07,-0.155278 -0.19888,-0.273777 -0.26055,-0.433345 -0.14107,-0.364949 -0.11949,-0.790642 -0.26057,-1.155589 -0.0618,-0.159569 -0.1989,-0.273777 -0.26059,-0.433346 -0.0705,-0.182473 -0.0868,-0.385196 -0.13027,-0.577794 -0.0871,-0.386407 -0.17344,-0.769181 -0.26057,-1.155589 -0.0434,-0.192598 -0.0737,-0.389457 -0.13027,-0.577794 -0.074,-0.245986 -0.18663,-0.476256 -0.26058,-0.722243 -0.11325,-0.376675 -0.13484,-0.783818 -0.26057,-1.155588 -0.0682,-0.201621 -0.19238,-0.376174 -0.26056,-0.577794 -0.0629,-0.185886 -0.0787,-0.387642 -0.13029,-0.577795 -0.0788,-0.291681 -0.1798,-0.575633 -0.26057,-0.866691 -0.093,-0.335033 -0.17911,-0.672442 -0.26057,-1.01114 -0.0923,-0.383645 -0.14731,-0.778913 -0.26057,-1.155589 -0.10459,-0.347878 -0.27211,-0.668886 -0.39084,-1.011139 -0.0986,-0.284227 -0.17372,-0.577795 -0.26056,-0.866693 -0.17374,-0.577793 -0.35961,-1.151266 -0.52116,-1.733381 -0.093,-0.335033 -0.16058,-0.678595 -0.26056,-1.01114 -0.22149,-0.736688 -0.56023,-1.430042 -0.78171,-2.166729 -0.60284,-2.005156 0.0167,-0.07014 -0.39085,-1.877831 -0.0666,-0.295432 -0.17371,-0.577795 -0.26058,-0.866693 -0.0868,-0.288896 -0.15492,-0.58559 -0.26056,-0.86669 -0.11205,-0.298151 -0.26877,-0.573423 -0.39084,-0.866691 -0.13861,-0.332945 -0.251,-0.678847 -0.39087,-1.01114 -0.32851,-0.780519 -0.71149,-1.531835 -1.04228,-2.311177 -0.18211,-0.429081 -0.33901,-0.870956 -0.52112,-1.300037 -0.1654,-0.389672 -0.36545,-0.761034 -0.52115,-1.155589 -0.14872,-0.376898 -0.24212,-0.778691 -0.39084,-1.155589 -0.15569,-0.394555 -0.37324,-0.757364 -0.52114,-1.155588 -0.15687,-0.422381 -0.23399,-0.877656 -0.39086,-1.300037 -0.33185,-0.893569 -0.64017,-1.330822 -1.04227,-2.166729 -0.18278,-0.379996 -0.34742,-0.770392 -0.52114,-1.155588 -0.21714,-0.385196 -0.45055,-0.759683 -0.65142,-1.155589 -0.19044,-0.375354 -0.32129,-0.786298 -0.52115,-1.155588 -0.64536,-1.192563 -0.60448,-0.867241 -1.43311,-1.877831 -0.18705,-0.22813 -0.3364,-0.491812 -0.52114,-0.722243 -0.36282,-0.452552 -0.4882,-0.584778 -0.91198,-0.866692 -0.52725,-0.350743 0.005,0.0016 -0.52115,-0.144448 -0.0942,-0.02612 -0.16535,-0.123334 -0.26056,-0.144449 -0.12777,-0.02833 -0.26309,0.02833 -0.39084,0 -0.0953,-0.02111 -0.16537,-0.123333 -0.26059,-0.144448 -0.12775,-0.02833 -0.26187,0.02043 -0.39085,0 -0.35453,-0.05615 -0.68634,-0.245051 -1.04226,-0.288897 -0.21582,-0.02659 -0.43779,0.04306 -0.65145,0 -1.61225,-0.32501 0.0931,-0.265088 -1.69367,-0.722243 -0.25389,-0.06496 -0.52535,0.05168 -0.7817,0 -0.23011,-0.04639 -0.42743,-0.21439 -0.65145,-0.288897 -0.21209,-0.07055 -0.43354,-0.10053 -0.6514,-0.144449 -0.25992,-0.0524 -0.52114,-0.0963 -0.78171,-0.144449 -0.34743,-0.04814 -0.69748,-0.07699 -1.04226,-0.144448 -0.39431,-0.07715 -0.77528,-0.233836 -1.17256,-0.288897 -0.30166,-0.0418 -0.60801,0 -0.912,0 -0.60801,0 -1.21599,0 -1.82398,0 -0.30401,0 -0.60877,0.02402 -0.912,0 -0.3063,-0.02426 -0.60597,-0.116174 -0.91199,-0.144449 -0.21639,-0.02 -0.43427,0 -0.65142,0 -0.26057,0 -0.52113,0 -0.7817,0 -0.73827,0 -1.47656,0 -2.21484,0 -0.95541,0 -1.91082,0 -2.86624,0 -0.43429,0 -0.86856,0 -1.30285,0 -0.13549,0 -0.67922,-0.0284 -0.78171,0 -0.0942,0.02612 -0.16637,0.118336 -0.26055,0.144449 -0.0843,0.02335 -0.17373,0 -0.26059,0 -0.26056,0 -0.52112,0 -0.78171,0 -0.34742,0 -0.69483,0 -1.04225,0 -0.1303,0 -0.26188,-0.02043 -0.39087,0 -0.17726,0.02808 -0.34451,0.111811 -0.52113,0.144448 -0.0856,0.01583 -0.17371,0 -0.26057,0 -0.31729,0 -0.28401,0 -0.65143,0 -0.4777,0 -0.9554,0 -1.43312,0 -0.60799,0 -1.21599,0 -1.82397,0 -0.26058,0 -0.52115,0 -0.7817,0 -0.0868,0 -0.17631,0.02335 -0.26059,0 -0.0942,-0.02612 -0.16635,-0.118336 -0.26057,-0.144448 -0.0843,-0.02335 -0.17371,0 -0.26055,0 -0.0868,0 -0.17372,0 -0.26058,0 -0.30398,0 -0.60799,0 -0.91197,0 -0.0868,0 -0.17819,0.03046 -0.2606,0 -0.0584,-0.02153 -0.072,-0.122915 -0.13027,-0.144449 -0.15761,-0.05825 -0.60423,0.04919 -0.7817,0 -0.0942,-0.02612 -0.16844,-0.110402 -0.26057,-0.144448 -0.0844,-0.03119 -0.54476,0 -0.65142,0 -0.39086,0 -0.78171,0 -1.17257,0 -0.30398,0 -0.608,0 -0.91198,0 -0.13028,0 -0.26726,-0.04568 -0.39086,0 -0.0584,0.02153 -0.072,0.122915 -0.13028,0.144448 -0.0596,0.02203 -0.46317,-0.03213 -0.52113,0 -0.0348,0.01926 -0.22583,0.269636 -0.26057,0.288897 -0.10422,0.05778 -0.28661,-0.05778 -0.39086,0 -0.0549,0.03045 -0.0754,0.113997 -0.13028,0.144449 -0.0389,0.02153 -0.0914,-0.02153 -0.13028,0 -0.0548,0.03045 -0.0754,0.113996 -0.13029,0.144448 -0.10422,0.05778 -0.28662,-0.05778 -0.39086,0 -0.0388,0.02153 0.0308,0.110402 0,0.144449 -0.0307,0.03405 -0.0914,-0.02153 -0.13028,0 -0.0549,0.03045 -0.0754,0.113997 -0.13028,0.144449 -0.0819,0.04539 -0.43925,-0.04539 -0.52114,0 -0.0548,0.03045 -0.0754,0.113995 -0.13027,0.144448 -0.0389,0.02153 -0.0914,-0.02153 -0.13029,0 -0.0549,0.03045 -0.0754,0.113997 -0.1303,0.144449 -0.0517,0.02864 -0.3642,-0.02953 -0.39085,0 -0.0308,0.03405 0.0308,0.110402 0,0.144449 -0.0308,0.03405 -0.0914,-0.02153 -0.13027,0 -0.0549,0.03045 -0.0754,0.113995 -0.13029,0.144448 -0.0517,0.02864 -0.36423,-0.02953 -0.39086,0 -0.26956,0.298869 0.41193,-0.01169 -0.13028,0.288897 -0.0776,0.04307 -0.19914,-0.06809 -0.26056,0 -0.0308,0.03405 0.0308,0.110402 0,0.144449 -0.0434,0.04815 -0.21714,-0.04815 -0.26058,0 -0.0308,0.03405 0.0308,0.110401 0,0.144448 -0.0308,0.03405 -0.0868,-10e-4 -0.13029,0 -0.20472,0.0048 -0.40939,0.01168 -1.17255,0.144449 z"
       id="path3179"
       inkscape:export-xdpi="90"
       inkscape:export-ydpi="90" />
    <path
       sodipodi:type="arc"
       style="fill:none;stroke:#ffffff;stroke-width:2.33698249;stroke-linecap:butt;stroke-linejoin:round;stroke-miterlimit:4;stroke-opacity:1;stroke-dasharray:none;display:inline"
       id="path4597"
       sodipodi:cx="876.81244"
       sodipodi:cy="75.415382"
       sodipodi:rx="35.187592"
       sodipodi:ry="39.951534"
       d="m 912.00003,75.415382 c 0,22.064623 -15.75402,39.951538 -35.18759,39.951538 -19.43357,0 -35.18759,-17.886915 -35.18759,-39.951538 0,-22.064623 15.75402,-39.951534 35.18759,-39.951534 19.43357,0 35.18759,17.886911 35.18759,39.951534 z"
       transform="matrix(0.91439232,0,0,0.80097049,94.4247,26.594504)" />
    <path
       style="fill:#807088;fill-opacity:1;stroke:none"
       d="m 874.51788,131.20919 c -0.33439,-0.12405 -0.91402,-0.17974 -1.75,-0.16814 -0.95996,0.0133 -1.45302,-0.0448 -2.125,-0.25064 -0.48125,-0.1474 -1.18437,-0.34066 -1.5625,-0.42947 -0.37812,-0.0888 -0.90531,-0.25421 -1.17151,-0.36756 -0.26621,-0.11335 -0.71225,-0.20609 -0.99119,-0.20609 -0.27895,0 -0.84864,-0.10603 -1.26599,-0.23562 -1.20245,-0.37337 -1.94388,-0.53852 -2.88381,-0.64232 -0.48125,-0.0531 -1.12812,-0.18023 -1.4375,-0.28238 -0.79368,-0.26208 -1.88856,-0.47151 -3.125,-0.59776 -2.25743,-0.23048 -3.08034,-0.35513 -3.5625,-0.53963 -0.275,-0.10522 -0.65167,-0.19379 -0.83704,-0.1968 -0.36413,-0.006 -3.63157,-0.82485 -3.96196,-0.99298 -0.11055,-0.0563 -0.39787,-0.1393 -0.6385,-0.18453 -0.24062,-0.0452 -0.71875,-0.18943 -1.0625,-0.32044 -0.34375,-0.13101 -0.95106,-0.30842 -1.34957,-0.39423 -0.39852,-0.0858 -0.75246,-0.20114 -0.78653,-0.25627 -0.0341,-0.0551 -0.29711,-0.16357 -0.58452,-0.24096 -0.28741,-0.0774 -0.6831,-0.27579 -0.87931,-0.44089 -0.19621,-0.16511 -0.40139,-0.30019 -0.45594,-0.30019 -0.19136,0 -1.50663,-1.42092 -1.50663,-1.62764 0,-0.11492 -0.0951,-0.39958 -0.21133,-0.63257 -0.11623,-0.23299 -0.32419,-0.79007 -0.46214,-1.23795 -0.23135,-0.75115 -0.25404,-1.23178 -0.29243,-6.19421 -0.028,-3.62151 0.008,-5.84812 0.10971,-6.8125 0.19674,-1.86241 0.1474,-6.1097 -0.074,-6.37013 -0.22025,-0.25909 -0.41927,-1.26423 -0.64349,-3.249999 -0.1048,-0.928125 -0.24359,-1.860244 -0.30844,-2.071375 -0.0648,-0.211131 -0.1181,-0.604881 -0.11836,-0.875 -2.7e-4,-0.270119 -0.09,-0.997375 -0.19946,-1.616125 -0.10943,-0.61875 -0.24294,-1.40625 -0.29668,-1.75 -0.0537,-0.34375 -0.15761,-0.79375 -0.23084,-1 -0.34385,-0.968554 -0.43406,-2.219174 -0.48931,-6.78343 -0.0537,-4.435737 -0.0274,-5.201883 0.29231,-8.52907 0.0435,-0.452938 0.12147,-0.864708 0.485,-2.5625 0.37393,-1.746318 0.41639,-1.958809 0.81172,-4.0625 0.79373,-4.223812 0.86705,-4.582262 1.25273,-6.125001 0.0688,-0.275 0.17236,-0.710937 0.23024,-0.96875 0.0579,-0.257812 0.28288,-0.908937 0.5,-1.446945 0.21712,-0.538007 0.39476,-1.030043 0.39476,-1.093416 0,-0.06337 0.17155,-0.478305 0.38122,-0.922072 0.29793,-0.630579 0.71439,-1.143745 1.90625,-2.348905 1.733,-1.752349 3.24441,-3.121548 4.00544,-3.628582 0.28578,-0.190393 0.74459,-0.515757 1.01959,-0.723031 0.62668,-0.472339 1.41194,-0.993299 1.49723,-0.993299 0.0356,0 0.33201,-0.191312 0.65873,-0.425138 0.71558,-0.512123 3.20667,-1.824862 3.46291,-1.824862 0.10039,0 0.38975,-0.140625 0.64302,-0.3125 0.25328,-0.171875 0.55671,-0.3125 0.6743,-0.3125 0.11759,0 0.43706,-0.161728 0.70993,-0.359396 0.27288,-0.197668 0.62581,-0.400553 0.78429,-0.450854 0.15849,-0.0503 0.60461,-0.303335 0.99138,-0.562297 0.91787,-0.61456 3.23619,-2.002453 3.34488,-2.002453 0.0941,0 1.33701,-1.172006 1.65516,-1.56076 0.20736,-0.253383 1.30893,-1.436725 1.91353,-2.055595 0.18445,-0.188799 0.60632,-0.441099 0.9375,-0.560666 0.33118,-0.119567 0.71464,-0.265443 0.85214,-0.324169 0.57675,-0.246327 1.3056,-0.291038 4.75,-0.291387 3.6636,-3.75e-4 4.20982,0.0493 6.1875,0.562649 0.78569,0.203941 4.81294,0.272397 5.91341,0.100517 0.4945,-0.07724 1.23659,-0.166837 1.64909,-0.199117 1.11922,-0.08758 1.3125,-0.147854 1.3125,-0.409274 0,-0.235176 0.31674,-0.382218 0.83038,-0.385491 0.14733,-9.37e-4 0.29853,-0.0816 0.336,-0.179244 0.041,-0.106817 0.34062,-0.211584 0.7522,-0.263007 0.52368,-0.06543 0.6986,-0.141033 0.74604,-0.322462 0.0341,-0.130347 0.16849,-0.236994 0.29868,-0.236994 0.13019,0 0.30696,-0.07031 0.39284,-0.15625 0.2071,-0.207247 2.84094,-0.198563 5.33136,0.01758 1.27753,0.110876 2.87079,0.13865 5,0.08716 13.89589,-0.336019 19.35663,-0.148494 21.47721,0.737541 0.24874,0.103933 0.65632,0.188968 0.90573,0.188968 0.24941,0 0.60278,0.104783 0.78527,0.232851 0.34768,0.243998 0.81036,0.363506 2.76929,0.715284 0.65313,0.117287 1.34507,0.275374 1.53765,0.351307 0.50892,0.200661 2.11828,2.216696 2.7545,3.450558 1.52306,2.953746 2.37038,4.729435 2.64382,5.540481 0.53939,1.599929 1.4579,3.862001 3.17596,7.821682 0.95801,2.207976 1.21286,2.94187 1.39345,4.012837 0.0638,0.378125 0.42262,1.64375 0.79746,2.8125 1.07556,3.353594 1.88013,5.990623 2.36455,7.750001 0.24608,0.89375 0.5972,2.13125 0.78026,2.75 0.18306,0.61875 0.46161,1.659375 0.61899,2.3125 0.15739,0.653125 0.3841,1.46875 0.5038,1.8125 0.22915,0.65805 0.25551,0.729788 1.0332,2.8125 0.73471,1.967581 0.81972,2.483241 0.73592,4.463687 -0.0706,1.668421 -0.24126,2.527643 -0.65456,3.295599 -0.0953,0.176981 -0.23327,0.697916 -0.30671,1.157631 -0.0734,0.459715 -0.33483,1.496162 -0.58088,2.303214 -0.76303,2.502853 -0.82305,2.748859 -1.34931,5.529869 -0.11059,0.584375 -0.31436,1.404696 -0.45285,1.822936 -0.13848,0.418244 -0.27764,1.200744 -0.30926,1.738894 -0.0316,0.53815 -0.19622,1.6022 -0.36578,2.36456 -0.16957,0.76236 -0.34461,1.69549 -0.38898,2.07361 -0.0444,0.37813 -0.3537,1.89688 -0.6874,3.375 -0.33369,1.47813 -0.66191,3.08125 -0.72937,3.5625 -0.23757,1.69474 -1.11745,5.51434 -1.55492,6.75 -1.30695,3.69151 -1.21232,3.53465 -3.48948,5.784 -0.8429,0.83262 -1.81381,1.72808 -2.15756,1.98992 -0.34375,0.26185 -0.68125,0.54117 -0.75,0.62072 -0.22472,0.26002 -1.56254,1.05396 -2.0889,1.23967 -0.28298,0.0998 -0.57562,0.22935 -0.65031,0.28779 -0.0747,0.0584 -0.54336,0.20431 -1.04151,0.32416 -0.85292,0.20521 -0.97681,0.20578 -2.125,0.01 -0.6706,-0.11449 -1.5849,-0.26489 -2.03178,-0.33423 -1.05788,-0.16413 -21.15515,-0.0648 -22.625,0.11185 -0.58437,0.0702 -1.23125,0.19438 -1.4375,0.27591 -0.25834,0.10211 -2.26092,0.17721 -6.4375,0.2414 -5.02826,0.0773 -6.13806,0.12593 -6.50545,0.28521 -0.29972,0.12994 -1.10576,0.22207 -2.49287,0.28493 -1.12746,0.0511 -2.30626,0.17071 -2.61955,0.26581 -0.84419,0.25625 -7.48987,0.23396 -8.19463,-0.0275 l 0,0 z m 26.4375,-11.48393 c 4.51207,-0.69919 9.08855,-2.36125 12.75,-4.63047 2.89534,-1.7944 6.29837,-4.78396 8.3744,-7.35688 3.89257,-4.82425 6.40795,-10.864554 7.13688,-17.138119 0.34357,-2.956934 0.11913,-7.407708 -0.52609,-10.432562 -2.39633,-11.234385 -10.59954,-20.565886 -21.37705,-24.317291 -3.81154,-1.32671 -7.05669,-1.863384 -11.23314,-1.857706 -5.40684,0.0073 -9.8484,1.040146 -14.6875,3.415292 -3.36256,1.650428 -5.99075,3.544388 -8.75682,6.310449 -4.1729,4.172906 -6.97019,8.959983 -8.50324,14.551824 -1.80536,6.585104 -1.54234,13.355564 0.77522,19.954994 0.60731,1.729342 2.36371,5.242519 3.39081,6.782329 4.49364,6.73678 10.99948,11.54972 18.54981,13.72293 1.63995,0.47203 4.24852,0.98421 5.98172,1.17447 1.5752,0.17293 6.56232,0.0629 8.125,-0.17926 l 0,0 z"
       id="path4517" />
    <path
       style="fill:#6a6a6a;fill-opacity:1;stroke:none"
       d="m 892.89288,117.77348 c -10.72937,-1.15269 -20.20704,-7.86909 -24.85155,-17.61119 -4.9146,-10.308616 -3.622,-22.666256 3.32524,-31.790338 6.87802,-9.033169 18.08792,-13.610942 29.30027,-11.965318 5.22422,0.766752 10.09734,2.808505 14.3726,6.021864 2.45107,1.842261 5.25587,4.821548 7.01708,7.453605 5.87984,8.787179 6.85166,19.859199 2.59295,29.541765 -4.25578,9.675912 -13.26764,16.518532 -23.94409,18.180532 -1.57396,0.24502 -6.17814,0.34466 -7.8125,0.16908 z"
       id="path5291" />
    <path
       style="fill:#807088;fill-opacity:1;stroke:none"
       d="m 849.76883,265.15949 c -6.41478,-1.14832 -14.09171,-5.13131 -16.8752,-8.75527 -1.96292,-2.55562 -2.27418,-4.7738 -1.01806,-7.25512 l 0.49219,-0.97227 59.47964,0 59.47964,0 0.41067,1.41421 c 0.34602,1.1916 0.39965,1.71193 0.34071,3.30553 -0.0649,1.75509 -0.11713,1.98674 -0.7248,3.21628 -1.36891,2.76981 -4.26939,4.45762 -9.20879,5.35865 -1.33738,0.24397 -3.30474,0.30335 -11.94182,0.36045 l -10.34065,0.0684 -2.03372,0.59692 c -6.25633,1.8363 -12.84501,2.90948 -17.88663,2.91343 -5.20113,0.004 -8.40365,-0.88713 -10.93208,-3.0422 -2.48649,-2.11932 -3.75522,-2.79725 -6.6258,-3.54043 -1.71307,-0.4435 -6.10574,-0.52751 -8.22012,-0.15719 -4.34877,0.76164 -9.63732,2.5827 -11.45695,3.9451 -1.23772,0.9267 -3.14761,1.81817 -4.89489,2.28476 -1.79746,0.47998 -6.04439,0.61663 -8.04334,0.25879 z"
       id="path5293" />
    <path
       style="fill:#606878;fill-opacity:1;stroke:none"
       d="m 865.1484,238.98444 c 0,-3.84048 0.0471,-6.98268 0.10476,-6.98268 0.0576,0 12.81795,-0.7955 28.35629,-1.76777 15.53834,-0.97227 28.39811,-1.7636 28.57726,-1.75851 0.17915,0.005 -0.78758,0.57227 -2.1483,1.2604 l -2.47403,1.25113 4.63955,2.31777 4.63954,2.31778 0,5.17228 0,5.17228 -30.84754,0 -30.84753,0 0,-6.98268 z"
       id="path5295" />
    <path
       style="fill:#606878;fill-opacity:1;stroke:none"
       d="m 870.89364,228.78584 1.41422,-0.72336 23.68807,-1.98009 23.68808,-1.9801 2.03293,1.01306 2.03294,1.01307 -1.32583,0.11458 c -1.65534,0.14306 -52.1685,3.28715 -52.61709,3.27505 -0.18014,-0.005 0.30887,-0.33435 1.08668,-0.73221 z"
       id="path5297" />
    <path
       style="fill:#606878;fill-opacity:1;stroke:none"
       d="m 870.09815,224.8514 c -1.82593,-0.92967 -1.84608,-0.94667 -1.23744,-1.04444 0.70957,-0.11397 52.31592,-3.31136 53.1214,-3.29125 0.45836,0.0114 0.3454,0.10779 -0.83243,0.70999 l -1.36276,0.69676 -23.3309,1.94606 c -12.83199,1.07033 -23.59433,1.94198 -23.9163,1.93699 -0.34382,-0.005 -1.35143,-0.39907 -2.44157,-0.95411 z"
       id="path5299" />
    <path
       style="fill:#606878;fill-opacity:1;stroke:none"
       d="m 871.07042,220.78309 1.59099,-0.78927 23.56954,-1.94538 23.56953,-1.94538 2.06309,1.04589 c 1.30334,0.66074 1.90992,1.04927 1.64717,1.05506 -0.47695,0.0105 -50.69358,3.12934 -52.70548,3.27341 l -1.32583,0.0949 1.59099,-0.78927 z"
       id="path5301" />
    <path
       style="fill:#606878;fill-opacity:1;stroke:none"
       d="m 870.09815,216.79896 c -1.91025,-0.9795 -1.99224,-1.04295 -1.35859,-1.05153 0.74495,-0.0101 51.54683,-3.30108 53.24255,-3.44911 l 1.06066,-0.0926 -1.68299,0.86375 -1.68299,0.86375 -23.59608,1.96535 c -12.97784,1.08094 -23.67563,1.96027 -23.77285,1.95407 -0.0972,-0.006 -1.0916,-0.48037 -2.20971,-1.05369 z"
       id="path5303" />
    <path
       style="fill:#606878;fill-opacity:1;stroke:none"
       d="m 870.89364,212.8091 1.59099,-0.78358 22.9925,-1.94431 c 12.64587,-1.06937 23.3055,-1.94023 23.68808,-1.93524 0.87528,0.0114 4.73209,1.91145 3.91033,1.92642 -0.67743,0.0123 -51.77904,3.33377 -52.889,3.4376 l -0.88389,0.0827 1.59099,-0.78358 0,0 z"
       id="path5305" />
    <path
       style="fill:#606878;fill-opacity:1;stroke:none"
       d="m 870.09815,208.8507 c -1.30158,-0.67168 -1.88331,-1.05238 -1.61702,-1.05822 0.50099,-0.011 50.8142,-3.13728 52.70548,-3.27493 l 1.32583,-0.0965 -1.36685,0.70942 -1.36685,0.70942 -22.85156,1.93939 c -12.56835,1.06666 -23.28908,1.98014 -23.82383,2.02995 -0.91917,0.0856 -1.08329,0.0333 -3.0052,-0.95853 z"
       id="path5307" />
    <path
       style="fill:#606878;fill-opacity:1;stroke:none"
       d="m 871.03834,204.76107 1.38213,-0.7065 23.68349,-1.97314 23.68348,-1.97315 1.98122,0.98973 c 1.93604,0.96716 1.96711,0.99203 1.3625,1.09033 -0.66889,0.10876 -52.30256,3.31436 -53.03301,3.29248 -0.32769,-0.01 -0.0846,-0.19588 0.94019,-0.71975 z"
       id="path5309" />
    <path
       style="fill:#606878;fill-opacity:1;stroke:none"
       d="m 870.26492,200.88331 -2.02293,-1.01528 1.32583,-0.11454 c 1.65624,-0.14309 52.16877,-3.28711 52.61709,-3.27501 0.18014,0.005 -0.30887,0.33422 -1.08668,0.73192 l -1.41422,0.72308 -22.98097,1.9093 c -12.63953,1.05011 -23.30367,1.94226 -23.69808,1.98255 -0.60102,0.0614 -1.04459,-0.0911 -2.74004,-0.94202 z"
       id="path5311" />
    <path
       style="fill:#606878;fill-opacity:1;stroke:none"
       d="m 870.89364,196.78926 1.41422,-0.72336 23.68807,-1.9801 23.68808,-1.98009 2.03293,1.01306 2.03294,1.01307 -1.32583,0.11458 c -1.65534,0.14305 -52.1685,3.28715 -52.61709,3.27505 -0.18014,-0.005 0.30887,-0.33436 1.08668,-0.73221 z"
       id="path5313" />
    <path
       style="fill:#606878;fill-opacity:1;stroke:none"
       d="m 870.27493,192.93411 -1.67938,-0.86593 12.37437,0.0121 12.37436,0.0121 -9.89949,0.85349 c -5.44472,0.46942 -10.25747,0.85365 -10.69499,0.85384 -0.60642,2.7e-4 -1.19465,-0.20546 -2.47487,-0.86557 z"
       id="path5315" />
    <path
       style="fill:#606878;fill-opacity:1;stroke:none"
       d="m 888.33038,116.73319 c -16.45099,-4.41658 -26.2031,-21.011946 -22.00143,-37.440313 2.15762,-8.436189 8.31982,-15.973772 16.07818,-19.66678 5.30738,-2.526329 8.41575,-3.227173 14.10978,-3.181329 8.72381,0.07024 15.26794,2.885342 21.56912,9.278441 6.25165,6.342848 8.80551,12.524569 8.80551,21.314082 0,8.656979 -2.74778,15.209149 -9.03915,21.554179 -2.9867,3.01217 -4.65683,4.22593 -8.02201,5.82995 -2.3375,1.11418 -5.44232,2.27105 -6.89961,2.57083 -3.68815,0.75868 -11.31345,0.62338 -14.60039,-0.25906 z"
       id="path5317" />
    <path
       style="fill:none;stroke:#ffffff;stroke-width:2;stroke-linecap:butt;stroke-linejoin:miter;stroke-miterlimit:4;stroke-opacity:1;stroke-dasharray:none;display:inline"
       d="m 832,247 c 0,0 -8,8 8,16 16,8 24,0 24,0 0,0 16,-8 24,0 8,8 32,0 32,0 0,0 -8,0 16,0 24,0 16,-16 16,-16"
       id="path2826"
       sodipodi:nodetypes="cscscsc" />
    <path
       style="fill:none;stroke:#ffffff;stroke-width:2;stroke-linecap:butt;stroke-linejoin:miter;stroke-miterlimit:4;stroke-opacity:1;stroke-dasharray:none;display:inline"
       d="m 832,247 120,0"
       id="path2824" />
    <path
       style="fill:none;stroke:#ffffff;stroke-width:2;stroke-linecap:butt;stroke-linejoin:miter;stroke-miterlimit:4;stroke-opacity:1;stroke-dasharray:none;display:inline"
       d="m 864,247 0,-16 8,-4 -8,-4 8,-4 -8,-4 8,-4 -8,-4 8,-4 -8,-4 8,-4 -8,-4 56,0 8,4 -8,4 8,4 -8,4 8,4 -8,4 8,4 -8,4 8,4 -8,4 8,4 0,12"
       id="path2828"
       sodipodi:nodetypes="cccccccccccccccccccccc" />
    <path
       style="fill:none;stroke:#ffffff;stroke-width:2;stroke-linecap:butt;stroke-linejoin:miter;stroke-miterlimit:4;stroke-opacity:1;stroke-dasharray:none;display:inline"
       d="m 920,191 -48,4"
       id="path2830" />
    <path
       style="fill:none;stroke:#ffffff;stroke-width:2;stroke-linecap:butt;stroke-linejoin:miter;stroke-miterlimit:4;stroke-opacity:1;stroke-dasharray:none;display:inline"
       d="m 928,195 -64,4"
       id="path2834" />
    <path
       style="fill:none;stroke:#ffffff;stroke-width:2;stroke-linecap:butt;stroke-linejoin:miter;stroke-miterlimit:4;stroke-opacity:1;stroke-dasharray:none;display:inline"
       d="m 928,203 -64,4"
       id="path2836" />
    <path
       style="fill:none;stroke:#ffffff;stroke-width:2;stroke-linecap:butt;stroke-linejoin:miter;stroke-miterlimit:4;stroke-opacity:1;stroke-dasharray:none;display:inline"
       d="M 919.77256,206.93725 872,211"
       id="path2838" />
    <path
       style="fill:none;stroke:#ffffff;stroke-width:2;stroke-linecap:butt;stroke-linejoin:miter;stroke-miterlimit:4;stroke-opacity:1;stroke-dasharray:none;display:inline"
       d="M 927.90429,210.82633 864,215"
       id="path2840" />
    <path
       style="fill:none;stroke:#ffffff;stroke-width:2;stroke-linecap:butt;stroke-linejoin:miter;stroke-miterlimit:4;stroke-opacity:1;stroke-dasharray:none;display:inline"
       d="m 920,215 -48,4"
       id="path2842" />
    <path
       style="fill:none;stroke:#ffffff;stroke-width:2;stroke-linecap:butt;stroke-linejoin:miter;stroke-miterlimit:4;stroke-opacity:1;stroke-dasharray:none;display:inline"
       d="m 928,219 -64,4"
       id="path2844"
       sodipodi:nodetypes="cc" />
    <path
       style="fill:none;stroke:#ffffff;stroke-width:2;stroke-linecap:butt;stroke-linejoin:miter;stroke-miterlimit:4;stroke-opacity:1;stroke-dasharray:none;display:inline"
       d="m 920,223 -48,4"
       id="path2846" />
    <path
       style="fill:none;stroke:#ffffff;stroke-width:2;stroke-linecap:butt;stroke-linejoin:miter;stroke-miterlimit:4;stroke-opacity:1;stroke-dasharray:none;display:inline"
       d="m 928,227 -64,4"
       id="path2848" />
    <path
       style="fill:none;stroke:#ffffff;stroke-width:2;stroke-linecap:butt;stroke-linejoin:miter;stroke-miterlimit:4;stroke-opacity:1;stroke-dasharray:none;display:inline"
       d="m 920,199 -48,4"
       id="path2832" />
  </g>
  <g
     inkscape:groupmode="layer"
     id="layer2"
     inkscape:label="Dimension"
     style="display:inline"
     transform="translate(-792,-7)">
    <path
       sodipodi:type="arc"
       style="fill:none;stroke:#ffffff;stroke-width:1.56224906;stroke-linecap:butt;stroke-linejoin:round;stroke-miterlimit:4;stroke-opacity:1;stroke-dasharray:4.6867471, 4.6867471;stroke-dashoffset:0"
       id="path4597-8"
       sodipodi:cx="876.81244"
       sodipodi:cy="75.415382"
       sodipodi:rx="35.187592"
       sodipodi:ry="39.951534"
       d="m 912.00003,75.415382 c 0,22.064623 -15.75402,39.951538 -35.18759,39.951538 -19.43357,0 -35.18759,-17.886915 -35.18759,-39.951538 0,-22.064623 15.75402,-39.951534 35.18759,-39.951534 19.43357,0 35.18759,17.886911 35.18759,39.951534 z"
       transform="matrix(0.68205861,0,0,0.60072786,297.96253,41.695879)" />
    <path
       style="fill:none;stroke:#ffffff;stroke-width:1;stroke-linecap:butt;stroke-linejoin:miter;stroke-miterlimit:4;stroke-opacity:1;stroke-dasharray:none"
       d="m 864.00002,175 63.99997,0"
       id="path3624-7" />
    <path
       style="fill:none;stroke:#ffffff;stroke-width:0.99999994;stroke-linecap:butt;stroke-linejoin:miter;stroke-miterlimit:4;stroke-opacity:1;stroke-dasharray:none"
       d="m 801.47891,191 58.73283,0"
       id="path3622" />
    <path
       style="fill:none;stroke:#ffffff;stroke-width:1;stroke-linecap:butt;stroke-linejoin:miter;stroke-miterlimit:4;stroke-opacity:1;stroke-dasharray:none"
       d="m 925.97669,231 58.02334,0"
       id="path3624" />
    <path
       style="fill:none;stroke:#ffffff;stroke-width:1;stroke-linecap:butt;stroke-linejoin:miter;stroke-miterlimit:4;stroke-opacity:1;stroke-dasharray:none;display:inline"
       d="m 896,279 0,-22"
       id="path3628-5-7-9" />
    <path
       style="fill:none;stroke:#ffffff;stroke-width:1;stroke-linecap:butt;stroke-linejoin:miter;stroke-miterlimit:4;stroke-opacity:1;stroke-dasharray:none;display:inline"
       d="m 896,253 0,-12"
       id="path3628-5-7-9-6" />
    <path
       style="fill:none;stroke:#ffffff;stroke-width:1;stroke-linecap:butt;stroke-linejoin:miter;stroke-miterlimit:4;stroke-opacity:1;stroke-dasharray:none;display:inline"
       d="m 896,237.00001 0,-76"
       id="path3628-5-7-9-3" />
    <path
       style="fill:none;stroke:#ffffff;stroke-width:1;stroke-linecap:butt;stroke-linejoin:miter;stroke-miterlimit:4;stroke-opacity:1;stroke-dasharray:none;display:inline"
       d="m 896,157 0,-12"
       id="path3628-5-7-9-1" />
    <path
       style="fill:none;stroke:#ffffff;stroke-width:1;stroke-linecap:butt;stroke-linejoin:miter;stroke-miterlimit:4;stroke-opacity:1;stroke-dasharray:none;display:inline"
       d="M 896,71.000002 896,15"
       id="path3628-5-7-3" />
    <path
       style="fill:none;stroke:#ffffff;stroke-width:0.99999994;stroke-linecap:butt;stroke-linejoin:miter;stroke-miterlimit:4;stroke-opacity:1;stroke-dasharray:none;display:inline"
       d="m 881.99999,87 -82,0"
       id="path3628-5-7-3-4" />
    <path
       style="fill:none;stroke:#ffffff;stroke-width:0.99999994;stroke-linecap:butt;stroke-linejoin:miter;stroke-miterlimit:4;stroke-opacity:1;stroke-dasharray:none;display:inline"
       d="m 944.00001,87 -34,0"
       id="path3628-5-7-3-4-8" />
    <path
       style="fill:none;stroke:#ffffff;stroke-width:0.99999994;stroke-linecap:butt;stroke-linejoin:miter;stroke-miterlimit:4;stroke-opacity:1;stroke-dasharray:none;display:inline"
       d="m 905.99999,87 -20.00001,0"
       id="path3628-5-7-3-4-5" />
    <path
       style="fill:none;stroke:#ffffff;stroke-width:0.99999994;stroke-linecap:butt;stroke-linejoin:miter;stroke-miterlimit:4;stroke-opacity:1;stroke-dasharray:none;display:inline"
       d="m 896,77 0,20.00001"
       id="path3628-5-7-3-4-5-4" />
    <path
       style="fill:none;stroke:#ffffff;stroke-width:1;stroke-linecap:butt;stroke-linejoin:miter;stroke-miterlimit:4;stroke-opacity:1;stroke-dasharray:none;display:inline"
       d="m 896,141 0,-40"
       id="path3628-5-7-9-1-9" />
    <path
       style="fill:none;stroke:#ffffff;stroke-width:1;stroke-linecap:butt;stroke-linejoin:miter;stroke-miterlimit:4;stroke-opacity:1;stroke-dasharray:none;display:inline"
       d="m 936,175 48,0"
       id="path3624-7-8" />
  </g>
</svg>
