<?xml version="1.0" encoding="UTF-8" standalone="no"?>
<!-- Created with Inkscape (http://www.inkscape.org/) -->

<svg
   xmlns:dc="http://purl.org/dc/elements/1.1/"
   xmlns:cc="http://creativecommons.org/ns#"
   xmlns:rdf="http://www.w3.org/1999/02/22-rdf-syntax-ns#"
   xmlns:svg="http://www.w3.org/2000/svg"
   xmlns="http://www.w3.org/2000/svg"
   xmlns:sodipodi="http://sodipodi.sourceforge.net/DTD/sodipodi-0.dtd"
   xmlns:inkscape="http://www.inkscape.org/namespaces/inkscape"
   width="71"
   height="71"
   id="svg4060"
   version="1.1"
   inkscape:version="0.47 r22583"
   sodipodi:docname="mill_probe_x_plus.svg">
  <defs
     id="defs4062">
    <inkscape:perspective
       sodipodi:type="inkscape:persp3d"
       inkscape:vp_x="0 : 526.18109 : 1"
       inkscape:vp_y="0 : 1000 : 0"
       inkscape:vp_z="744.09448 : 526.18109 : 1"
       inkscape:persp3d-origin="372.04724 : 350.78739 : 1"
       id="perspective4068" />
    <inkscape:perspective
       id="perspective4049"
       inkscape:persp3d-origin="0.5 : 0.33333333 : 1"
       inkscape:vp_z="1 : 0.5 : 1"
       inkscape:vp_y="0 : 1000 : 0"
       inkscape:vp_x="0 : 0.5 : 1"
       sodipodi:type="inkscape:persp3d" />
    <inkscape:perspective
       id="perspective4122"
       inkscape:persp3d-origin="0.5 : 0.33333333 : 1"
       inkscape:vp_z="1 : 0.5 : 1"
       inkscape:vp_y="0 : 1000 : 0"
       inkscape:vp_x="0 : 0.5 : 1"
       sodipodi:type="inkscape:persp3d" />
    <inkscape:perspective
       id="perspective4282"
       inkscape:persp3d-origin="0.5 : 0.33333333 : 1"
       inkscape:vp_z="1 : 0.5 : 1"
       inkscape:vp_y="0 : 1000 : 0"
       inkscape:vp_x="0 : 0.5 : 1"
       sodipodi:type="inkscape:persp3d" />
    <inkscape:perspective
       id="perspective4282-9"
       inkscape:persp3d-origin="0.5 : 0.33333333 : 1"
       inkscape:vp_z="1 : 0.5 : 1"
       inkscape:vp_y="0 : 1000 : 0"
       inkscape:vp_x="0 : 0.5 : 1"
       sodipodi:type="inkscape:persp3d" />
    <inkscape:perspective
       id="perspective4282-3"
       inkscape:persp3d-origin="0.5 : 0.33333333 : 1"
       inkscape:vp_z="1 : 0.5 : 1"
       inkscape:vp_y="0 : 1000 : 0"
       inkscape:vp_x="0 : 0.5 : 1"
       sodipodi:type="inkscape:persp3d" />
    <inkscape:perspective
       id="perspective6911"
       inkscape:persp3d-origin="0.5 : 0.33333333 : 1"
       inkscape:vp_z="1 : 0.5 : 1"
       inkscape:vp_y="0 : 1000 : 0"
       inkscape:vp_x="0 : 0.5 : 1"
       sodipodi:type="inkscape:persp3d" />
    <inkscape:perspective
       id="perspective6933"
       inkscape:persp3d-origin="0.5 : 0.33333333 : 1"
       inkscape:vp_z="1 : 0.5 : 1"
       inkscape:vp_y="0 : 1000 : 0"
       inkscape:vp_x="0 : 0.5 : 1"
       sodipodi:type="inkscape:persp3d" />
    <inkscape:perspective
       id="perspective6967"
       inkscape:persp3d-origin="0.5 : 0.33333333 : 1"
       inkscape:vp_z="1 : 0.5 : 1"
       inkscape:vp_y="0 : 1000 : 0"
       inkscape:vp_x="0 : 0.5 : 1"
       sodipodi:type="inkscape:persp3d" />
    <inkscape:perspective
       id="perspective6992"
       inkscape:persp3d-origin="0.5 : 0.33333333 : 1"
       inkscape:vp_z="1 : 0.5 : 1"
       inkscape:vp_y="0 : 1000 : 0"
       inkscape:vp_x="0 : 0.5 : 1"
       sodipodi:type="inkscape:persp3d" />
    <inkscape:perspective
       id="perspective7019"
       inkscape:persp3d-origin="0.5 : 0.33333333 : 1"
       inkscape:vp_z="1 : 0.5 : 1"
       inkscape:vp_y="0 : 1000 : 0"
       inkscape:vp_x="0 : 0.5 : 1"
       sodipodi:type="inkscape:persp3d" />
    <inkscape:perspective
       id="perspective7050"
       inkscape:persp3d-origin="0.5 : 0.33333333 : 1"
       inkscape:vp_z="1 : 0.5 : 1"
       inkscape:vp_y="0 : 1000 : 0"
       inkscape:vp_x="0 : 0.5 : 1"
       sodipodi:type="inkscape:persp3d" />
    <inkscape:perspective
       id="perspective7083"
       inkscape:persp3d-origin="0.5 : 0.33333333 : 1"
       inkscape:vp_z="1 : 0.5 : 1"
       inkscape:vp_y="0 : 1000 : 0"
       inkscape:vp_x="0 : 0.5 : 1"
       sodipodi:type="inkscape:persp3d" />
    <inkscape:perspective
       id="perspective7083-5"
       inkscape:persp3d-origin="0.5 : 0.33333333 : 1"
       inkscape:vp_z="1 : 0.5 : 1"
       inkscape:vp_y="0 : 1000 : 0"
       inkscape:vp_x="0 : 0.5 : 1"
       sodipodi:type="inkscape:persp3d" />
  </defs>
  <sodipodi:namedview
     id="base"
     pagecolor="#ffffff"
     bordercolor="#666666"
     borderopacity="1.0"
     inkscape:pageopacity="0.0"
     inkscape:pageshadow="2"
     inkscape:zoom="5.6568544"
     inkscape:cx="62.669847"
     inkscape:cy="35.833697"
     inkscape:document-units="px"
     inkscape:current-layer="layer5"
     showgrid="true"
     inkscape:window-width="1387"
     inkscape:window-height="820"
     inkscape:window-x="114"
     inkscape:window-y="102"
     inkscape:window-maximized="0">
    <inkscape:grid
       type="xygrid"
       id="grid4091"
       empspacing="4"
       dotted="true"
       visible="true"
       enabled="true"
       snapvisiblegridlinesonly="true"
       spacingx="2px"
       spacingy="2px" />
  </sodipodi:namedview>
  <metadata
     id="metadata4065">
    <rdf:RDF>
      <cc:Work
         rdf:about="">
        <dc:format>image/svg+xml</dc:format>
        <dc:type
           rdf:resource="http://purl.org/dc/dcmitype/StillImage" />
        <dc:title />
      </cc:Work>
    </rdf:RDF>
  </metadata>
  <g
     inkscape:groupmode="layer"
     id="layer5"
     inkscape:label="Background"
     style="display:none">
    <rect
       style="fill:#6a6a6a;fill-opacity:1;stroke:none"
       id="rect3193-0"
       width="71"
       height="71"
       x="736.86218"
       y="-251.49995"
       ry="0"
       transform="matrix(0,1,-1,0,-180.49995,-736.86218)" />
  </g>
  <g
     inkscape:label="Layer 1"
     inkscape:groupmode="layer"
     id="layer1"
     transform="translate(-180.49995,-736.86218)">
    <path
       style="fill:#55807c;fill-opacity:1;stroke:#ffffff;stroke-width:1.39999998;stroke-linecap:butt;stroke-linejoin:miter;stroke-miterlimit:4;stroke-opacity:1;stroke-dasharray:none"
       d="m 233.74996,804.25671 0,-64.34375 8.875,8.04297 1.10937,2.5134 c 0,0.16763 -0.13074,0.38429 0,0.50277 0.13074,0.11848 0.42395,-0.11848 0.55469,0 0.27734,0.25127 -0.27734,1.2567 0,1.50797 0.13074,0.11859 0.42395,-0.11837 0.55469,0 0.13074,0.11859 -0.0827,0.35278 0,0.50277 0.11694,0.21189 0.43774,0.29066 0.55468,0.50266 0.16538,0.29975 -0.26148,0.76835 0,1.00531 0.13074,0.1186 0.42395,-0.11837 0.55469,0 0.13074,0.1186 -0.0827,0.35279 0,0.50277 0.11694,0.21189 0.43775,0.29066 0.55469,0.50266 0.16537,0.29975 -0.26148,0.76835 0,1.00532 0.13074,0.11859 0.42395,-0.11837 0.55469,0 0.26148,0.23696 -0.26148,0.76846 0,1.00542 0.13074,0.11848 0.42394,-0.11848 0.55468,0 0.13348,0.12093 -0.13348,1.88982 0,2.01075 0.13074,0.11848 0.42395,-0.11849 0.55469,0 0.26148,0.23696 -0.26148,0.76835 0,1.00531 0.13074,0.11859 0.42395,-0.11837 0.55469,0 0.13074,0.11859 0,0.33514 0,0.50277 0,0.83769 0,1.6756 0,2.5134 0,0.22642 -0.0844,1.35499 0,1.50808 0.11694,0.21189 0.43775,0.29066 0.55469,0.50266 0.10028,0.18172 0,2.16373 0,2.5134 0,0.22643 0.0844,1.3551 0,1.50809 -0.11694,0.21189 -0.43775,0.29076 -0.55469,0.50265 -0.11845,0.21478 0,2.31483 0,2.5134 0,2.34589 0,4.69177 0,7.03766 0,0.16751 0,0.33503 0,0.50266 0,0.16762 0.13074,0.38428 0,0.50265 -0.13074,0.1186 -0.42395,-0.11837 -0.55469,0 -0.0179,0.0155 0,1.38617 0,1.50809 0,0.1846 -0.0223,1.99055 0,2.01074 0.13074,0.11848 0.42395,-0.11837 0.55469,0 0.26148,0.23696 -0.26148,0.76835 0,1.00543 0.13074,0.11848 0.42395,-0.11849 0.55469,0 0.13074,0.11848 -0.13074,0.38417 0,0.50265 0.13074,0.11849 0.42394,-0.11848 0.55468,0 0.0179,0.0155 0,1.38606 0,1.50809 0,1.84311 0,3.68634 0,5.52946 0,0.26292 0.0729,1.87861 0,2.01074 -0.11694,0.212 -0.36978,0.33514 -0.55468,0.50277 -0.1849,0.16751 -0.32081,0.3966 -0.55469,0.50265 -0.16538,0.0743 -0.42395,-0.11848 -0.55469,0 -1.14767,1.04004 1.75379,-0.041 -0.55469,1.00532 -0.76511,0.34679 -0.49615,-0.60871 -1.10937,0.50277 -0.0827,0.14988 0.13074,0.38418 0,0.50266 -0.13074,0.11848 -0.38931,-0.0743 -0.55469,0 -0.54582,0.24728 -1.67292,1.76335 -2.21875,2.01074 -0.16537,0.0743 -0.42395,-0.11848 -0.55469,0 -0.13074,0.11848 0.13074,0.38429 0,0.50266 -0.13074,0.11848 -0.42394,-0.11837 -0.55468,0 -0.13074,0.11848 0.13074,0.38428 0,0.50265 -0.13074,0.1186 -0.38932,-0.0743 -0.55469,0 -0.23388,0.1065 -0.32081,0.39672 -0.55469,0.50277 -0.16537,0.0743 -0.42395,-0.11848 -0.55469,0 -0.13074,0.11848 0.13074,0.38418 0,0.50266 -0.13074,0.11848 -0.38931,-0.0743 -0.55468,0 -0.23388,0.10539 -0.32081,0.39671 -0.55469,0.50266 -0.16538,0.0743 -0.42395,-0.11837 -0.55469,0 -0.13074,0.11848 0.13074,0.38429 0,0.50266 -0.1849,0.16762 -0.92447,-0.16752 -1.10937,0 -0.13074,0.11859 0.13074,0.38428 0,0.50277 -0.1849,0.16751 -0.92448,-0.16763 -1.10938,0 -0.13074,0.11848 0.13074,0.38417 0,0.50265 -0.0535,0.0488 -0.88494,-0.041 -1.10937,0 -0.74754,0.13546 -1.47917,0.33503 -2.21875,0.50266 z"
       id="path3967-5" />
    <path
       sodipodi:type="arc"
       style="fill:#c03050;fill-opacity:1;stroke:#ffffff;stroke-width:1.26197183;stroke-miterlimit:4;stroke-opacity:1;stroke-dasharray:none"
       id="path3969-6"
       sodipodi:cx="1560"
       sodipodi:cy="431"
       sodipodi:rx="8"
       sodipodi:ry="8"
       d="m 1568,431 a 8,8 0 1 1 -16,0 8,8 0 1 1 16,0 z"
       transform="matrix(0,1.109375,-1.109375,0,676.39058,-958.26282)" />
    <path
       style="fill:#ffffff;fill-opacity:1;stroke:#ffffff;stroke-width:1;stroke-linecap:butt;stroke-linejoin:miter;stroke-miterlimit:4;stroke-opacity:1;stroke-dasharray:none;display:inline"
       d="m 198.24996,772.36218 13.3125,-2.21875 0,4.4375 -13.3125,-2.21875 z"
       id="path5167-8-0-4-7-4-7-5"
       sodipodi:nodetypes="cccc" />
    <path
       style="fill:#ffffff;fill-opacity:1;stroke:#ffffff;stroke-width:1;stroke-linecap:butt;stroke-linejoin:miter;stroke-miterlimit:4;stroke-opacity:1;stroke-dasharray:none;display:inline"
       d="m 233.74996,772.36218 -13.3125,2.21875 0,-4.4375 13.3125,2.21875 z"
       id="path5167-8-0-4-7-4-7-2-8"
       sodipodi:nodetypes="cccc" />
    <path
       style="fill:none;stroke:#ffffff;stroke-width:1px;stroke-linecap:butt;stroke-linejoin:miter;stroke-opacity:1"
       d="m 198.24996,754.61218 0,35.5 0,0"
       id="path4037-5" />
    <path
       style="fill:#ffffff;stroke:#ffffff;stroke-width:1px;stroke-linecap:butt;stroke-linejoin:miter;stroke-opacity:1"
       d="m 233.74996,772.36218 -51.03125,0"
       id="path4039-8" />
  </g>
</svg>
