<?xml version="1.0" encoding="UTF-8" standalone="no"?>
<!-- Created with Inkscape (http://www.inkscape.org/) -->

<svg
   xmlns:dc="http://purl.org/dc/elements/1.1/"
   xmlns:cc="http://creativecommons.org/ns#"
   xmlns:rdf="http://www.w3.org/1999/02/22-rdf-syntax-ns#"
   xmlns:svg="http://www.w3.org/2000/svg"
   xmlns="http://www.w3.org/2000/svg"
   xmlns:sodipodi="http://sodipodi.sourceforge.net/DTD/sodipodi-0.dtd"
   xmlns:inkscape="http://www.inkscape.org/namespaces/inkscape"
   width="128.26305"
   height="85.430046"
   id="svg4060"
   version="1.1"
   inkscape:version="0.47 r22583"
   sodipodi:docname="probe_find_pocket_x_center.svg">
  <defs
     id="defs4062">
    <inkscape:perspective
       sodipodi:type="inkscape:persp3d"
       inkscape:vp_x="0 : 526.18109 : 1"
       inkscape:vp_y="0 : 1000 : 0"
       inkscape:vp_z="744.09448 : 526.18109 : 1"
       inkscape:persp3d-origin="372.04724 : 350.78739 : 1"
       id="perspective4068" />
    <inkscape:perspective
       id="perspective4049"
       inkscape:persp3d-origin="0.5 : 0.33333333 : 1"
       inkscape:vp_z="1 : 0.5 : 1"
       inkscape:vp_y="0 : 1000 : 0"
       inkscape:vp_x="0 : 0.5 : 1"
       sodipodi:type="inkscape:persp3d" />
    <inkscape:perspective
       id="perspective4122"
       inkscape:persp3d-origin="0.5 : 0.33333333 : 1"
       inkscape:vp_z="1 : 0.5 : 1"
       inkscape:vp_y="0 : 1000 : 0"
       inkscape:vp_x="0 : 0.5 : 1"
       sodipodi:type="inkscape:persp3d" />
    <inkscape:perspective
       id="perspective4282"
       inkscape:persp3d-origin="0.5 : 0.33333333 : 1"
       inkscape:vp_z="1 : 0.5 : 1"
       inkscape:vp_y="0 : 1000 : 0"
       inkscape:vp_x="0 : 0.5 : 1"
       sodipodi:type="inkscape:persp3d" />
    <inkscape:perspective
       id="perspective4282-9"
       inkscape:persp3d-origin="0.5 : 0.33333333 : 1"
       inkscape:vp_z="1 : 0.5 : 1"
       inkscape:vp_y="0 : 1000 : 0"
       inkscape:vp_x="0 : 0.5 : 1"
       sodipodi:type="inkscape:persp3d" />
    <inkscape:perspective
       id="perspective4282-3"
       inkscape:persp3d-origin="0.5 : 0.33333333 : 1"
       inkscape:vp_z="1 : 0.5 : 1"
       inkscape:vp_y="0 : 1000 : 0"
       inkscape:vp_x="0 : 0.5 : 1"
       sodipodi:type="inkscape:persp3d" />
    <inkscape:perspective
       id="perspective6911"
       inkscape:persp3d-origin="0.5 : 0.33333333 : 1"
       inkscape:vp_z="1 : 0.5 : 1"
       inkscape:vp_y="0 : 1000 : 0"
       inkscape:vp_x="0 : 0.5 : 1"
       sodipodi:type="inkscape:persp3d" />
    <inkscape:perspective
       id="perspective6933"
       inkscape:persp3d-origin="0.5 : 0.33333333 : 1"
       inkscape:vp_z="1 : 0.5 : 1"
       inkscape:vp_y="0 : 1000 : 0"
       inkscape:vp_x="0 : 0.5 : 1"
       sodipodi:type="inkscape:persp3d" />
    <inkscape:perspective
       id="perspective6967"
       inkscape:persp3d-origin="0.5 : 0.33333333 : 1"
       inkscape:vp_z="1 : 0.5 : 1"
       inkscape:vp_y="0 : 1000 : 0"
       inkscape:vp_x="0 : 0.5 : 1"
       sodipodi:type="inkscape:persp3d" />
    <inkscape:perspective
       id="perspective6992"
       inkscape:persp3d-origin="0.5 : 0.33333333 : 1"
       inkscape:vp_z="1 : 0.5 : 1"
       inkscape:vp_y="0 : 1000 : 0"
       inkscape:vp_x="0 : 0.5 : 1"
       sodipodi:type="inkscape:persp3d" />
    <inkscape:perspective
       id="perspective7019"
       inkscape:persp3d-origin="0.5 : 0.33333333 : 1"
       inkscape:vp_z="1 : 0.5 : 1"
       inkscape:vp_y="0 : 1000 : 0"
       inkscape:vp_x="0 : 0.5 : 1"
       sodipodi:type="inkscape:persp3d" />
    <inkscape:perspective
       id="perspective7050"
       inkscape:persp3d-origin="0.5 : 0.33333333 : 1"
       inkscape:vp_z="1 : 0.5 : 1"
       inkscape:vp_y="0 : 1000 : 0"
       inkscape:vp_x="0 : 0.5 : 1"
       sodipodi:type="inkscape:persp3d" />
    <inkscape:perspective
       id="perspective7083"
       inkscape:persp3d-origin="0.5 : 0.33333333 : 1"
       inkscape:vp_z="1 : 0.5 : 1"
       inkscape:vp_y="0 : 1000 : 0"
       inkscape:vp_x="0 : 0.5 : 1"
       sodipodi:type="inkscape:persp3d" />
    <inkscape:perspective
       id="perspective7083-5"
       inkscape:persp3d-origin="0.5 : 0.33333333 : 1"
       inkscape:vp_z="1 : 0.5 : 1"
       inkscape:vp_y="0 : 1000 : 0"
       inkscape:vp_x="0 : 0.5 : 1"
       sodipodi:type="inkscape:persp3d" />
    <inkscape:perspective
       id="perspective2923"
       inkscape:persp3d-origin="0.5 : 0.33333333 : 1"
       inkscape:vp_z="1 : 0.5 : 1"
       inkscape:vp_y="0 : 1000 : 0"
       inkscape:vp_x="0 : 0.5 : 1"
       sodipodi:type="inkscape:persp3d" />
    <inkscape:perspective
       id="perspective2923-6"
       inkscape:persp3d-origin="0.5 : 0.33333333 : 1"
       inkscape:vp_z="1 : 0.5 : 1"
       inkscape:vp_y="0 : 1000 : 0"
       inkscape:vp_x="0 : 0.5 : 1"
       sodipodi:type="inkscape:persp3d" />
    <inkscape:perspective
       id="perspective4320"
       inkscape:persp3d-origin="0.5 : 0.33333333 : 1"
       inkscape:vp_z="1 : 0.5 : 1"
       inkscape:vp_y="0 : 1000 : 0"
       inkscape:vp_x="0 : 0.5 : 1"
       sodipodi:type="inkscape:persp3d" />
    <inkscape:perspective
       id="perspective4342"
       inkscape:persp3d-origin="0.5 : 0.33333333 : 1"
       inkscape:vp_z="1 : 0.5 : 1"
       inkscape:vp_y="0 : 1000 : 0"
       inkscape:vp_x="0 : 0.5 : 1"
       sodipodi:type="inkscape:persp3d" />
    <inkscape:perspective
       id="perspective4364"
       inkscape:persp3d-origin="0.5 : 0.33333333 : 1"
       inkscape:vp_z="1 : 0.5 : 1"
       inkscape:vp_y="0 : 1000 : 0"
       inkscape:vp_x="0 : 0.5 : 1"
       sodipodi:type="inkscape:persp3d" />
    <inkscape:perspective
       id="perspective4386"
       inkscape:persp3d-origin="0.5 : 0.33333333 : 1"
       inkscape:vp_z="1 : 0.5 : 1"
       inkscape:vp_y="0 : 1000 : 0"
       inkscape:vp_x="0 : 0.5 : 1"
       sodipodi:type="inkscape:persp3d" />
    <inkscape:perspective
       id="perspective4417"
       inkscape:persp3d-origin="0.5 : 0.33333333 : 1"
       inkscape:vp_z="1 : 0.5 : 1"
       inkscape:vp_y="0 : 1000 : 0"
       inkscape:vp_x="0 : 0.5 : 1"
       sodipodi:type="inkscape:persp3d" />
    <inkscape:perspective
       id="perspective4448"
       inkscape:persp3d-origin="0.5 : 0.33333333 : 1"
       inkscape:vp_z="1 : 0.5 : 1"
       inkscape:vp_y="0 : 1000 : 0"
       inkscape:vp_x="0 : 0.5 : 1"
       sodipodi:type="inkscape:persp3d" />
    <inkscape:perspective
       id="perspective4513"
       inkscape:persp3d-origin="0.5 : 0.33333333 : 1"
       inkscape:vp_z="1 : 0.5 : 1"
       inkscape:vp_y="0 : 1000 : 0"
       inkscape:vp_x="0 : 0.5 : 1"
       sodipodi:type="inkscape:persp3d" />
    <inkscape:perspective
       id="perspective4543"
       inkscape:persp3d-origin="0.5 : 0.33333333 : 1"
       inkscape:vp_z="1 : 0.5 : 1"
       inkscape:vp_y="0 : 1000 : 0"
       inkscape:vp_x="0 : 0.5 : 1"
       sodipodi:type="inkscape:persp3d" />
    <inkscape:perspective
       id="perspective4565"
       inkscape:persp3d-origin="0.5 : 0.33333333 : 1"
       inkscape:vp_z="1 : 0.5 : 1"
       inkscape:vp_y="0 : 1000 : 0"
       inkscape:vp_x="0 : 0.5 : 1"
       sodipodi:type="inkscape:persp3d" />
    <inkscape:perspective
       id="perspective4641"
       inkscape:persp3d-origin="0.5 : 0.33333333 : 1"
       inkscape:vp_z="1 : 0.5 : 1"
       inkscape:vp_y="0 : 1000 : 0"
       inkscape:vp_x="0 : 0.5 : 1"
       sodipodi:type="inkscape:persp3d" />
    <inkscape:perspective
       id="perspective4641-9"
       inkscape:persp3d-origin="0.5 : 0.33333333 : 1"
       inkscape:vp_z="1 : 0.5 : 1"
       inkscape:vp_y="0 : 1000 : 0"
       inkscape:vp_x="0 : 0.5 : 1"
       sodipodi:type="inkscape:persp3d" />
    <inkscape:perspective
       id="perspective4672"
       inkscape:persp3d-origin="0.5 : 0.33333333 : 1"
       inkscape:vp_z="1 : 0.5 : 1"
       inkscape:vp_y="0 : 1000 : 0"
       inkscape:vp_x="0 : 0.5 : 1"
       sodipodi:type="inkscape:persp3d" />
    <inkscape:perspective
       id="perspective4672-8"
       inkscape:persp3d-origin="0.5 : 0.33333333 : 1"
       inkscape:vp_z="1 : 0.5 : 1"
       inkscape:vp_y="0 : 1000 : 0"
       inkscape:vp_x="0 : 0.5 : 1"
       sodipodi:type="inkscape:persp3d" />
    <inkscape:perspective
       id="perspective4703"
       inkscape:persp3d-origin="0.5 : 0.33333333 : 1"
       inkscape:vp_z="1 : 0.5 : 1"
       inkscape:vp_y="0 : 1000 : 0"
       inkscape:vp_x="0 : 0.5 : 1"
       sodipodi:type="inkscape:persp3d" />
    <inkscape:perspective
       id="perspective4725"
       inkscape:persp3d-origin="0.5 : 0.33333333 : 1"
       inkscape:vp_z="1 : 0.5 : 1"
       inkscape:vp_y="0 : 1000 : 0"
       inkscape:vp_x="0 : 0.5 : 1"
       sodipodi:type="inkscape:persp3d" />
    <inkscape:perspective
       id="perspective4725-8"
       inkscape:persp3d-origin="0.5 : 0.33333333 : 1"
       inkscape:vp_z="1 : 0.5 : 1"
       inkscape:vp_y="0 : 1000 : 0"
       inkscape:vp_x="0 : 0.5 : 1"
       sodipodi:type="inkscape:persp3d" />
    <inkscape:perspective
       id="perspective4756"
       inkscape:persp3d-origin="0.5 : 0.33333333 : 1"
       inkscape:vp_z="1 : 0.5 : 1"
       inkscape:vp_y="0 : 1000 : 0"
       inkscape:vp_x="0 : 0.5 : 1"
       sodipodi:type="inkscape:persp3d" />
    <inkscape:perspective
       id="perspective4778"
       inkscape:persp3d-origin="0.5 : 0.33333333 : 1"
       inkscape:vp_z="1 : 0.5 : 1"
       inkscape:vp_y="0 : 1000 : 0"
       inkscape:vp_x="0 : 0.5 : 1"
       sodipodi:type="inkscape:persp3d" />
    <inkscape:perspective
       id="perspective4800"
       inkscape:persp3d-origin="0.5 : 0.33333333 : 1"
       inkscape:vp_z="1 : 0.5 : 1"
       inkscape:vp_y="0 : 1000 : 0"
       inkscape:vp_x="0 : 0.5 : 1"
       sodipodi:type="inkscape:persp3d" />
    <inkscape:perspective
       id="perspective4835"
       inkscape:persp3d-origin="0.5 : 0.33333333 : 1"
       inkscape:vp_z="1 : 0.5 : 1"
       inkscape:vp_y="0 : 1000 : 0"
       inkscape:vp_x="0 : 0.5 : 1"
       sodipodi:type="inkscape:persp3d" />
    <inkscape:perspective
       id="perspective4857"
       inkscape:persp3d-origin="0.5 : 0.33333333 : 1"
       inkscape:vp_z="1 : 0.5 : 1"
       inkscape:vp_y="0 : 1000 : 0"
       inkscape:vp_x="0 : 0.5 : 1"
       sodipodi:type="inkscape:persp3d" />
    <inkscape:perspective
       id="perspective4879"
       inkscape:persp3d-origin="0.5 : 0.33333333 : 1"
       inkscape:vp_z="1 : 0.5 : 1"
       inkscape:vp_y="0 : 1000 : 0"
       inkscape:vp_x="0 : 0.5 : 1"
       sodipodi:type="inkscape:persp3d" />
    <inkscape:perspective
       id="perspective4901"
       inkscape:persp3d-origin="0.5 : 0.33333333 : 1"
       inkscape:vp_z="1 : 0.5 : 1"
       inkscape:vp_y="0 : 1000 : 0"
       inkscape:vp_x="0 : 0.5 : 1"
       sodipodi:type="inkscape:persp3d" />
    <inkscape:perspective
       id="perspective4923"
       inkscape:persp3d-origin="0.5 : 0.33333333 : 1"
       inkscape:vp_z="1 : 0.5 : 1"
       inkscape:vp_y="0 : 1000 : 0"
       inkscape:vp_x="0 : 0.5 : 1"
       sodipodi:type="inkscape:persp3d" />
    <inkscape:perspective
       id="perspective4945"
       inkscape:persp3d-origin="0.5 : 0.33333333 : 1"
       inkscape:vp_z="1 : 0.5 : 1"
       inkscape:vp_y="0 : 1000 : 0"
       inkscape:vp_x="0 : 0.5 : 1"
       sodipodi:type="inkscape:persp3d" />
    <inkscape:perspective
       id="perspective4945-9"
       inkscape:persp3d-origin="0.5 : 0.33333333 : 1"
       inkscape:vp_z="1 : 0.5 : 1"
       inkscape:vp_y="0 : 1000 : 0"
       inkscape:vp_x="0 : 0.5 : 1"
       sodipodi:type="inkscape:persp3d" />
    <inkscape:perspective
       id="perspective4976"
       inkscape:persp3d-origin="0.5 : 0.33333333 : 1"
       inkscape:vp_z="1 : 0.5 : 1"
       inkscape:vp_y="0 : 1000 : 0"
       inkscape:vp_x="0 : 0.5 : 1"
       sodipodi:type="inkscape:persp3d" />
    <inkscape:perspective
       id="perspective4976-1"
       inkscape:persp3d-origin="0.5 : 0.33333333 : 1"
       inkscape:vp_z="1 : 0.5 : 1"
       inkscape:vp_y="0 : 1000 : 0"
       inkscape:vp_x="0 : 0.5 : 1"
       sodipodi:type="inkscape:persp3d" />
    <inkscape:perspective
       id="perspective2939"
       inkscape:persp3d-origin="0.5 : 0.33333333 : 1"
       inkscape:vp_z="1 : 0.5 : 1"
       inkscape:vp_y="0 : 1000 : 0"
       inkscape:vp_x="0 : 0.5 : 1"
       sodipodi:type="inkscape:persp3d" />
    <inkscape:perspective
       id="perspective3735"
       inkscape:persp3d-origin="0.5 : 0.33333333 : 1"
       inkscape:vp_z="1 : 0.5 : 1"
       inkscape:vp_y="0 : 1000 : 0"
       inkscape:vp_x="0 : 0.5 : 1"
       sodipodi:type="inkscape:persp3d" />
    <inkscape:perspective
       id="perspective3763"
       inkscape:persp3d-origin="0.5 : 0.33333333 : 1"
       inkscape:vp_z="1 : 0.5 : 1"
       inkscape:vp_y="0 : 1000 : 0"
       inkscape:vp_x="0 : 0.5 : 1"
       sodipodi:type="inkscape:persp3d" />
    <inkscape:perspective
       id="perspective3785"
       inkscape:persp3d-origin="0.5 : 0.33333333 : 1"
       inkscape:vp_z="1 : 0.5 : 1"
       inkscape:vp_y="0 : 1000 : 0"
       inkscape:vp_x="0 : 0.5 : 1"
       sodipodi:type="inkscape:persp3d" />
    <inkscape:perspective
       id="perspective3785-2"
       inkscape:persp3d-origin="0.5 : 0.33333333 : 1"
       inkscape:vp_z="1 : 0.5 : 1"
       inkscape:vp_y="0 : 1000 : 0"
       inkscape:vp_x="0 : 0.5 : 1"
       sodipodi:type="inkscape:persp3d" />
    <inkscape:perspective
       id="perspective3821"
       inkscape:persp3d-origin="0.5 : 0.33333333 : 1"
       inkscape:vp_z="1 : 0.5 : 1"
       inkscape:vp_y="0 : 1000 : 0"
       inkscape:vp_x="0 : 0.5 : 1"
       sodipodi:type="inkscape:persp3d" />
    <inkscape:perspective
       id="perspective3846"
       inkscape:persp3d-origin="0.5 : 0.33333333 : 1"
       inkscape:vp_z="1 : 0.5 : 1"
       inkscape:vp_y="0 : 1000 : 0"
       inkscape:vp_x="0 : 0.5 : 1"
       sodipodi:type="inkscape:persp3d" />
    <inkscape:perspective
       id="perspective3871"
       inkscape:persp3d-origin="0.5 : 0.33333333 : 1"
       inkscape:vp_z="1 : 0.5 : 1"
       inkscape:vp_y="0 : 1000 : 0"
       inkscape:vp_x="0 : 0.5 : 1"
       sodipodi:type="inkscape:persp3d" />
    <inkscape:perspective
       id="perspective3893"
       inkscape:persp3d-origin="0.5 : 0.33333333 : 1"
       inkscape:vp_z="1 : 0.5 : 1"
       inkscape:vp_y="0 : 1000 : 0"
       inkscape:vp_x="0 : 0.5 : 1"
       sodipodi:type="inkscape:persp3d" />
    <inkscape:perspective
       id="perspective3951"
       inkscape:persp3d-origin="0.5 : 0.33333333 : 1"
       inkscape:vp_z="1 : 0.5 : 1"
       inkscape:vp_y="0 : 1000 : 0"
       inkscape:vp_x="0 : 0.5 : 1"
       sodipodi:type="inkscape:persp3d" />
    <inkscape:perspective
       id="perspective3973"
       inkscape:persp3d-origin="0.5 : 0.33333333 : 1"
       inkscape:vp_z="1 : 0.5 : 1"
       inkscape:vp_y="0 : 1000 : 0"
       inkscape:vp_x="0 : 0.5 : 1"
       sodipodi:type="inkscape:persp3d" />
    <inkscape:perspective
       id="perspective3995"
       inkscape:persp3d-origin="0.5 : 0.33333333 : 1"
       inkscape:vp_z="1 : 0.5 : 1"
       inkscape:vp_y="0 : 1000 : 0"
       inkscape:vp_x="0 : 0.5 : 1"
       sodipodi:type="inkscape:persp3d" />
    <inkscape:perspective
       id="perspective4017"
       inkscape:persp3d-origin="0.5 : 0.33333333 : 1"
       inkscape:vp_z="1 : 0.5 : 1"
       inkscape:vp_y="0 : 1000 : 0"
       inkscape:vp_x="0 : 0.5 : 1"
       sodipodi:type="inkscape:persp3d" />
    <inkscape:perspective
       id="perspective4039"
       inkscape:persp3d-origin="0.5 : 0.33333333 : 1"
       inkscape:vp_z="1 : 0.5 : 1"
       inkscape:vp_y="0 : 1000 : 0"
       inkscape:vp_x="0 : 0.5 : 1"
       sodipodi:type="inkscape:persp3d" />
    <inkscape:perspective
       id="perspective4061"
       inkscape:persp3d-origin="0.5 : 0.33333333 : 1"
       inkscape:vp_z="1 : 0.5 : 1"
       inkscape:vp_y="0 : 1000 : 0"
       inkscape:vp_x="0 : 0.5 : 1"
       sodipodi:type="inkscape:persp3d" />
    <inkscape:perspective
       id="perspective3169"
       inkscape:persp3d-origin="0.5 : 0.33333333 : 1"
       inkscape:vp_z="1 : 0.5 : 1"
       inkscape:vp_y="0 : 1000 : 0"
       inkscape:vp_x="0 : 0.5 : 1"
       sodipodi:type="inkscape:persp3d" />
    <clipPath
       clipPathUnits="userSpaceOnUse"
       id="clipPath4135">
      <path
         style="fill:#ffffff;fill-opacity:1;stroke:#ffffff;stroke-width:1.39999998;stroke-linecap:round;stroke-linejoin:round;stroke-miterlimit:4;stroke-opacity:1;stroke-dasharray:none;display:inline"
         d="m 161.58893,728.99922 c -0.32459,-0.17487 -1.59667,-0.32007 -2.82684,-0.32266 -1.23017,-0.003 -2.69296,-0.14057 -3.25065,-0.3066 -0.55767,-0.16603 -4.24297,-0.44444 -8.18954,-0.61869 -9.64402,-0.42581 -15.75171,-0.8977 -16.20509,-1.25202 -0.20558,-0.16065 -0.86697,-0.2921 -1.46977,-0.2921 -1.15957,0 -3.18806,-0.34872 -7.44479,-1.27983 -1.42988,-0.31277 -2.97695,-0.56868 -3.43791,-0.56868 -0.46097,0 -2.49626,-0.41591 -4.52287,-0.92426 -2.0266,-0.50834 -4.33871,-0.92426 -5.13799,-0.92426 -0.95525,0 -2.43588,-0.42229 -4.32074,-1.23234 -1.57712,-0.67778 -3.17496,-1.23234 -3.55075,-1.23234 -0.79519,0 -3.748928,-1.28147 -5.766568,-2.50181 -0.77121,-0.46645 -1.87767,-1.01774 -2.4588,-1.22508 -1.76983,-0.63144 -6.56522,-6.04845 -6.56522,-7.41624 0,-0.2316 -0.48689,-0.97316 -1.08197,-1.64792 -1.05855,-1.20028 -1.08197,-1.32353 -1.08197,-5.69408 0,-4.18098 0.0945,-4.74685 1.47541,-8.83092 l 1.47541,-4.36368 0,-9.24896 c 0,-10.72986 0.17464,-11.68664 3.10138,-16.99138 3.2163,-5.8296 5.46669,-8.7873 7.44609,-9.78645 0.5823,-0.29392 1.41398,-0.77263 1.84817,-1.06377 1.747928,-1.17207 5.402818,-2.67019 7.285798,-2.98641 4.16359,-0.69921 18.86304,-0.10063 25.76118,1.04902 1.51476,0.25244 4.08197,0.48729 5.70492,0.52188 4.71632,0.10049 13.20326,-0.87697 14.34099,-1.65169 0.20557,-0.13998 0.77053,-0.25452 1.25546,-0.25452 0.48494,0 0.99113,-0.13864 1.12487,-0.30808 0.13373,-0.16945 0.66057,-0.30809 1.17075,-0.30809 0.51019,0 0.98661,-0.10988 1.05875,-0.24419 0.0721,-0.13429 0.78302,-0.55568 1.57975,-0.9364 1.31584,-0.62878 2.10906,-0.70901 8.65573,-0.87537 8.6191,-0.21903 17.02744,0.26023 20.74698,1.18255 1.42522,0.35341 5.33557,1.69891 8.68967,2.99001 4.75748,1.8313 6.55253,2.69902 8.16394,3.9464 l 2.06557,1.59896 0.004,3.02392 c 0.004,1.66316 -0.20338,7.62123 -0.45798,13.24017 -0.50792,11.20971 -0.35759,12.59278 1.88664,17.35741 2.54449,5.40217 2.57276,5.5064 2.43504,8.97899 -0.10982,2.76919 -0.26386,3.44151 -0.9555,4.17018 -0.9283,0.978 -3.1256,2.24949 -5.47051,3.16556 -1.77663,0.69408 -3.92172,2.31681 -6.9416,5.25126 -1.13348,1.1014 -2.65987,2.48778 -3.39199,3.08085 -0.73211,0.59307 -1.60083,1.47875 -1.93048,1.96819 -0.32964,0.48944 -1.95427,2.13118 -3.61027,3.64833 -1.656,1.51713 -3.4361,3.26558 -3.95577,3.88542 -0.51969,0.61986 -1.13659,1.18405 -1.37088,1.25377 -0.23429,0.0697 -1.49106,1.02531 -2.79283,2.12353 -1.30176,1.09822 -2.98651,2.21024 -3.74388,2.47113 -1.68483,0.58036 -14.38878,0.89604 -15.34427,0.38129 l 1e-5,0 z"
         id="path4137" />
    </clipPath>
    <clipPath
       clipPathUnits="userSpaceOnUse"
       id="clipPath4139">
      <path
         style="fill:#ffffff;fill-opacity:1;stroke:#ffffff;stroke-width:1.39999998;stroke-linecap:round;stroke-linejoin:round;stroke-miterlimit:4;stroke-opacity:1;stroke-dasharray:none;display:inline"
         d="m 161.58893,728.99922 c -0.32459,-0.17487 -1.59667,-0.32007 -2.82684,-0.32266 -1.23017,-0.003 -2.69296,-0.14057 -3.25065,-0.3066 -0.55767,-0.16603 -4.24297,-0.44444 -8.18954,-0.61869 -9.64402,-0.42581 -15.75171,-0.8977 -16.20509,-1.25202 -0.20558,-0.16065 -0.86697,-0.2921 -1.46977,-0.2921 -1.15957,0 -3.18806,-0.34872 -7.44479,-1.27983 -1.42988,-0.31277 -2.97695,-0.56868 -3.43791,-0.56868 -0.46097,0 -2.49626,-0.41591 -4.52287,-0.92426 -2.0266,-0.50834 -4.33871,-0.92426 -5.13799,-0.92426 -0.95525,0 -2.43588,-0.42229 -4.32074,-1.23234 -1.57712,-0.67778 -3.17496,-1.23234 -3.55075,-1.23234 -0.79519,0 -3.748928,-1.28147 -5.766568,-2.50181 -0.77121,-0.46645 -1.87767,-1.01774 -2.4588,-1.22508 -1.76983,-0.63144 -6.56522,-6.04845 -6.56522,-7.41624 0,-0.2316 -0.48689,-0.97316 -1.08197,-1.64792 -1.05855,-1.20028 -1.08197,-1.32353 -1.08197,-5.69408 0,-4.18098 0.0945,-4.74685 1.47541,-8.83092 l 1.47541,-4.36368 0,-9.24896 c 0,-10.72986 0.17464,-11.68664 3.10138,-16.99138 3.2163,-5.8296 5.46669,-8.7873 7.44609,-9.78645 0.5823,-0.29392 1.41398,-0.77263 1.84817,-1.06377 1.747928,-1.17207 5.402818,-2.67019 7.285798,-2.98641 4.16359,-0.69921 18.86304,-0.10063 25.76118,1.04902 1.51476,0.25244 4.08197,0.48729 5.70492,0.52188 4.71632,0.10049 13.20326,-0.87697 14.34099,-1.65169 0.20557,-0.13998 0.77053,-0.25452 1.25546,-0.25452 0.48494,0 0.99113,-0.13864 1.12487,-0.30808 0.13373,-0.16945 0.66057,-0.30809 1.17075,-0.30809 0.51019,0 0.98661,-0.10988 1.05875,-0.24419 0.0721,-0.13429 0.78302,-0.55568 1.57975,-0.9364 1.31584,-0.62878 2.10906,-0.70901 8.65573,-0.87537 8.6191,-0.21903 17.02744,0.26023 20.74698,1.18255 1.42522,0.35341 5.33557,1.69891 8.68967,2.99001 4.75748,1.8313 6.55253,2.69902 8.16394,3.9464 l 2.06557,1.59896 0.004,3.02392 c 0.004,1.66316 -0.20338,7.62123 -0.45798,13.24017 -0.50792,11.20971 -0.35759,12.59278 1.88664,17.35741 2.54449,5.40217 2.57276,5.5064 2.43504,8.97899 -0.10982,2.76919 -0.26386,3.44151 -0.9555,4.17018 -0.9283,0.978 -3.1256,2.24949 -5.47051,3.16556 -1.77663,0.69408 -3.92172,2.31681 -6.9416,5.25126 -1.13348,1.1014 -2.65987,2.48778 -3.39199,3.08085 -0.73211,0.59307 -1.60083,1.47875 -1.93048,1.96819 -0.32964,0.48944 -1.95427,2.13118 -3.61027,3.64833 -1.656,1.51713 -3.4361,3.26558 -3.95577,3.88542 -0.51969,0.61986 -1.13659,1.18405 -1.37088,1.25377 -0.23429,0.0697 -1.49106,1.02531 -2.79283,2.12353 -1.30176,1.09822 -2.98651,2.21024 -3.74388,2.47113 -1.68483,0.58036 -14.38878,0.89604 -15.34427,0.38129 l 1e-5,0 z"
         id="path4141" />
    </clipPath>
    <clipPath
       clipPathUnits="userSpaceOnUse"
       id="clipPath4143">
      <path
         style="fill:#ffffff;fill-opacity:1;stroke:#ffffff;stroke-width:1.39999998;stroke-linecap:round;stroke-linejoin:round;stroke-miterlimit:4;stroke-opacity:1;stroke-dasharray:none;display:inline"
         d="m 161.58893,728.99922 c -0.32459,-0.17487 -1.59667,-0.32007 -2.82684,-0.32266 -1.23017,-0.003 -2.69296,-0.14057 -3.25065,-0.3066 -0.55767,-0.16603 -4.24297,-0.44444 -8.18954,-0.61869 -9.64402,-0.42581 -15.75171,-0.8977 -16.20509,-1.25202 -0.20558,-0.16065 -0.86697,-0.2921 -1.46977,-0.2921 -1.15957,0 -3.18806,-0.34872 -7.44479,-1.27983 -1.42988,-0.31277 -2.97695,-0.56868 -3.43791,-0.56868 -0.46097,0 -2.49626,-0.41591 -4.52287,-0.92426 -2.0266,-0.50834 -4.33871,-0.92426 -5.13799,-0.92426 -0.95525,0 -2.43588,-0.42229 -4.32074,-1.23234 -1.57712,-0.67778 -3.17496,-1.23234 -3.55075,-1.23234 -0.79519,0 -3.748928,-1.28147 -5.766568,-2.50181 -0.77121,-0.46645 -1.87767,-1.01774 -2.4588,-1.22508 -1.76983,-0.63144 -6.56522,-6.04845 -6.56522,-7.41624 0,-0.2316 -0.48689,-0.97316 -1.08197,-1.64792 -1.05855,-1.20028 -1.08197,-1.32353 -1.08197,-5.69408 0,-4.18098 0.0945,-4.74685 1.47541,-8.83092 l 1.47541,-4.36368 0,-9.24896 c 0,-10.72986 0.17464,-11.68664 3.10138,-16.99138 3.2163,-5.8296 5.46669,-8.7873 7.44609,-9.78645 0.5823,-0.29392 1.41398,-0.77263 1.84817,-1.06377 1.747928,-1.17207 5.402818,-2.67019 7.285798,-2.98641 4.16359,-0.69921 18.86304,-0.10063 25.76118,1.04902 1.51476,0.25244 4.08197,0.48729 5.70492,0.52188 4.71632,0.10049 13.20326,-0.87697 14.34099,-1.65169 0.20557,-0.13998 0.77053,-0.25452 1.25546,-0.25452 0.48494,0 0.99113,-0.13864 1.12487,-0.30808 0.13373,-0.16945 0.66057,-0.30809 1.17075,-0.30809 0.51019,0 0.98661,-0.10988 1.05875,-0.24419 0.0721,-0.13429 0.78302,-0.55568 1.57975,-0.9364 1.31584,-0.62878 2.10906,-0.70901 8.65573,-0.87537 8.6191,-0.21903 17.02744,0.26023 20.74698,1.18255 1.42522,0.35341 5.33557,1.69891 8.68967,2.99001 4.75748,1.8313 6.55253,2.69902 8.16394,3.9464 l 2.06557,1.59896 0.004,3.02392 c 0.004,1.66316 -0.20338,7.62123 -0.45798,13.24017 -0.50792,11.20971 -0.35759,12.59278 1.88664,17.35741 2.54449,5.40217 2.57276,5.5064 2.43504,8.97899 -0.10982,2.76919 -0.26386,3.44151 -0.9555,4.17018 -0.9283,0.978 -3.1256,2.24949 -5.47051,3.16556 -1.77663,0.69408 -3.92172,2.31681 -6.9416,5.25126 -1.13348,1.1014 -2.65987,2.48778 -3.39199,3.08085 -0.73211,0.59307 -1.60083,1.47875 -1.93048,1.96819 -0.32964,0.48944 -1.95427,2.13118 -3.61027,3.64833 -1.656,1.51713 -3.4361,3.26558 -3.95577,3.88542 -0.51969,0.61986 -1.13659,1.18405 -1.37088,1.25377 -0.23429,0.0697 -1.49106,1.02531 -2.79283,2.12353 -1.30176,1.09822 -2.98651,2.21024 -3.74388,2.47113 -1.68483,0.58036 -14.38878,0.89604 -15.34427,0.38129 l 1e-5,0 z"
         id="path4145" />
    </clipPath>
    <clipPath
       clipPathUnits="userSpaceOnUse"
       id="clipPath4147">
      <path
         style="fill:#ffffff;fill-opacity:1;stroke:#ffffff;stroke-width:1.39999998;stroke-linecap:round;stroke-linejoin:round;stroke-miterlimit:4;stroke-opacity:1;stroke-dasharray:none;display:inline"
         d="m 161.58893,728.99922 c -0.32459,-0.17487 -1.59667,-0.32007 -2.82684,-0.32266 -1.23017,-0.003 -2.69296,-0.14057 -3.25065,-0.3066 -0.55767,-0.16603 -4.24297,-0.44444 -8.18954,-0.61869 -9.64402,-0.42581 -15.75171,-0.8977 -16.20509,-1.25202 -0.20558,-0.16065 -0.86697,-0.2921 -1.46977,-0.2921 -1.15957,0 -3.18806,-0.34872 -7.44479,-1.27983 -1.42988,-0.31277 -2.97695,-0.56868 -3.43791,-0.56868 -0.46097,0 -2.49626,-0.41591 -4.52287,-0.92426 -2.0266,-0.50834 -4.33871,-0.92426 -5.13799,-0.92426 -0.95525,0 -2.43588,-0.42229 -4.32074,-1.23234 -1.57712,-0.67778 -3.17496,-1.23234 -3.55075,-1.23234 -0.79519,0 -3.748928,-1.28147 -5.766568,-2.50181 -0.77121,-0.46645 -1.87767,-1.01774 -2.4588,-1.22508 -1.76983,-0.63144 -6.56522,-6.04845 -6.56522,-7.41624 0,-0.2316 -0.48689,-0.97316 -1.08197,-1.64792 -1.05855,-1.20028 -1.08197,-1.32353 -1.08197,-5.69408 0,-4.18098 0.0945,-4.74685 1.47541,-8.83092 l 1.47541,-4.36368 0,-9.24896 c 0,-10.72986 0.17464,-11.68664 3.10138,-16.99138 3.2163,-5.8296 5.46669,-8.7873 7.44609,-9.78645 0.5823,-0.29392 1.41398,-0.77263 1.84817,-1.06377 1.747928,-1.17207 5.402818,-2.67019 7.285798,-2.98641 4.16359,-0.69921 18.86304,-0.10063 25.76118,1.04902 1.51476,0.25244 4.08197,0.48729 5.70492,0.52188 4.71632,0.10049 13.20326,-0.87697 14.34099,-1.65169 0.20557,-0.13998 0.77053,-0.25452 1.25546,-0.25452 0.48494,0 0.99113,-0.13864 1.12487,-0.30808 0.13373,-0.16945 0.66057,-0.30809 1.17075,-0.30809 0.51019,0 0.98661,-0.10988 1.05875,-0.24419 0.0721,-0.13429 0.78302,-0.55568 1.57975,-0.9364 1.31584,-0.62878 2.10906,-0.70901 8.65573,-0.87537 8.6191,-0.21903 17.02744,0.26023 20.74698,1.18255 1.42522,0.35341 5.33557,1.69891 8.68967,2.99001 4.75748,1.8313 6.55253,2.69902 8.16394,3.9464 l 2.06557,1.59896 0.004,3.02392 c 0.004,1.66316 -0.20338,7.62123 -0.45798,13.24017 -0.50792,11.20971 -0.35759,12.59278 1.88664,17.35741 2.54449,5.40217 2.57276,5.5064 2.43504,8.97899 -0.10982,2.76919 -0.26386,3.44151 -0.9555,4.17018 -0.9283,0.978 -3.1256,2.24949 -5.47051,3.16556 -1.77663,0.69408 -3.92172,2.31681 -6.9416,5.25126 -1.13348,1.1014 -2.65987,2.48778 -3.39199,3.08085 -0.73211,0.59307 -1.60083,1.47875 -1.93048,1.96819 -0.32964,0.48944 -1.95427,2.13118 -3.61027,3.64833 -1.656,1.51713 -3.4361,3.26558 -3.95577,3.88542 -0.51969,0.61986 -1.13659,1.18405 -1.37088,1.25377 -0.23429,0.0697 -1.49106,1.02531 -2.79283,2.12353 -1.30176,1.09822 -2.98651,2.21024 -3.74388,2.47113 -1.68483,0.58036 -14.38878,0.89604 -15.34427,0.38129 l 1e-5,0 z"
         id="path4149" />
    </clipPath>
    <clipPath
       clipPathUnits="userSpaceOnUse"
       id="clipPath4151">
      <path
         style="fill:#ffffff;fill-opacity:1;stroke:#ffffff;stroke-width:1.39999998;stroke-linecap:round;stroke-linejoin:round;stroke-miterlimit:4;stroke-opacity:1;stroke-dasharray:none;display:inline"
         d="m 161.58893,728.99922 c -0.32459,-0.17487 -1.59667,-0.32007 -2.82684,-0.32266 -1.23017,-0.003 -2.69296,-0.14057 -3.25065,-0.3066 -0.55767,-0.16603 -4.24297,-0.44444 -8.18954,-0.61869 -9.64402,-0.42581 -15.75171,-0.8977 -16.20509,-1.25202 -0.20558,-0.16065 -0.86697,-0.2921 -1.46977,-0.2921 -1.15957,0 -3.18806,-0.34872 -7.44479,-1.27983 -1.42988,-0.31277 -2.97695,-0.56868 -3.43791,-0.56868 -0.46097,0 -2.49626,-0.41591 -4.52287,-0.92426 -2.0266,-0.50834 -4.33871,-0.92426 -5.13799,-0.92426 -0.95525,0 -2.43588,-0.42229 -4.32074,-1.23234 -1.57712,-0.67778 -3.17496,-1.23234 -3.55075,-1.23234 -0.79519,0 -3.748928,-1.28147 -5.766568,-2.50181 -0.77121,-0.46645 -1.87767,-1.01774 -2.4588,-1.22508 -1.76983,-0.63144 -6.56522,-6.04845 -6.56522,-7.41624 0,-0.2316 -0.48689,-0.97316 -1.08197,-1.64792 -1.05855,-1.20028 -1.08197,-1.32353 -1.08197,-5.69408 0,-4.18098 0.0945,-4.74685 1.47541,-8.83092 l 1.47541,-4.36368 0,-9.24896 c 0,-10.72986 0.17464,-11.68664 3.10138,-16.99138 3.2163,-5.8296 5.46669,-8.7873 7.44609,-9.78645 0.5823,-0.29392 1.41398,-0.77263 1.84817,-1.06377 1.747928,-1.17207 5.402818,-2.67019 7.285798,-2.98641 4.16359,-0.69921 18.86304,-0.10063 25.76118,1.04902 1.51476,0.25244 4.08197,0.48729 5.70492,0.52188 4.71632,0.10049 13.20326,-0.87697 14.34099,-1.65169 0.20557,-0.13998 0.77053,-0.25452 1.25546,-0.25452 0.48494,0 0.99113,-0.13864 1.12487,-0.30808 0.13373,-0.16945 0.66057,-0.30809 1.17075,-0.30809 0.51019,0 0.98661,-0.10988 1.05875,-0.24419 0.0721,-0.13429 0.78302,-0.55568 1.57975,-0.9364 1.31584,-0.62878 2.10906,-0.70901 8.65573,-0.87537 8.6191,-0.21903 17.02744,0.26023 20.74698,1.18255 1.42522,0.35341 5.33557,1.69891 8.68967,2.99001 4.75748,1.8313 6.55253,2.69902 8.16394,3.9464 l 2.06557,1.59896 0.004,3.02392 c 0.004,1.66316 -0.20338,7.62123 -0.45798,13.24017 -0.50792,11.20971 -0.35759,12.59278 1.88664,17.35741 2.54449,5.40217 2.57276,5.5064 2.43504,8.97899 -0.10982,2.76919 -0.26386,3.44151 -0.9555,4.17018 -0.9283,0.978 -3.1256,2.24949 -5.47051,3.16556 -1.77663,0.69408 -3.92172,2.31681 -6.9416,5.25126 -1.13348,1.1014 -2.65987,2.48778 -3.39199,3.08085 -0.73211,0.59307 -1.60083,1.47875 -1.93048,1.96819 -0.32964,0.48944 -1.95427,2.13118 -3.61027,3.64833 -1.656,1.51713 -3.4361,3.26558 -3.95577,3.88542 -0.51969,0.61986 -1.13659,1.18405 -1.37088,1.25377 -0.23429,0.0697 -1.49106,1.02531 -2.79283,2.12353 -1.30176,1.09822 -2.98651,2.21024 -3.74388,2.47113 -1.68483,0.58036 -14.38878,0.89604 -15.34427,0.38129 l 1e-5,0 z"
         id="path4153" />
    </clipPath>
    <clipPath
       clipPathUnits="userSpaceOnUse"
       id="clipPath4155">
      <path
         style="fill:#ffffff;fill-opacity:1;stroke:#ffffff;stroke-width:1.39999998;stroke-linecap:round;stroke-linejoin:round;stroke-miterlimit:4;stroke-opacity:1;stroke-dasharray:none;display:inline"
         d="m 161.58893,728.99922 c -0.32459,-0.17487 -1.59667,-0.32007 -2.82684,-0.32266 -1.23017,-0.003 -2.69296,-0.14057 -3.25065,-0.3066 -0.55767,-0.16603 -4.24297,-0.44444 -8.18954,-0.61869 -9.64402,-0.42581 -15.75171,-0.8977 -16.20509,-1.25202 -0.20558,-0.16065 -0.86697,-0.2921 -1.46977,-0.2921 -1.15957,0 -3.18806,-0.34872 -7.44479,-1.27983 -1.42988,-0.31277 -2.97695,-0.56868 -3.43791,-0.56868 -0.46097,0 -2.49626,-0.41591 -4.52287,-0.92426 -2.0266,-0.50834 -4.33871,-0.92426 -5.13799,-0.92426 -0.95525,0 -2.43588,-0.42229 -4.32074,-1.23234 -1.57712,-0.67778 -3.17496,-1.23234 -3.55075,-1.23234 -0.79519,0 -3.748928,-1.28147 -5.766568,-2.50181 -0.77121,-0.46645 -1.87767,-1.01774 -2.4588,-1.22508 -1.76983,-0.63144 -6.56522,-6.04845 -6.56522,-7.41624 0,-0.2316 -0.48689,-0.97316 -1.08197,-1.64792 -1.05855,-1.20028 -1.08197,-1.32353 -1.08197,-5.69408 0,-4.18098 0.0945,-4.74685 1.47541,-8.83092 l 1.47541,-4.36368 0,-9.24896 c 0,-10.72986 0.17464,-11.68664 3.10138,-16.99138 3.2163,-5.8296 5.46669,-8.7873 7.44609,-9.78645 0.5823,-0.29392 1.41398,-0.77263 1.84817,-1.06377 1.747928,-1.17207 5.402818,-2.67019 7.285798,-2.98641 4.16359,-0.69921 18.86304,-0.10063 25.76118,1.04902 1.51476,0.25244 4.08197,0.48729 5.70492,0.52188 4.71632,0.10049 13.20326,-0.87697 14.34099,-1.65169 0.20557,-0.13998 0.77053,-0.25452 1.25546,-0.25452 0.48494,0 0.99113,-0.13864 1.12487,-0.30808 0.13373,-0.16945 0.66057,-0.30809 1.17075,-0.30809 0.51019,0 0.98661,-0.10988 1.05875,-0.24419 0.0721,-0.13429 0.78302,-0.55568 1.57975,-0.9364 1.31584,-0.62878 2.10906,-0.70901 8.65573,-0.87537 8.6191,-0.21903 17.02744,0.26023 20.74698,1.18255 1.42522,0.35341 5.33557,1.69891 8.68967,2.99001 4.75748,1.8313 6.55253,2.69902 8.16394,3.9464 l 2.06557,1.59896 0.004,3.02392 c 0.004,1.66316 -0.20338,7.62123 -0.45798,13.24017 -0.50792,11.20971 -0.35759,12.59278 1.88664,17.35741 2.54449,5.40217 2.57276,5.5064 2.43504,8.97899 -0.10982,2.76919 -0.26386,3.44151 -0.9555,4.17018 -0.9283,0.978 -3.1256,2.24949 -5.47051,3.16556 -1.77663,0.69408 -3.92172,2.31681 -6.9416,5.25126 -1.13348,1.1014 -2.65987,2.48778 -3.39199,3.08085 -0.73211,0.59307 -1.60083,1.47875 -1.93048,1.96819 -0.32964,0.48944 -1.95427,2.13118 -3.61027,3.64833 -1.656,1.51713 -3.4361,3.26558 -3.95577,3.88542 -0.51969,0.61986 -1.13659,1.18405 -1.37088,1.25377 -0.23429,0.0697 -1.49106,1.02531 -2.79283,2.12353 -1.30176,1.09822 -2.98651,2.21024 -3.74388,2.47113 -1.68483,0.58036 -14.38878,0.89604 -15.34427,0.38129 l 1e-5,0 z"
         id="path4157" />
    </clipPath>
    <clipPath
       clipPathUnits="userSpaceOnUse"
       id="clipPath4159">
      <path
         style="fill:#ffffff;fill-opacity:1;stroke:#ffffff;stroke-width:1.39999998;stroke-linecap:round;stroke-linejoin:round;stroke-miterlimit:4;stroke-opacity:1;stroke-dasharray:none;display:inline"
         d="m 161.58893,728.99922 c -0.32459,-0.17487 -1.59667,-0.32007 -2.82684,-0.32266 -1.23017,-0.003 -2.69296,-0.14057 -3.25065,-0.3066 -0.55767,-0.16603 -4.24297,-0.44444 -8.18954,-0.61869 -9.64402,-0.42581 -15.75171,-0.8977 -16.20509,-1.25202 -0.20558,-0.16065 -0.86697,-0.2921 -1.46977,-0.2921 -1.15957,0 -3.18806,-0.34872 -7.44479,-1.27983 -1.42988,-0.31277 -2.97695,-0.56868 -3.43791,-0.56868 -0.46097,0 -2.49626,-0.41591 -4.52287,-0.92426 -2.0266,-0.50834 -4.33871,-0.92426 -5.13799,-0.92426 -0.95525,0 -2.43588,-0.42229 -4.32074,-1.23234 -1.57712,-0.67778 -3.17496,-1.23234 -3.55075,-1.23234 -0.79519,0 -3.748928,-1.28147 -5.766568,-2.50181 -0.77121,-0.46645 -1.87767,-1.01774 -2.4588,-1.22508 -1.76983,-0.63144 -6.56522,-6.04845 -6.56522,-7.41624 0,-0.2316 -0.48689,-0.97316 -1.08197,-1.64792 -1.05855,-1.20028 -1.08197,-1.32353 -1.08197,-5.69408 0,-4.18098 0.0945,-4.74685 1.47541,-8.83092 l 1.47541,-4.36368 0,-9.24896 c 0,-10.72986 0.17464,-11.68664 3.10138,-16.99138 3.2163,-5.8296 5.46669,-8.7873 7.44609,-9.78645 0.5823,-0.29392 1.41398,-0.77263 1.84817,-1.06377 1.747928,-1.17207 5.402818,-2.67019 7.285798,-2.98641 4.16359,-0.69921 18.86304,-0.10063 25.76118,1.04902 1.51476,0.25244 4.08197,0.48729 5.70492,0.52188 4.71632,0.10049 13.20326,-0.87697 14.34099,-1.65169 0.20557,-0.13998 0.77053,-0.25452 1.25546,-0.25452 0.48494,0 0.99113,-0.13864 1.12487,-0.30808 0.13373,-0.16945 0.66057,-0.30809 1.17075,-0.30809 0.51019,0 0.98661,-0.10988 1.05875,-0.24419 0.0721,-0.13429 0.78302,-0.55568 1.57975,-0.9364 1.31584,-0.62878 2.10906,-0.70901 8.65573,-0.87537 8.6191,-0.21903 17.02744,0.26023 20.74698,1.18255 1.42522,0.35341 5.33557,1.69891 8.68967,2.99001 4.75748,1.8313 6.55253,2.69902 8.16394,3.9464 l 2.06557,1.59896 0.004,3.02392 c 0.004,1.66316 -0.20338,7.62123 -0.45798,13.24017 -0.50792,11.20971 -0.35759,12.59278 1.88664,17.35741 2.54449,5.40217 2.57276,5.5064 2.43504,8.97899 -0.10982,2.76919 -0.26386,3.44151 -0.9555,4.17018 -0.9283,0.978 -3.1256,2.24949 -5.47051,3.16556 -1.77663,0.69408 -3.92172,2.31681 -6.9416,5.25126 -1.13348,1.1014 -2.65987,2.48778 -3.39199,3.08085 -0.73211,0.59307 -1.60083,1.47875 -1.93048,1.96819 -0.32964,0.48944 -1.95427,2.13118 -3.61027,3.64833 -1.656,1.51713 -3.4361,3.26558 -3.95577,3.88542 -0.51969,0.61986 -1.13659,1.18405 -1.37088,1.25377 -0.23429,0.0697 -1.49106,1.02531 -2.79283,2.12353 -1.30176,1.09822 -2.98651,2.21024 -3.74388,2.47113 -1.68483,0.58036 -14.38878,0.89604 -15.34427,0.38129 l 1e-5,0 z"
         id="path4161" />
    </clipPath>
    <clipPath
       clipPathUnits="userSpaceOnUse"
       id="clipPath4163">
      <path
         style="fill:#ffffff;fill-opacity:1;stroke:#ffffff;stroke-width:1.39999998;stroke-linecap:round;stroke-linejoin:round;stroke-miterlimit:4;stroke-opacity:1;stroke-dasharray:none;display:inline"
         d="m 1570.0267,466.80545 c -0.2657,-0.14312 -1.3068,-0.26195 -2.3135,-0.26407 -1.0068,-0.002 -2.204,-0.11505 -2.6604,-0.25093 -0.4564,-0.13588 -3.4726,-0.36374 -6.7025,-0.50635 -7.8928,-0.34849 -12.8915,-0.73469 -13.2625,-1.02467 -0.1683,-0.13148 -0.7096,-0.23906 -1.2029,-0.23906 -0.949,0 -2.6092,-0.2854 -6.093,-1.04744 -1.1702,-0.25597 -2.4364,-0.46542 -2.8136,-0.46542 -0.3773,0 -2.043,-0.34038 -3.7016,-0.75643 -1.6586,-0.41603 -3.5509,-0.75643 -4.205,-0.75643 -0.7818,0 -1.9936,-0.34561 -3.5362,-1.00857 -1.2908,-0.5547 -2.5985,-1.00857 -2.906,-1.00857 -0.6508,0 -3.0682,-1.04877 -4.7195,-2.04752 -0.6311,-0.38175 -1.5367,-0.83294 -2.0123,-1.00263 -1.4485,-0.51678 -5.3731,-4.95016 -5.3731,-6.06958 0,-0.18955 -0.3985,-0.79646 -0.8855,-1.34869 -0.8663,-0.98233 -0.8855,-1.0832 -0.8855,-4.66014 0,-3.42179 0.077,-3.88491 1.2075,-7.22738 l 1.2075,-3.57132 0,-7.56951 c 0,-8.78151 0.1429,-9.56456 2.5382,-13.90605 2.6323,-4.77105 4.4741,-7.19169 6.094,-8.00941 0.4766,-0.24055 1.1573,-0.63234 1.5126,-0.87061 1.4306,-0.95924 4.4218,-2.18533 5.9628,-2.44413 3.4076,-0.57225 15.4379,-0.0824 21.0835,0.85854 1.2397,0.2066 3.3407,0.3988 4.669,0.42711 3.8599,0.0822 10.8058,-0.71773 11.7369,-1.35177 0.1682,-0.11456 0.6306,-0.20831 1.0275,-0.20831 0.3969,0 0.8111,-0.11346 0.9206,-0.25213 0.1094,-0.13868 0.5406,-0.25215 0.9582,-0.25215 0.4175,0 0.8074,-0.0899 0.8665,-0.19985 0.059,-0.1099 0.6408,-0.45478 1.2929,-0.76637 1.0769,-0.5146 1.726,-0.58026 7.084,-0.71641 7.054,-0.17926 13.9355,0.21297 16.9797,0.96782 1.1664,0.28923 4.3667,1.39041 7.1117,2.44707 3.8937,1.49877 5.3628,2.20893 6.6816,3.22981 l 1.6905,1.30862 0,2.47483 c 0,1.36116 -0.1664,6.23735 -0.3748,10.83599 -0.4157,9.17423 -0.2926,10.30616 1.5441,14.20562 2.0824,4.42123 2.1056,4.50653 1.9929,7.34856 -0.09,2.26636 -0.216,2.8166 -0.782,3.41295 -0.7598,0.80042 -2.5581,1.84103 -4.4772,2.59076 -1.454,0.56804 -3.2096,1.89611 -5.6811,4.29772 -0.9277,0.90141 -2.1769,2.03605 -2.7761,2.52142 -0.5992,0.48538 -1.3102,1.21024 -1.5799,1.61081 -0.2698,0.40056 -1.5995,1.74419 -2.9548,2.98586 -1.3553,1.24164 -2.8121,2.67261 -3.2374,3.17989 -0.4254,0.50731 -0.9302,0.96905 -1.122,1.02611 -0.1917,0.0571 -1.2203,0.83913 -2.2857,1.73794 -1.0654,0.8988 -2.4442,1.8089 -3.064,2.02241 -1.3789,0.47498 -11.7761,0.73334 -12.5581,0.31206 l 0,0 z"
         id="path4165" />
    </clipPath>
    <clipPath
       clipPathUnits="userSpaceOnUse"
       id="clipPath4167">
      <path
         style="fill:#ffffff;fill-opacity:1;stroke:#ffffff;stroke-width:1.39999998;stroke-linecap:round;stroke-linejoin:round;stroke-miterlimit:4;stroke-opacity:1;stroke-dasharray:none;display:inline"
         d="m 161.58893,728.99922 c -0.32459,-0.17487 -1.59667,-0.32007 -2.82684,-0.32266 -1.23017,-0.003 -2.69296,-0.14057 -3.25065,-0.3066 -0.55767,-0.16603 -4.24297,-0.44444 -8.18954,-0.61869 -9.64402,-0.42581 -15.75171,-0.8977 -16.20509,-1.25202 -0.20558,-0.16065 -0.86697,-0.2921 -1.46977,-0.2921 -1.15957,0 -3.18806,-0.34872 -7.44479,-1.27983 -1.42988,-0.31277 -2.97695,-0.56868 -3.43791,-0.56868 -0.46097,0 -2.49626,-0.41591 -4.52287,-0.92426 -2.0266,-0.50834 -4.33871,-0.92426 -5.13799,-0.92426 -0.95525,0 -2.43588,-0.42229 -4.32074,-1.23234 -1.57712,-0.67778 -3.17496,-1.23234 -3.55075,-1.23234 -0.79519,0 -3.748928,-1.28147 -5.766568,-2.50181 -0.77121,-0.46645 -1.87767,-1.01774 -2.4588,-1.22508 -1.76983,-0.63144 -6.56522,-6.04845 -6.56522,-7.41624 0,-0.2316 -0.48689,-0.97316 -1.08197,-1.64792 -1.05855,-1.20028 -1.08197,-1.32353 -1.08197,-5.69408 0,-4.18098 0.0945,-4.74685 1.47541,-8.83092 l 1.47541,-4.36368 0,-9.24896 c 0,-10.72986 0.17464,-11.68664 3.10138,-16.99138 3.2163,-5.8296 5.46669,-8.7873 7.44609,-9.78645 0.5823,-0.29392 1.41398,-0.77263 1.84817,-1.06377 1.747928,-1.17207 5.402818,-2.67019 7.285798,-2.98641 4.16359,-0.69921 18.86304,-0.10063 25.76118,1.04902 1.51476,0.25244 4.08197,0.48729 5.70492,0.52188 4.71632,0.10049 13.20326,-0.87697 14.34099,-1.65169 0.20557,-0.13998 0.77053,-0.25452 1.25546,-0.25452 0.48494,0 0.99113,-0.13864 1.12487,-0.30808 0.13373,-0.16945 0.66057,-0.30809 1.17075,-0.30809 0.51019,0 0.98661,-0.10988 1.05875,-0.24419 0.0721,-0.13429 0.78302,-0.55568 1.57975,-0.9364 1.31584,-0.62878 2.10906,-0.70901 8.65573,-0.87537 8.6191,-0.21903 17.02744,0.26023 20.74698,1.18255 1.42522,0.35341 5.33557,1.69891 8.68967,2.99001 4.75748,1.8313 6.55253,2.69902 8.16394,3.9464 l 2.06557,1.59896 0.004,3.02392 c 0.004,1.66316 -0.20338,7.62123 -0.45798,13.24017 -0.50792,11.20971 -0.35759,12.59278 1.88664,17.35741 2.54449,5.40217 2.57276,5.5064 2.43504,8.97899 -0.10982,2.76919 -0.26386,3.44151 -0.9555,4.17018 -0.9283,0.978 -3.1256,2.24949 -5.47051,3.16556 -1.77663,0.69408 -3.92172,2.31681 -6.9416,5.25126 -1.13348,1.1014 -2.65987,2.48778 -3.39199,3.08085 -0.73211,0.59307 -1.60083,1.47875 -1.93048,1.96819 -0.32964,0.48944 -1.95427,2.13118 -3.61027,3.64833 -1.656,1.51713 -3.4361,3.26558 -3.95577,3.88542 -0.51969,0.61986 -1.13659,1.18405 -1.37088,1.25377 -0.23429,0.0697 -1.49106,1.02531 -2.79283,2.12353 -1.30176,1.09822 -2.98651,2.21024 -3.74388,2.47113 -1.68483,0.58036 -14.38878,0.89604 -15.34427,0.38129 l 1e-5,0 z"
         id="path4169" />
    </clipPath>
    <clipPath
       clipPathUnits="userSpaceOnUse"
       id="clipPath4171">
      <path
         style="fill:#ffffff;fill-opacity:1;stroke:#ffffff;stroke-width:1.39999998;stroke-linecap:round;stroke-linejoin:round;stroke-miterlimit:4;stroke-opacity:1;stroke-dasharray:none;display:inline"
         d="m 161.58893,728.99922 c -0.32459,-0.17487 -1.59667,-0.32007 -2.82684,-0.32266 -1.23017,-0.003 -2.69296,-0.14057 -3.25065,-0.3066 -0.55767,-0.16603 -4.24297,-0.44444 -8.18954,-0.61869 -9.64402,-0.42581 -15.75171,-0.8977 -16.20509,-1.25202 -0.20558,-0.16065 -0.86697,-0.2921 -1.46977,-0.2921 -1.15957,0 -3.18806,-0.34872 -7.44479,-1.27983 -1.42988,-0.31277 -2.97695,-0.56868 -3.43791,-0.56868 -0.46097,0 -2.49626,-0.41591 -4.52287,-0.92426 -2.0266,-0.50834 -4.33871,-0.92426 -5.13799,-0.92426 -0.95525,0 -2.43588,-0.42229 -4.32074,-1.23234 -1.57712,-0.67778 -3.17496,-1.23234 -3.55075,-1.23234 -0.79519,0 -3.748928,-1.28147 -5.766568,-2.50181 -0.77121,-0.46645 -1.87767,-1.01774 -2.4588,-1.22508 -1.76983,-0.63144 -6.56522,-6.04845 -6.56522,-7.41624 0,-0.2316 -0.48689,-0.97316 -1.08197,-1.64792 -1.05855,-1.20028 -1.08197,-1.32353 -1.08197,-5.69408 0,-4.18098 0.0945,-4.74685 1.47541,-8.83092 l 1.47541,-4.36368 0,-9.24896 c 0,-10.72986 0.17464,-11.68664 3.10138,-16.99138 3.2163,-5.8296 5.46669,-8.7873 7.44609,-9.78645 0.5823,-0.29392 1.41398,-0.77263 1.84817,-1.06377 1.747928,-1.17207 5.402818,-2.67019 7.285798,-2.98641 4.16359,-0.69921 18.86304,-0.10063 25.76118,1.04902 1.51476,0.25244 4.08197,0.48729 5.70492,0.52188 4.71632,0.10049 13.20326,-0.87697 14.34099,-1.65169 0.20557,-0.13998 0.77053,-0.25452 1.25546,-0.25452 0.48494,0 0.99113,-0.13864 1.12487,-0.30808 0.13373,-0.16945 0.66057,-0.30809 1.17075,-0.30809 0.51019,0 0.98661,-0.10988 1.05875,-0.24419 0.0721,-0.13429 0.78302,-0.55568 1.57975,-0.9364 1.31584,-0.62878 2.10906,-0.70901 8.65573,-0.87537 8.6191,-0.21903 17.02744,0.26023 20.74698,1.18255 1.42522,0.35341 5.33557,1.69891 8.68967,2.99001 4.75748,1.8313 6.55253,2.69902 8.16394,3.9464 l 2.06557,1.59896 0.004,3.02392 c 0.004,1.66316 -0.20338,7.62123 -0.45798,13.24017 -0.50792,11.20971 -0.35759,12.59278 1.88664,17.35741 2.54449,5.40217 2.57276,5.5064 2.43504,8.97899 -0.10982,2.76919 -0.26386,3.44151 -0.9555,4.17018 -0.9283,0.978 -3.1256,2.24949 -5.47051,3.16556 -1.77663,0.69408 -3.92172,2.31681 -6.9416,5.25126 -1.13348,1.1014 -2.65987,2.48778 -3.39199,3.08085 -0.73211,0.59307 -1.60083,1.47875 -1.93048,1.96819 -0.32964,0.48944 -1.95427,2.13118 -3.61027,3.64833 -1.656,1.51713 -3.4361,3.26558 -3.95577,3.88542 -0.51969,0.61986 -1.13659,1.18405 -1.37088,1.25377 -0.23429,0.0697 -1.49106,1.02531 -2.79283,2.12353 -1.30176,1.09822 -2.98651,2.21024 -3.74388,2.47113 -1.68483,0.58036 -14.38878,0.89604 -15.34427,0.38129 l 1e-5,0 z"
         id="path4173" />
    </clipPath>
    <inkscape:perspective
       id="perspective4081"
       inkscape:persp3d-origin="0.5 : 0.33333333 : 1"
       inkscape:vp_z="1 : 0.5 : 1"
       inkscape:vp_y="0 : 1000 : 0"
       inkscape:vp_x="0 : 0.5 : 1"
       sodipodi:type="inkscape:persp3d" />
  </defs>
  <sodipodi:namedview
     id="base"
     pagecolor="#e0e0e0"
     bordercolor="#666666"
     borderopacity="1.0"
     inkscape:pageopacity="1"
     inkscape:pageshadow="2"
     inkscape:zoom="4.3869048"
     inkscape:cx="55.675643"
     inkscape:cy="41.862498"
     inkscape:document-units="px"
     inkscape:current-layer="layer1"
     showgrid="true"
     inkscape:window-width="1311"
     inkscape:window-height="972"
     inkscape:window-x="601"
     inkscape:window-y="29"
     inkscape:window-maximized="0">
    <inkscape:grid
       type="xygrid"
       id="grid4091"
       empspacing="4"
       dotted="true"
       visible="true"
       enabled="true"
       snapvisiblegridlinesonly="true"
       spacingx="2px"
       spacingy="2px" />
  </sodipodi:namedview>
  <metadata
     id="metadata4065">
    <rdf:RDF>
      <cc:Work
         rdf:about="">
        <dc:format>image/svg+xml</dc:format>
        <dc:type
           rdf:resource="http://purl.org/dc/dcmitype/StillImage" />
        <dc:title></dc:title>
        <cc:license
           rdf:resource="" />
        <dc:rights>
          <cc:Agent>
            <dc:title>© 2014 Tormach®  LLC - All rights reserved worldwide</dc:title>
          </cc:Agent>
        </dc:rights>
      </cc:Work>
    </rdf:RDF>
  </metadata>
  <g
     inkscape:groupmode="layer"
     id="layer3"
     inkscape:label="Background"
     style="display:none"
     transform="translate(-11.937183,-48.166563)">
    <rect
       transform="translate(-72,-596.36218)"
       style="fill:#6a6a6a;fill-opacity:1;stroke:none;display:inline"
       id="rect3193-3-2"
       width="224.82399"
       height="205.27406"
       x="51.588001"
       y="577.72516"
       ry="0"
       inkscape:export-filename="/home/kwallace/tormach_linuxcnc/release/images/probe_pocket.png"
       inkscape:export-xdpi="110"
       inkscape:export-ydpi="110" />
  </g>
  <g
     inkscape:label="Layer 1"
     inkscape:groupmode="layer"
     id="layer1"
     transform="translate(-83.937183,-644.52874)"
     style="display:inline">
    <path
       style="fill:#55807c;fill-opacity:1;stroke:#ffffff;stroke-width:1.39999998;stroke-linecap:round;stroke-linejoin:round;stroke-miterlimit:4;stroke-opacity:1;stroke-dasharray:none"
       d="m 161.94865,728.99923 c -0.32459,-0.17487 -1.59667,-0.32007 -2.82684,-0.32266 -1.23017,-0.003 -2.69296,-0.14057 -3.25065,-0.3066 -0.55767,-0.16603 -4.24297,-0.44444 -8.18954,-0.61869 -9.64402,-0.42581 -15.75171,-0.8977 -16.20509,-1.25202 -0.20558,-0.16065 -0.86697,-0.2921 -1.46977,-0.2921 -1.15957,0 -3.18806,-0.34872 -7.44479,-1.27983 -1.42988,-0.31277 -2.97695,-0.56868 -3.43791,-0.56868 -0.46097,0 -2.49626,-0.41591 -4.52287,-0.92426 -2.0266,-0.50834 -4.33871,-0.92426 -5.13799,-0.92426 -0.95525,0 -2.43588,-0.42229 -4.32074,-1.23234 -1.57712,-0.67778 -3.17496,-1.23234 -3.55075,-1.23234 -0.79519,0 -3.748932,-1.28147 -5.766569,-2.50181 -0.77121,-0.46645 -1.877673,-1.01774 -2.458803,-1.22508 -1.769824,-0.63144 -6.565221,-6.04845 -6.565221,-7.41624 0,-0.2316 -0.486886,-0.97316 -1.081968,-1.64792 -1.058549,-1.20028 -1.081967,-1.32353 -1.081967,-5.69408 0,-4.18098 0.09454,-4.74685 1.47541,-8.83092 l 1.475409,-4.36368 0,-9.24896 c 0,-10.72986 0.174637,-11.68664 3.101376,-16.99138 3.216307,-5.8296 5.466697,-8.7873 7.446091,-9.78645 0.582303,-0.29392 1.413985,-0.77263 1.848172,-1.06377 1.74793,-1.17207 5.40282,-2.67019 7.2858,-2.98641 4.16359,-0.69921 18.86304,-0.10063 25.76118,1.04902 1.51476,0.25244 4.08197,0.48729 5.70492,0.52188 4.71632,0.10049 13.20326,-0.87697 14.34099,-1.65169 0.20557,-0.13998 0.77053,-0.25452 1.25546,-0.25452 0.48494,0 0.99113,-0.13864 1.12487,-0.30808 0.13373,-0.16945 0.66057,-0.30809 1.17075,-0.30809 0.51019,0 0.98661,-0.10988 1.05875,-0.24419 0.0721,-0.13429 0.78302,-0.55568 1.57975,-0.9364 1.31584,-0.62878 2.10906,-0.70901 8.65573,-0.87537 8.6191,-0.21903 17.02744,0.26023 20.74698,1.18255 1.42522,0.35341 5.33557,1.69891 8.68967,2.99001 4.75748,1.8313 6.55253,2.69902 8.16394,3.9464 l 2.06557,1.59896 0.004,3.02392 c 0.004,1.66316 -0.20338,7.62123 -0.45798,13.24017 -0.50792,11.20971 -0.35759,12.59278 1.88664,17.35741 2.54449,5.40217 2.57276,5.5064 2.43504,8.97899 -0.10982,2.76919 -0.26386,3.44151 -0.9555,4.17018 -0.9283,0.978 -3.1256,2.24949 -5.47051,3.16556 -1.77663,0.69408 -3.92172,2.31681 -6.9416,5.25126 -1.13348,1.1014 -2.65987,2.48778 -3.39199,3.08085 -0.73211,0.59307 -1.60083,1.47875 -1.93048,1.96819 -0.32964,0.48944 -1.95427,2.13118 -3.61027,3.64833 -1.656,1.51713 -3.4361,3.26558 -3.95577,3.88542 -0.51969,0.61986 -1.13659,1.18405 -1.37088,1.25377 -0.23429,0.0697 -1.49106,1.02531 -2.79283,2.12353 -1.30176,1.09822 -2.98651,2.21024 -3.74388,2.47113 -1.68483,0.58036 -14.38878,0.89604 -15.34427,0.38129 l 1e-5,0 z"
       id="path3720"
       clip-path="url(#clipPath4171)" />
    <rect
       style="fill:#406070;fill-opacity:0.94117647;stroke:#ffffff;stroke-width:1.4000001;stroke-miterlimit:4;stroke-opacity:1;stroke-dasharray:none"
       id="rect3193-3-3"
       width="79.350258"
       height="100"
       x="110.23774"
       y="640.99921"
       ry="0"
       inkscape:export-filename="/home/kwallace/tormach_linuxcnc/release/images/probe_corner.png"
       inkscape:export-xdpi="100"
       inkscape:export-ydpi="100"
       clip-path="url(#clipPath4167)" />
    <path
       sodipodi:type="arc"
       style="fill:#c03050;fill-opacity:1;stroke:#ffffff;stroke-width:1.14578509;stroke-miterlimit:4;stroke-opacity:1;stroke-dasharray:none"
       id="path3969-9"
       sodipodi:cx="1560"
       sodipodi:cy="431"
       sodipodi:rx="8"
       sodipodi:ry="8"
       d="m 1568,431 c 0,4.41828 -3.5817,8 -8,8 -4.4183,0 -8,-3.58172 -8,-8 0,-4.41828 3.5817,-8 8,-8 4.4183,0 8,3.58172 8,8 z"
       transform="matrix(1.2218695,0,0,1.2218695,-1756.7788,158.62388)"
       clip-path="url(#clipPath4163)" />
    <path
       style="fill:#ffffff;stroke:#ffffff;stroke-width:0.99999994px;stroke-linecap:butt;stroke-linejoin:miter;stroke-opacity:1"
       d="m 149.33756,670.5872 0,31.7686"
       id="path4039-7-4"
       clip-path="url(#clipPath4159)" />
    <path
       style="fill:#ffffff;fill-opacity:1;stroke:#ffffff;stroke-width:0.99999994;stroke-linecap:butt;stroke-linejoin:miter;stroke-miterlimit:4;stroke-opacity:1;stroke-dasharray:none;display:inline"
       d="m 110.5826,685.24963 14.48446,-2.44373 0,4.88747 -14.48446,-2.44374 z"
       id="path5167-8-0-4-7-4-7-0-7"
       sodipodi:nodetypes="cccc"
       clip-path="url(#clipPath4155)" />
    <path
       style="fill:#ffffff;fill-opacity:1;stroke:#ffffff;stroke-width:0.99999994;stroke-linecap:butt;stroke-linejoin:miter;stroke-miterlimit:4;stroke-opacity:1;stroke-dasharray:none;display:inline"
       d="m 149.2078,685.24963 -14.48445,2.44374 0,-4.88747 14.48445,2.44373 z"
       id="path5167-8-0-4-7-4-7-2-5-3"
       sodipodi:nodetypes="cccc"
       clip-path="url(#clipPath4151)" />
    <path
       style="fill:#ffffff;stroke:#ffffff;stroke-width:0.99999994px;stroke-linecap:butt;stroke-linejoin:miter;stroke-opacity:1"
       d="m 148.86293,685.24963 -38.62519,0"
       id="path4039-5-8"
       clip-path="url(#clipPath4147)" />
    <path
       style="fill:#ffffff;fill-opacity:1;stroke:#ffffff;stroke-width:0.99999988;stroke-linecap:butt;stroke-linejoin:miter;stroke-miterlimit:4;stroke-opacity:1;stroke-dasharray:none;display:inline"
       d="m 149.8088,685.24963 14.19119,-2.44373 0,4.88747 -14.19119,-2.44374 z"
       id="path5167-8-0-4-7-4-7-0-7-4"
       sodipodi:nodetypes="cccc"
       clip-path="url(#clipPath4143)" />
    <path
       style="fill:#ffffff;stroke:#ffffff;stroke-width:0.99999994px;stroke-linecap:butt;stroke-linejoin:miter;stroke-opacity:1"
       d="m 187.588,685.24963 -38.29865,0"
       id="path4039-5-8-7"
       clip-path="url(#clipPath4139)" />
    <path
       style="fill:#ffffff;fill-opacity:1;stroke:#ffffff;stroke-width:0.99999982;stroke-linecap:butt;stroke-linejoin:miter;stroke-miterlimit:4;stroke-opacity:1;stroke-dasharray:none;display:inline"
       d="m 189.588,684.99922 -13.32949,2.32738 0,-4.65474 13.32949,2.32736 z"
       id="path5167-8-0-4-7-4-7-2-5-3-6"
       sodipodi:nodetypes="cccc"
       clip-path="url(#clipPath4135)" />
    <path
       style="fill:none;stroke:#ffffff;stroke-width:1.39999998;stroke-linecap:round;stroke-linejoin:round;stroke-miterlimit:4;stroke-opacity:1;stroke-dasharray:none;display:inline"
       d="m 161.94865,728.99922 c -0.32459,-0.17487 -1.59667,-0.32007 -2.82684,-0.32266 -1.23017,-0.003 -2.69296,-0.14057 -3.25065,-0.3066 -0.55767,-0.16603 -4.24297,-0.44444 -8.18954,-0.61869 -9.64402,-0.42581 -15.75171,-0.8977 -16.20509,-1.25202 -0.20558,-0.16065 -0.86697,-0.2921 -1.46977,-0.2921 -1.15957,0 -3.18806,-0.34872 -7.44479,-1.27983 -1.42988,-0.31277 -2.97695,-0.56868 -3.43791,-0.56868 -0.46097,0 -2.49626,-0.41591 -4.52287,-0.92426 -2.0266,-0.50834 -4.33871,-0.92426 -5.13799,-0.92426 -0.95525,0 -2.43588,-0.42229 -4.32074,-1.23234 -1.57712,-0.67778 -3.17496,-1.23234 -3.55075,-1.23234 -0.79519,0 -3.748927,-1.28147 -5.766567,-2.50181 -0.77121,-0.46645 -1.87767,-1.01774 -2.4588,-1.22508 -1.76983,-0.63144 -6.56522,-6.04845 -6.56522,-7.41624 0,-0.2316 -0.48689,-0.97316 -1.08197,-1.64792 -1.05855,-1.20028 -1.08197,-1.32353 -1.08197,-5.69408 0,-4.18098 0.0945,-4.74685 1.47541,-8.83092 l 1.47541,-4.36368 0,-9.24896 c 0,-10.72986 0.17464,-11.68664 3.10138,-16.99138 3.2163,-5.8296 5.46669,-8.7873 7.44609,-9.78645 0.5823,-0.29392 1.41398,-0.77263 1.84817,-1.06377 1.747927,-1.17207 5.402817,-2.67019 7.285797,-2.98641 4.16359,-0.69921 18.86304,-0.10063 25.76118,1.04902 1.51476,0.25244 4.08197,0.48729 5.70492,0.52188 4.71632,0.10049 13.20326,-0.87697 14.34099,-1.65169 0.20557,-0.13998 0.77053,-0.25452 1.25546,-0.25452 0.48494,0 0.99113,-0.13864 1.12487,-0.30808 0.13373,-0.16945 0.66057,-0.30809 1.17075,-0.30809 0.51019,0 0.98661,-0.10988 1.05875,-0.24419 0.0721,-0.13429 0.78302,-0.55568 1.57975,-0.9364 1.31584,-0.62878 2.10906,-0.70901 8.65573,-0.87537 8.6191,-0.21903 17.02744,0.26023 20.74698,1.18255 1.42522,0.35341 5.33557,1.69891 8.68967,2.99001 4.75748,1.8313 6.55253,2.69902 8.16394,3.9464 l 2.06557,1.59896 0.004,3.02392 c 0.004,1.66316 -0.20338,7.62123 -0.45798,13.24017 -0.50792,11.20971 -0.35759,12.59278 1.88664,17.35741 2.54449,5.40217 2.57276,5.5064 2.43504,8.97899 -0.10982,2.76919 -0.26386,3.44151 -0.9555,4.17018 -0.9283,0.978 -3.1256,2.24949 -5.47051,3.16556 -1.77663,0.69408 -3.92172,2.31681 -6.9416,5.25126 -1.13348,1.1014 -2.65987,2.48778 -3.39199,3.08085 -0.73211,0.59307 -1.60083,1.47875 -1.93048,1.96819 -0.32964,0.48944 -1.95427,2.13118 -3.61027,3.64833 -1.656,1.51713 -3.4361,3.26558 -3.95577,3.88542 -0.51969,0.61986 -1.13659,1.18405 -1.37088,1.25377 -0.23429,0.0697 -1.49106,1.02531 -2.79283,2.12353 -1.30176,1.09822 -2.98651,2.21024 -3.74388,2.47113 -1.68483,0.58036 -14.38878,0.89604 -15.34427,0.38129 l 1e-5,0 z"
       id="path3720-1" />
  </g>
</svg>
