<?xml version="1.0" encoding="utf-8"?>
<!-- Generator: Adobe Illustrator 21.1.0, SVG Export Plug-In . SVG Version: 6.00 Build 0)  -->
<svg version="1.1"
	 id="svg4060" inkscape:version="0.47 r22583" sodipodi:docname="mill_probe_corner.svg" xmlns:cc="http://creativecommons.org/ns#" xmlns:dc="http://purl.org/dc/elements/1.1/" xmlns:inkscape="http://www.inkscape.org/namespaces/inkscape" xmlns:rdf="http://www.w3.org/1999/02/22-rdf-syntax-ns#" xmlns:sodipodi="http://sodipodi.sourceforge.net/DTD/sodipodi-0.dtd" xmlns:svg="http://www.w3.org/2000/svg"
	 xmlns="http://www.w3.org/2000/svg" xmlns:xlink="http://www.w3.org/1999/xlink" x="0px" y="0px" viewBox="0 0 114 126"
	 style="enable-background:new 0 0 114 126;" xml:space="preserve">
<style type="text/css">
	.st0{display:none;}
	.st1{display:inline;fill:#6A6A6A;}
	.st2{fill:#C03050;stroke:#FFFFFF;stroke-width:1.4;}
	.st3{fill:#FFFFFF;stroke:#FFFFFF;}
	.st4{fill:none;stroke:#FFFFFF;}
	.st5{display:inline;fill:#FFFFFF;stroke:#FFFFFF;}
	.st6{display:none;fill:#FFFFFF;stroke:#FFFFFF;}
	.st7{fill:#55807C;stroke:#FFFFFF;stroke-width:1.4;stroke-linecap:round;stroke-linejoin:round;}
	.st8{fill:#FFFFFF;}
</style>
<defs>
	
	
		<inkscape:perspective  id="perspective4068" inkscape:persp3d-origin="372.04724 : 350.78739 : 1" inkscape:vp_x="0 : 526.18109 : 1" inkscape:vp_y="0 : 1000 : 0" inkscape:vp_z="744.09448 : 526.18109 : 1" sodipodi:type="inkscape:persp3d">
		</inkscape:perspective>
	
		<inkscape:perspective  id="perspective4049" inkscape:persp3d-origin="0.5 : 0.33333333 : 1" inkscape:vp_x="0 : 0.5 : 1" inkscape:vp_y="0 : 1000 : 0" inkscape:vp_z="1 : 0.5 : 1" sodipodi:type="inkscape:persp3d">
		</inkscape:perspective>
	
		<inkscape:perspective  id="perspective4122" inkscape:persp3d-origin="0.5 : 0.33333333 : 1" inkscape:vp_x="0 : 0.5 : 1" inkscape:vp_y="0 : 1000 : 0" inkscape:vp_z="1 : 0.5 : 1" sodipodi:type="inkscape:persp3d">
		</inkscape:perspective>
	
		<inkscape:perspective  id="perspective4282" inkscape:persp3d-origin="0.5 : 0.33333333 : 1" inkscape:vp_x="0 : 0.5 : 1" inkscape:vp_y="0 : 1000 : 0" inkscape:vp_z="1 : 0.5 : 1" sodipodi:type="inkscape:persp3d">
		</inkscape:perspective>
	
		<inkscape:perspective  id="perspective4282-9" inkscape:persp3d-origin="0.5 : 0.33333333 : 1" inkscape:vp_x="0 : 0.5 : 1" inkscape:vp_y="0 : 1000 : 0" inkscape:vp_z="1 : 0.5 : 1" sodipodi:type="inkscape:persp3d">
		</inkscape:perspective>
	
		<inkscape:perspective  id="perspective4282-3" inkscape:persp3d-origin="0.5 : 0.33333333 : 1" inkscape:vp_x="0 : 0.5 : 1" inkscape:vp_y="0 : 1000 : 0" inkscape:vp_z="1 : 0.5 : 1" sodipodi:type="inkscape:persp3d">
		</inkscape:perspective>
	
		<inkscape:perspective  id="perspective6911" inkscape:persp3d-origin="0.5 : 0.33333333 : 1" inkscape:vp_x="0 : 0.5 : 1" inkscape:vp_y="0 : 1000 : 0" inkscape:vp_z="1 : 0.5 : 1" sodipodi:type="inkscape:persp3d">
		</inkscape:perspective>
	
		<inkscape:perspective  id="perspective6933" inkscape:persp3d-origin="0.5 : 0.33333333 : 1" inkscape:vp_x="0 : 0.5 : 1" inkscape:vp_y="0 : 1000 : 0" inkscape:vp_z="1 : 0.5 : 1" sodipodi:type="inkscape:persp3d">
		</inkscape:perspective>
	
		<inkscape:perspective  id="perspective6967" inkscape:persp3d-origin="0.5 : 0.33333333 : 1" inkscape:vp_x="0 : 0.5 : 1" inkscape:vp_y="0 : 1000 : 0" inkscape:vp_z="1 : 0.5 : 1" sodipodi:type="inkscape:persp3d">
		</inkscape:perspective>
	
		<inkscape:perspective  id="perspective6992" inkscape:persp3d-origin="0.5 : 0.33333333 : 1" inkscape:vp_x="0 : 0.5 : 1" inkscape:vp_y="0 : 1000 : 0" inkscape:vp_z="1 : 0.5 : 1" sodipodi:type="inkscape:persp3d">
		</inkscape:perspective>
	
		<inkscape:perspective  id="perspective7019" inkscape:persp3d-origin="0.5 : 0.33333333 : 1" inkscape:vp_x="0 : 0.5 : 1" inkscape:vp_y="0 : 1000 : 0" inkscape:vp_z="1 : 0.5 : 1" sodipodi:type="inkscape:persp3d">
		</inkscape:perspective>
	
		<inkscape:perspective  id="perspective7050" inkscape:persp3d-origin="0.5 : 0.33333333 : 1" inkscape:vp_x="0 : 0.5 : 1" inkscape:vp_y="0 : 1000 : 0" inkscape:vp_z="1 : 0.5 : 1" sodipodi:type="inkscape:persp3d">
		</inkscape:perspective>
	
		<inkscape:perspective  id="perspective7083" inkscape:persp3d-origin="0.5 : 0.33333333 : 1" inkscape:vp_x="0 : 0.5 : 1" inkscape:vp_y="0 : 1000 : 0" inkscape:vp_z="1 : 0.5 : 1" sodipodi:type="inkscape:persp3d">
		</inkscape:perspective>
	
		<inkscape:perspective  id="perspective7083-5" inkscape:persp3d-origin="0.5 : 0.33333333 : 1" inkscape:vp_x="0 : 0.5 : 1" inkscape:vp_y="0 : 1000 : 0" inkscape:vp_z="1 : 0.5 : 1" sodipodi:type="inkscape:persp3d">
		</inkscape:perspective>
</defs>
<sodipodi:namedview  bordercolor="#666666" borderopacity="1.0" id="base" inkscape:current-layer="layer2" inkscape:cx="48.829076" inkscape:cy="52.641189" inkscape:document-units="px" inkscape:pageopacity="0.0" inkscape:pageshadow="2" inkscape:window-height="820" inkscape:window-maximized="0" inkscape:window-width="1387" inkscape:window-x="114" inkscape:window-y="102" inkscape:zoom="5.850025" pagecolor="#ffffff" showgrid="true">
	
		<inkscape:grid  dotted="true" empspacing="4" enabled="true" id="grid4091" snapvisiblegridlinesonly="true" spacingx="2px" spacingy="2px" type="xygrid" visible="true">
		</inkscape:grid>
</sodipodi:namedview>
<g id="layer2" transform="translate(-344,-722.36218)" inkscape:groupmode="layer" inkscape:label="Background" class="st0">
	
		<rect id="rect3193-3" x="337.1" y="722.4" inkscape:export-filename="/home/kwallace/tormach_linuxcnc/release/images/probe_corner.png" inkscape:export-xdpi="100" inkscape:export-ydpi="100" class="st1" width="114" height="126">
	</rect>
</g>
<g id="layer1" transform="translate(-344,-722.36218)" inkscape:groupmode="layer" inkscape:label="Layer 1">
	<path id="path3969-9" sodipodi:cx="1560" sodipodi:cy="431" sodipodi:rx="8" sodipodi:ry="8" sodipodi:type="arc" class="st2" d="
		M375.6,774.8c-5,0-9.2-4.1-9.2-9.2c0-5,4.1-9.2,9.2-9.2s9.2,4.1,9.2,9.2C384.7,770.6,380.6,774.8,375.6,774.8z"/>
	<path id="path5167-8-0-4-7-4-7-1" sodipodi:nodetypes="cccc" class="st3" d="M375.6,765.6l13.8-2.3v4.6L375.6,765.6z"/>
	<path id="path5167-8-0-4-7-4-7-2-86" sodipodi:nodetypes="cccc" class="st3" d="M417.2,765.6l-13.8,2.3v-4.6L417.2,765.6z"/>
	<path id="path4037-1" class="st4" d="M375.6,747.2v36.7l0,0"/>
	<path id="path4039-7" class="st3" d="M404.8,765.6h-45.2"/>
	<g id="g7006" transform="translate(18,2.6171874e-6)" class="st0">
		<path id="path5167-8-0-4-7-4-7-0" sodipodi:nodetypes="cccc" class="st5" d="M357.6,836.7l13.8-2.3v4.6L357.6,836.7z"/>
		<path id="path5167-8-0-4-7-4-7-2-5" sodipodi:nodetypes="cccc" class="st5" d="M394.2,836.7l-13.8,2.3v-4.6L394.2,836.7z"/>
		<path id="path4039-5" class="st5" d="M393.9,836.7h-36.7"/>
	</g>
	<path id="path5167-8-0-4-7-4-7-0-7" sodipodi:nodetypes="cccc" class="st6" d="M446.6,765.6l2.3,13.8h-4.6L446.6,765.6z"/>
	<path id="path5167-8-0-4-7-4-7-2-5-3" sodipodi:nodetypes="cccc" class="st6" d="M446.6,802.3l-2.3-13.8h4.6L446.6,802.3z"/>
	<path id="path5167-8-0-4-7-4-7-1-2" sodipodi:nodetypes="cccc" class="st3" d="M375.6,765.6l2.3,13.8h-4.6L375.6,765.6z"/>
	<path id="path5167-8-0-4-7-4-7-2-86-7" sodipodi:nodetypes="cccc" class="st3" d="M375.6,807.3l-2.3-13.8h4.6L375.6,807.3z"/>
	<path id="path4039-7-7" class="st3" d="M375.6,797.5v-31.9"/>
	<path id="path7880_1_" class="st7" d="M457.8,848.1"/>
</g>
<path class="st7" d="M104.3,119.1V37.4c-1.2,0-3.1,0.1-5.3,0.4c-3.5,0.6-3.9,1.3-5.9,1.1c-3.3-0.2-4-2.3-6.3-1.8
	c-1.8,0.4-2,1.9-3.9,2.3c-1.9,0.4-3.7-0.7-4.9-1.6l-1.6-0.4v50.4H24.6l-0.2,2.4c-0.4,1-0.9,2.6-0.9,4.5c0,2.6,1.1,3.4,2.4,7.5
	c1.8,6,2.1,7.7,1.3,9.4c-0.7,1.2-1.5,1.5-2.1,3.1c-0.7,1.7-0.6,3.3-0.4,4.4C51.2,119.1,77.8,119.1,104.3,119.1"/>
<g>
	<path class="st8" d="M0.7,84.7c0-1.2,0.4-2.2,1.3-3c0.8-0.8,1.8-1.2,3-1.2c1.2,0,2.2,0.4,3,1.2s1.2,1.8,1.2,3v9.7
		c0,1.2-0.4,2.2-1.3,3c-0.8,0.8-1.8,1.2-3,1.2c-1.2,0-2.2-0.4-3-1.3c-0.8-0.8-1.2-1.8-1.2-3V84.7z M3.5,94.5c0,0.4,0.2,0.8,0.5,1.1
		C4.2,95.9,4.6,96,5,96c0.4,0,0.8-0.2,1.1-0.5s0.4-0.7,0.4-1.1v-9.7c0-0.4-0.1-0.8-0.4-1.1S5.5,83.2,5,83.2c-0.4,0-0.8,0.2-1.1,0.5
		c-0.3,0.3-0.5,0.7-0.5,1.1V94.5z"/>
</g>
<g>
	<path class="st8" d="M73.9,15.1c0-1.2,0.4-2.2,1.3-3c0.8-0.8,1.8-1.2,3-1.2c1.2,0,2.2,0.4,3,1.2c0.8,0.8,1.2,1.8,1.2,3v9.7
		c0,1.2-0.4,2.2-1.3,3c-0.8,0.8-1.8,1.2-3,1.2c-1.2,0-2.2-0.4-3-1.3c-0.8-0.8-1.2-1.8-1.2-3V15.1z M76.7,24.9c0,0.4,0.2,0.8,0.5,1.1
		c0.3,0.3,0.7,0.5,1.1,0.5c0.4,0,0.8-0.2,1.1-0.5c0.3-0.3,0.4-0.7,0.4-1.1v-9.7c0-0.4-0.1-0.8-0.4-1.1c-0.3-0.3-0.7-0.5-1.1-0.5
		c-0.4,0-0.8,0.2-1.1,0.5c-0.3,0.3-0.5,0.7-0.5,1.1V24.9z"/>
</g>
</svg>
