<?xml version="1.0" encoding="UTF-8"?>
<!DOCTYPE svg PUBLIC "-//W3C//DTD SVG 1.1//EN" "http://www.w3.org/Graphics/SVG/1.1/DTD/svg11.dtd">
<svg version="1.1" xmlns="http://www.w3.org/2000/svg" xmlns:xlink="http://www.w3.org/1999/xlink" x="0" y="0" width="100" height="70" viewBox="0, 0, 100, 70">
  <defs>
    <pattern id="Pattern_1" patternUnits="userSpaceOnUse" x="-94.75" y="34.667" width="48" height="48" patternTransform="matrix(-0.049, 0.049, 0.049, 0.049, 0, 0)">
      <g transform="translate(0, -0)">
        <path d="M12,0 L16,0 L16,48 L12,48 L12,0 z" fill="#000000"/>
        <path d="M28,0 L32,0 L32,48 L28,48 L28,0 z" fill="#000000"/>
        <path d="M44,0 L48,0 L48,48 L44,48 L44,0 z" fill="#000000"/>
      </g>
    </pattern>
    <pattern id="Pattern_2" patternUnits="userSpaceOnUse" x="-85.25" y="28.333" width="48" height="48" patternTransform="matrix(-0.049, 0.049, 0.049, 0.049, 0, 0)">
      <g transform="translate(0, -0)">
        <path d="M12,0 L16,0 L16,48 L12,48 L12,0 z" fill="#000000"/>
        <path d="M28,0 L32,0 L32,48 L28,48 L28,0 z" fill="#000000"/>
        <path d="M44,0 L48,0 L48,48 L44,48 L44,0 z" fill="#000000"/>
      </g>
    </pattern>
    <pattern id="Pattern_3" patternUnits="userSpaceOnUse" x="-44.75" y="-34.667" width="48" height="48" patternTransform="matrix(-0.049, -0.049, 0.049, -0.049, 0, 0)">
      <g transform="translate(0, -0)">
        <path d="M12,0 L16,0 L16,48 L12,48 L12,0 z" fill="#000000"/>
        <path d="M28,0 L32,0 L32,48 L28,48 L28,0 z" fill="#000000"/>
        <path d="M44,0 L48,0 L48,48 L44,48 L44,0 z" fill="#000000"/>
      </g>
    </pattern>
    <pattern id="Pattern_4" patternUnits="userSpaceOnUse" x="-35.25" y="-41" width="48" height="48" patternTransform="matrix(-0.049, -0.049, 0.049, -0.049, 0, 0)">
      <g transform="translate(0, -0)">
        <path d="M12,0 L16,0 L16,48 L12,48 L12,0 z" fill="#000000"/>
        <path d="M28,0 L32,0 L32,48 L28,48 L28,0 z" fill="#000000"/>
        <path d="M44,0 L48,0 L48,48 L44,48 L44,0 z" fill="#000000"/>
      </g>
    </pattern>
    <pattern id="Pattern_5" patternUnits="userSpaceOnUse" x="-95.462" y="35.4" width="40" height="40" patternTransform="matrix(-0.4, 0, 0, 0.4, 0, 0)">
      <g transform="translate(-0, -0)">
        <path d="M40,0 L0,0 L0,40 L40,40 L40,0 z" fill="#BFBFBF"/>
        <path d="M30,0 L40,10 L40,0 L30,0 z" fill="#808080"/>
        <path d="M0,40 L0,30 L10,40 L0,40 z" fill="#808080"/>
        <path d="M30,40 L40,40 L40,30 L10,0 L0,0 L0,10" fill="#808080"/>
      </g>
    </pattern>
  </defs>
  <g id="Layer_1">
    <g id="Pulleys">
      <g id="In-pulley">
        <g>
          <path d="M56.719,41 L56.688,39.591 L58.906,38.683 L58.906,37.833 L58.906,36.984 L56.688,36.076 L56.719,34.667 L94.719,34.667 L94.75,36.076 L92.531,36.984 L92.531,37.833 L92.531,38.683 L94.75,39.591 L94.719,41 L56.719,41" fill="#FFFFFF"/>
          <path d="M56.719,41 L56.688,39.591 L58.906,38.683 L58.906,37.833 L58.906,36.984 L56.688,36.076 L56.719,34.667 L94.719,34.667 L94.75,36.076 L92.531,36.984 L92.531,37.833 L92.531,38.683 L94.75,39.591 L94.719,41 L56.719,41" fill="url(#Pattern_1)"/>
          <path d="M56.719,41 L56.688,39.591 L58.906,38.683 L58.906,37.833 L58.906,36.984 L56.688,36.076 L56.719,34.667 L94.719,34.667 L94.75,36.076 L92.531,36.984 L92.531,37.833 L92.531,38.683 L94.75,39.591 L94.719,41 L56.719,41" fill-opacity="0" stroke="#000000" stroke-width="0.5"/>
        </g>
        <g>
          <path d="M66.219,34.667 L66.188,33.257 L68.406,32.349 L68.406,31.5 L68.406,30.65 L66.188,29.742 L66.219,28.333 L85.219,28.333 L85.25,29.742 L83.031,30.65 L83.031,31.5 L83.031,32.349 L85.25,33.257 L85.219,34.667" fill="#FFFFFF"/>
          <path d="M66.219,34.667 L66.188,33.257 L68.406,32.349 L68.406,31.5 L68.406,30.65 L66.188,29.742 L66.219,28.333 L85.219,28.333 L85.25,29.742 L83.031,30.65 L83.031,31.5 L83.031,32.349 L85.25,33.257 L85.219,34.667" fill="url(#Pattern_2)"/>
          <path d="M66.219,34.667 L66.188,33.257 L68.406,32.349 L68.406,31.5 L68.406,30.65 L66.188,29.742 L66.219,28.333 L85.219,28.333 L85.25,29.742 L83.031,30.65 L83.031,31.5 L83.031,32.349 L85.25,33.257 L85.219,34.667" fill-opacity="0" stroke="#000000" stroke-width="0.5"/>
        </g>
      </g>
      <g id="Out-pulley">
        <g id="larger_pulley">
          <path d="M6.719,28.333 L6.688,29.742 L8.906,30.65 L8.906,31.5 L8.906,32.349 L6.688,33.257 L6.719,34.667 L44.719,34.667 L44.75,33.257 L42.531,32.349 L42.531,31.5 L42.531,30.65 L44.75,29.742 L44.719,28.333 L6.719,28.333" fill="#FFFFFF"/>
          <path d="M6.719,28.333 L6.688,29.742 L8.906,30.65 L8.906,31.5 L8.906,32.349 L6.688,33.257 L6.719,34.667 L44.719,34.667 L44.75,33.257 L42.531,32.349 L42.531,31.5 L42.531,30.65 L44.75,29.742 L44.719,28.333 L6.719,28.333" fill="url(#Pattern_3)"/>
          <path d="M6.719,28.333 L6.688,29.742 L8.906,30.65 L8.906,31.5 L8.906,32.349 L6.688,33.257 L6.719,34.667 L44.719,34.667 L44.75,33.257 L42.531,32.349 L42.531,31.5 L42.531,30.65 L44.75,29.742 L44.719,28.333 L6.719,28.333" fill-opacity="0" stroke="#000000" stroke-width="0.5"/>
        </g>
        <g id="small_pully">
          <path d="M16.219,34.667 L16.188,36.076 L18.406,36.984 L18.406,37.833 L18.406,38.683 L16.188,39.591 L16.219,41 L35.219,41 L35.25,39.591 L33.031,38.683 L33.031,37.833 L33.031,36.984 L35.25,36.076 L35.219,34.667" fill="#FFFFFF"/>
          <path d="M16.219,34.667 L16.188,36.076 L18.406,36.984 L18.406,37.833 L18.406,38.683 L16.188,39.591 L16.219,41 L35.219,41 L35.25,39.591 L33.031,38.683 L33.031,37.833 L33.031,36.984 L35.25,36.076 L35.219,34.667" fill="url(#Pattern_4)"/>
          <path d="M16.219,34.667 L16.188,36.076 L18.406,36.984 L18.406,37.833 L18.406,38.683 L16.188,39.591 L16.219,41 L35.219,41 L35.25,39.591 L33.031,38.683 L33.031,37.833 L33.031,36.984 L35.25,36.076 L35.219,34.667" fill-opacity="0" stroke="#000000" stroke-width="0.5"/>
        </g>
      </g>
      <g id="Belt">
        <path d="M95.463,35.4 L15.337,35.4 L15.337,40.15 L95.463,40.15 L95.463,35.4 z" fill="url(#Pattern_5)"/>
        <path d="M95.463,35.4 L15.337,35.4 L15.337,40.15 L95.463,40.15 L95.463,35.4 z" fill-opacity="0" stroke="#000000" stroke-width="0.5"/>
      </g>
    </g>
    <g>
      <path d="M26.669,2.475 L26.669,9.95" fill-opacity="0" stroke="#02A302" stroke-width="4"/>
      <path d="M21.869,9.95 L26.669,22.75 L31.469,9.95 z" fill="#02A302" fill-opacity="1" stroke="#02A302" stroke-width="4" stroke-opacity="1"/>
    </g>
    <g>
      <path d="M75.469,43.25 L75.469,50.725" fill-opacity="0" stroke="#0000FF" stroke-width="4"/>
      <path d="M70.669,50.725 L75.469,63.525 L80.269,50.725 z" fill="#0000FF" fill-opacity="1" stroke="#0000FF" stroke-width="4" stroke-opacity="1"/>
    </g>
  </g>
</svg>
