<?xml version="1.0" encoding="UTF-8"?>
<!DOCTYPE svg PUBLIC "-//W3C//DTD SVG 1.1//EN" "http://www.w3.org/Graphics/SVG/1.1/DTD/svg11.dtd">
<svg version="1.1" xmlns="http://www.w3.org/2000/svg" xmlns:xlink="http://www.w3.org/1999/xlink" x="0" y="0" width="100" height="70" viewBox="0, 0, 100, 70">
  <defs>
    <pattern id="Pattern_1" patternUnits="userSpaceOnUse" x="-25.884" y="35.827" width="48" height="48" patternTransform="matrix(0.177, 0.177, -0.177, 0.177, 0, 0)">
      <g transform="translate(0, -0)">
        <path d="M12,0 L16,0 L16,48 L12,48 L12,0 z" fill="#000000"/>
        <path d="M28,0 L32,0 L32,48 L28,48 L28,0 z" fill="#000000"/>
        <path d="M44,0 L48,0 L48,48 L44,48 L44,0 z" fill="#000000"/>
      </g>
    </pattern>
  </defs>
  <g id="Layer_1">
    <path d="M0,0 L100,0 L100,70 L0,70 L0,0 z" fill="#4F4F51" fill-opacity="0.828"/>
    <g id="thread">
      <path d="M146.377,35.827 L128.074,67.527 L124.08,67.527 L105.778,35.827 L102.111,35.827 L83.808,67.527 L79.814,67.527 L61.512,35.827 L58.98,35.827 L40.677,67.527 L36.684,67.527 L18.382,35.827 L14.714,35.827 L-3.589,67.527 L-7.582,67.527 L-25.884,35.827 L-25.884,109.8 L146.377,109.8 L146.377,35.827 z" fill="#D4D4D4"/>
      <path d="M146.377,35.827 L128.074,67.527 L124.08,67.527 L105.778,35.827 L102.111,35.827 L83.808,67.527 L79.814,67.527 L61.512,35.827 L58.98,35.827 L40.677,67.527 L36.684,67.527 L18.382,35.827 L14.714,35.827 L-3.589,67.527 L-7.582,67.527 L-25.884,35.827 L-25.884,109.8 L146.377,109.8 L146.377,35.827 z" fill="url(#Pattern_1)"/>
      <path d="M146.377,35.827 L128.074,67.527 L124.08,67.527 L105.778,35.827 L102.111,35.827 L83.808,67.527 L79.814,67.527 L61.512,35.827 L58.98,35.827 L40.677,67.527 L36.684,67.527 L18.382,35.827 L14.714,35.827 L-3.589,67.527 L-7.582,67.527 L-25.884,35.827 L-25.884,109.8 L146.377,109.8 L146.377,35.827 z" fill-opacity="0" stroke="#000000" stroke-width="1"/>
    </g>
    <path d="M17.025,65.625 L17.025,5.375" fill-opacity="0" stroke="#00FF00" stroke-width="1" stroke-dasharray="3,2"/>
    <path d="M60.746,65.625 L60.746,5.375" fill-opacity="0" stroke="#00FF00" stroke-width="1" stroke-dasharray="3,2"/>
    <g>
      <path d="M26.025,19.5 L51.746,19.5" fill-opacity="0" stroke="#FFFFFF" stroke-width="1"/>
      <path d="M26.025,16.5 L18.025,19.5 L26.025,22.5 z" fill="#FFFFFF" fill-opacity="1" stroke="#FFFFFF" stroke-width="1" stroke-opacity="1"/>
      <path d="M51.746,22.5 L59.746,19.5 L51.746,16.5 z" fill="#FFFFFF" fill-opacity="1" stroke="#FFFFFF" stroke-width="1" stroke-opacity="1"/>
    </g>
  </g>
</svg>
