<?xml version="1.0" encoding="UTF-8"?>
<!DOCTYPE svg PUBLIC "-//W3C//DTD SVG 1.1//EN" "http://www.w3.org/Graphics/SVG/1.1/DTD/svg11.dtd">
<svg version="1.1" xmlns="http://www.w3.org/2000/svg" xmlns:xlink="http://www.w3.org/1999/xlink" x="0" y="0" width="100" height="70" viewBox="0, 0, 100, 70">
  <defs>
    <pattern id="Pattern_1" patternUnits="userSpaceOnUse" x="-80.319" y="-85.073" width="48" height="48" patternTransform="matrix(0.177, -0.177, -0.177, -0.177, 0, 0)">
      <g transform="translate(0, -0)">
        <path d="M12,0 L16,0 L16,48 L12,48 L12,0 z" fill="#000000"/>
        <path d="M28,0 L32,0 L32,48 L28,48 L28,0 z" fill="#000000"/>
        <path d="M44,0 L48,0 L48,48 L44,48 L44,0 z" fill="#000000"/>
      </g>
    </pattern>
  </defs>
  <g id="Layer_1">
    <path d="M0,0 L100,0 L100,70 L0,70 L0,0 z" fill="#4F4F51" fill-opacity="0.828"/>
    <g id="Holder">
      <path d="M105.184,-0.069 L91.978,25.125 L56.684,25.125 L56.684,-167.638 L105.184,-167.638 L105.184,-0.069" fill="#000000" fill-opacity="0.671"/>
      <path d="M105.184,-0.069 L91.978,25.125 L56.684,25.125 L56.684,-167.638 L105.184,-167.638 L105.184,-0.069" fill-opacity="0" stroke="#000000" stroke-width="1"/>
    </g>
    <g id="Insert">
      <g>
        <path d="M64.998,-3.219 L55.395,-2.836 L59.216,3.782 L57.939,6.185 L55.206,6.93 L55.489,34.241 L60.824,43.482 L64.593,36.311 L67.384,36.531 L69.191,38.652 L93.043,24.881 L97.993,15.862 L90.427,15.734 L88.985,13.237 L89.671,10.676 L64.998,-3.219" fill="#FFFF00"/>
        <path d="M64.998,-3.219 L55.395,-2.836 L59.216,3.782 L57.939,6.185 L55.206,6.93 L55.489,34.241 L60.824,43.482 L64.593,36.311 L67.384,36.531 L69.191,38.652 L93.043,24.881 L97.993,15.862 L90.427,15.734 L88.985,13.237 L89.671,10.676 L64.998,-3.219" fill-opacity="0" stroke="#B4B400" stroke-width="1"/>
      </g>
      <g>
        <path d="M66.322,20.993 C68.234,24.304 72.467,25.438 75.777,23.527 C79.088,21.615 80.222,17.382 78.311,14.071 C76.399,10.761 72.166,9.627 68.856,11.538 C65.545,13.449 64.411,17.682 66.322,20.993 z" fill="#FFFF00"/>
        <path d="M66.322,20.993 C68.234,24.304 72.467,25.438 75.777,23.527 C79.088,21.615 80.222,17.382 78.311,14.071 C76.399,10.761 72.166,9.627 68.856,11.538 C65.545,13.449 64.411,17.682 66.322,20.993 z" fill-opacity="0" stroke="#000000" stroke-width="1"/>
      </g>
    </g>
    <g id="Threaded_stock">
      <path d="M40.125,64.317 L40.125,85.073 L-80.319,85.073 L-80.319,64.317 L-75.301,55.625 L-70.282,64.317 L-65.264,55.625 L-60.245,64.317 L-55.227,55.625 L-50.208,64.317 L-45.19,55.625 L-40.171,64.317 L-35.153,55.625 L-30.134,64.317 L-25.116,55.625 L-20.097,64.317 L-15.079,55.625 L-10.06,64.317 L-5.042,55.625 L-0.023,64.317 L4.995,55.625 L10.014,64.317 L15.032,55.625 L20.051,64.317 L25.069,55.625 L30.088,64.317 L35.106,55.625 L40.125,64.317" fill="#FFFFFF"/>
      <path d="M40.125,64.317 L40.125,85.073 L-80.319,85.073 L-80.319,64.317 L-75.301,55.625 L-70.282,64.317 L-65.264,55.625 L-60.245,64.317 L-55.227,55.625 L-50.208,64.317 L-45.19,55.625 L-40.171,64.317 L-35.153,55.625 L-30.134,64.317 L-25.116,55.625 L-20.097,64.317 L-15.079,55.625 L-10.06,64.317 L-5.042,55.625 L-0.023,64.317 L4.995,55.625 L10.014,64.317 L15.032,55.625 L20.051,64.317 L25.069,55.625 L30.088,64.317 L35.106,55.625 L40.125,64.317" fill="url(#Pattern_1)"/>
      <path d="M40.125,64.317 L40.125,85.073 L-80.319,85.073 L-80.319,64.317 L-75.301,55.625 L-70.282,64.317 L-65.264,55.625 L-60.245,64.317 L-55.227,55.625 L-50.208,64.317 L-45.19,55.625 L-40.171,64.317 L-35.153,55.625 L-30.134,64.317 L-25.116,55.625 L-20.097,64.317 L-15.079,55.625 L-10.06,64.317 L-5.042,55.625 L-0.023,64.317 L4.995,55.625 L10.014,64.317 L15.032,55.625 L20.051,64.317 L25.069,55.625 L30.088,64.317 L35.106,55.625 L40.125,64.317" fill-opacity="0" stroke="#000000" stroke-width="1"/>
    </g>
    <g>
      <path d="M-9.25,44.25 L102,44.25" fill-opacity="0" stroke="#28C128" stroke-width="1.25" stroke-opacity="0.911" stroke-dasharray="3.75,2.5"/>
      <path d="M-9.25,56.365 L100.562,56.365" fill-opacity="0" stroke="#FFFF00" stroke-width="1.25" stroke-opacity="0.911" stroke-dasharray="3.75,2.5"/>
      <g>
        <path d="M49,36.75 L49,24.5" fill-opacity="0" stroke="#00FF00" stroke-width="0.75"/>
        <path d="M46.75,36.75 L49,42.75 L51.25,36.75 z" fill="#00FF00" fill-opacity="1" stroke="#00FF00" stroke-width="0.75" stroke-opacity="1"/>
      </g>
      <g>
        <path d="M49,63.115 L49,75.365" fill-opacity="0" stroke="#00FF00" stroke-width="0.75"/>
        <path d="M51.25,63.115 L49,57.115 L46.75,63.115 z" fill="#00FF00" fill-opacity="1" stroke="#00FF00" stroke-width="0.75" stroke-opacity="1"/>
      </g>
    </g>
  </g>
</svg>
