<?xml version="1.0" encoding="UTF-8"?>
<!DOCTYPE svg PUBLIC "-//W3C//DTD SVG 1.1//EN" "http://www.w3.org/Graphics/SVG/1.1/DTD/svg11.dtd">
<svg version="1.1" xmlns="http://www.w3.org/2000/svg" xmlns:xlink="http://www.w3.org/1999/xlink" x="0" y="0" width="100" height="70" viewBox="0, 0, 100, 70">
  <defs>
    <pattern id="Pattern_1" patternUnits="userSpaceOnUse" x="-72.319" y="-15.375" width="48" height="48" patternTransform="matrix(0.177, 0.177, -0.177, 0.177, 0, 0)">
      <g transform="translate(0, -0)">
        <path d="M12,0 L16,0 L16,48 L12,48 L12,0 z" fill="#000000"/>
        <path d="M28,0 L32,0 L32,48 L28,48 L28,0 z" fill="#000000"/>
        <path d="M44,0 L48,0 L48,48 L44,48 L44,0 z" fill="#000000"/>
      </g>
    </pattern>
  </defs>
  <g id="Layer_1">
    <path d="M0,0 L100,0 L100,70 L0,70 L0,0 z" fill="#4F4F51" fill-opacity="0.828"/>
    <g id="Holder">
      <path d="M84.996,34.437 L59.802,47.643 L59.802,82.937 L252.565,82.937 L252.565,34.437 L84.996,34.437" fill="#000000" fill-opacity="0.671"/>
      <path d="M84.996,34.437 L59.802,47.643 L59.802,82.937 L252.565,82.937 L252.565,34.437 L84.996,34.437" fill-opacity="0" stroke="#000000" stroke-width="1"/>
    </g>
    <g id="Insert">
      <g>
        <path d="M98.107,46.472 L102.578,54.98 L94.935,54.98 L93.493,57.287 L94.214,60.027 L70.421,73.438 L59.75,73.438 L64.076,66.588 L62.49,64.281 L59.75,63.776 L59.75,36.234 L65.085,27.438 L68.979,33.927 L71.863,33.927 L73.737,32.052 L98.107,46.472" fill="#FFFF00"/>
        <path d="M98.107,46.472 L102.578,54.98 L94.935,54.98 L93.493,57.287 L94.214,60.027 L70.421,73.438 L59.75,73.438 L64.076,66.588 L62.49,64.281 L59.75,63.776 L59.75,36.234 L65.085,27.438 L68.979,33.927 L71.863,33.927 L73.737,32.052 L98.107,46.472" fill-opacity="0" stroke="#B4B400" stroke-width="1"/>
      </g>
      <g>
        <path d="M76.477,57.431 C72.655,57.431 69.556,54.332 69.556,50.51 C69.556,46.687 72.655,43.588 76.477,43.588 C80.3,43.588 83.399,46.687 83.399,50.51 C83.399,54.332 80.3,57.431 76.477,57.431 z" fill="#FFFF00"/>
        <path d="M76.477,57.431 C72.655,57.431 69.556,54.332 69.556,50.51 C69.556,46.687 72.655,43.588 76.477,43.588 C80.3,43.588 83.399,46.687 83.399,50.51 C83.399,54.332 80.3,57.431 76.477,57.431 z" fill-opacity="0" stroke="#000000" stroke-width="1"/>
      </g>
    </g>
    <g id="Threaded_stock">
      <path d="M48.125,5.381 L48.125,-15.375 L-72.319,-15.375 L-72.319,5.381 L-67.301,14.073 L-62.282,5.381 L-57.264,14.073 L-52.245,5.381 L-47.227,14.073 L-42.208,5.381 L-37.19,14.073 L-32.171,5.381 L-27.153,14.073 L-22.134,5.381 L-17.116,14.073 L-12.097,5.381 L-7.079,14.073 L-2.06,5.381 L2.958,14.073 L7.977,5.381 L12.995,14.073 L18.014,5.381 L23.032,14.073 L28.051,5.381 L33.069,14.073 L38.088,5.381 L43.106,14.073 L48.125,5.381" fill="#FFFFFF"/>
      <path d="M48.125,5.381 L48.125,-15.375 L-72.319,-15.375 L-72.319,5.381 L-67.301,14.073 L-62.282,5.381 L-57.264,14.073 L-52.245,5.381 L-47.227,14.073 L-42.208,5.381 L-37.19,14.073 L-32.171,5.381 L-27.153,14.073 L-22.134,5.381 L-17.116,14.073 L-12.097,5.381 L-7.079,14.073 L-2.06,5.381 L2.958,14.073 L7.977,5.381 L12.995,14.073 L18.014,5.381 L23.032,14.073 L28.051,5.381 L33.069,14.073 L38.088,5.381 L43.106,14.073 L48.125,5.381" fill="url(#Pattern_1)"/>
      <path d="M48.125,5.381 L48.125,-15.375 L-72.319,-15.375 L-72.319,5.381 L-67.301,14.073 L-62.282,5.381 L-57.264,14.073 L-52.245,5.381 L-47.227,14.073 L-42.208,5.381 L-37.19,14.073 L-32.171,5.381 L-27.153,14.073 L-22.134,5.381 L-17.116,14.073 L-12.097,5.381 L-7.079,14.073 L-2.06,5.381 L2.958,14.073 L7.977,5.381 L12.995,14.073 L18.014,5.381 L23.032,14.073 L28.051,5.381 L33.069,14.073 L38.088,5.381 L43.106,14.073 L48.125,5.381" fill-opacity="0" stroke="#000000" stroke-width="1"/>
    </g>
    <path d="M-5.25,15.323 L106,15.323" fill-opacity="0" stroke="#28C128" stroke-width="1.25" stroke-opacity="0.911" stroke-dasharray="3.75,2.5"/>
    <path d="M-5.25,27.438 L104.562,27.438" fill-opacity="0" stroke="#FFFF00" stroke-width="1.25" stroke-opacity="0.911" stroke-dasharray="3.75,2.5"/>
    <g>
      <path d="M53,7.823 L53,-4.427" fill-opacity="0" stroke="#00FF00" stroke-width="0.75"/>
      <path d="M50.75,7.823 L53,13.823 L55.25,7.823 z" fill="#00FF00" fill-opacity="1" stroke="#00FF00" stroke-width="0.75" stroke-opacity="1"/>
    </g>
    <g>
      <path d="M53,34.188 L53,46.438" fill-opacity="0" stroke="#00FF00" stroke-width="0.75"/>
      <path d="M55.25,34.188 L53,28.188 L50.75,34.188 z" fill="#00FF00" fill-opacity="1" stroke="#00FF00" stroke-width="0.75" stroke-opacity="1"/>
    </g>
  </g>
</svg>
